<svg width="157" height="333" viewBox="0 0 157 333" fill="none" xmlns="http://www.w3.org/2000/svg">
<g opacity="0.1">
<g clip-path="url(#clip0_199:1000)">
<path d="M31.6672 5.15723L7.85583 94.0224" stroke="#A9CAB9" stroke-width="2"/>
</g>
<g clip-path="url(#clip1_199:1000)">
<path d="M52.3746 11.9108L17.1677 96.9077" stroke="#A9CAB9" stroke-width="2"/>
</g>
<g clip-path="url(#clip2_199:1000)">
<path d="M72.0233 21.3094L26.0233 100.984" stroke="#A9CAB9" stroke-width="2"/>
</g>
<g clip-path="url(#clip3_199:1000)">
<path d="M90.2772 33.1924L34.2711 106.181" stroke="#A9CAB9" stroke-width="2"/>
</g>
<g clip-path="url(#clip4_199:1000)">
<path d="M106.824 47.3563L41.7699 112.41" stroke="#A9CAB9" stroke-width="2"/>
</g>
<g clip-path="url(#clip5_199:1000)">
<path d="M121.38 63.5585L48.391 119.564" stroke="#A9CAB9" stroke-width="2"/>
</g>
<g clip-path="url(#clip6_199:1000)">
<path d="M133.697 81.5223L54.0224 127.522" stroke="#A9CAB9" stroke-width="2"/>
</g>
<g clip-path="url(#clip7_199:1000)">
<path d="M143.563 100.94L58.5664 136.147" stroke="#A9CAB9" stroke-width="2"/>
</g>
<g clip-path="url(#clip8_199:1000)">
<path d="M150.811 121.48L61.9458 145.291" stroke="#A9CAB9" stroke-width="2"/>
</g>
<g clip-path="url(#clip9_199:1000)">
<path d="M155.316 142.789L64.1033 154.798" stroke="#A9CAB9" stroke-width="2"/>
</g>
<g clip-path="url(#clip10_199:1000)">
<path d="M157.001 164.505L65.0011 164.505" stroke="#A9CAB9" stroke-width="2"/>
</g>
<g clip-path="url(#clip11_199:1000)">
<path d="M155.837 186.255L64.6242 174.246" stroke="#A9CAB9" stroke-width="2"/>
</g>
<g clip-path="url(#clip12_199:1000)">
<path d="M151.843 207.666L62.9782 183.855" stroke="#A9CAB9" stroke-width="2"/>
</g>
<g clip-path="url(#clip13_199:1000)">
<path d="M145.09 228.373L60.0929 193.167" stroke="#A9CAB9" stroke-width="2"/>
</g>
<g clip-path="url(#clip14_199:1000)">
<path d="M135.691 248.022L56.0167 202.022" stroke="#A9CAB9" stroke-width="2"/>
</g>
<g clip-path="url(#clip15_199:1000)">
<path d="M123.808 266.276L50.8196 210.269" stroke="#A9CAB9" stroke-width="2"/>
</g>
<g clip-path="url(#clip16_199:1000)">
<path d="M109.644 282.822L44.5905 217.768" stroke="#A9CAB9" stroke-width="2"/>
</g>
<g clip-path="url(#clip17_199:1000)">
<path d="M93.4421 297.378L37.4361 224.39" stroke="#A9CAB9" stroke-width="2"/>
</g>
<g clip-path="url(#clip18_199:1000)">
<path d="M75.4783 309.695L29.4783 230.021" stroke="#A9CAB9" stroke-width="2"/>
</g>
<g clip-path="url(#clip19_199:1000)">
<path d="M56.0604 319.562L20.8536 234.565" stroke="#A9CAB9" stroke-width="2"/>
</g>
<g clip-path="url(#clip20_199:1000)">
<path d="M35.521 326.81L11.7097 237.945" stroke="#A9CAB9" stroke-width="2"/>
</g>
<g clip-path="url(#clip21_199:1000)">
<path d="M14.2108 331.315L2.20243 240.102" stroke="#A9CAB9" stroke-width="2"/>
</g>
<g clip-path="url(#clip22_199:1000)">
<path d="M10.2557 1.16431L-1.75273 92.3772" stroke="#A9CAB9" stroke-width="2"/>
</g>
</g>
<defs>
<clipPath id="clip0_199:1000">
<rect width="9.98998" height="332.999" fill="white" transform="translate(28.7694 4.38074) rotate(15)"/>
</clipPath>
<clipPath id="clip1_199:1000">
<rect width="9.98998" height="332.999" fill="white" transform="translate(49.603 10.7627) rotate(22.5)"/>
</clipPath>
<clipPath id="clip2_199:1000">
<rect width="9.98998" height="332.999" fill="white" transform="translate(69.4253 19.8094) rotate(30)"/>
</clipPath>
<clipPath id="clip3_199:1000">
<rect width="9.98998" height="332.999" fill="white" transform="translate(87.8972 31.3661) rotate(37.5)"/>
</clipPath>
<clipPath id="clip4_199:1000">
<rect width="9.98998" height="332.999" fill="white" transform="translate(104.702 45.235) rotate(45)"/>
</clipPath>
<clipPath id="clip5_199:1000">
<rect width="9.98998" height="332.999" fill="white" transform="translate(119.553 61.1785) rotate(52.5)"/>
</clipPath>
<clipPath id="clip6_199:1000">
<rect width="9.98998" height="332.999" fill="white" transform="translate(132.197 78.9243) rotate(60)"/>
</clipPath>
<clipPath id="clip7_199:1000">
<rect width="9.98998" height="332.999" fill="white" transform="translate(142.415 98.1686) rotate(67.5)"/>
</clipPath>
<clipPath id="clip8_199:1000">
<rect width="9.98998" height="332.999" fill="white" transform="translate(150.035 118.582) rotate(75)"/>
</clipPath>
<clipPath id="clip9_199:1000">
<rect width="9.98998" height="332.999" fill="white" transform="translate(154.925 139.815) rotate(82.5)"/>
</clipPath>
<clipPath id="clip10_199:1000">
<rect width="9.98998" height="332.999" fill="white" transform="translate(157.001 161.505) rotate(90)"/>
</clipPath>
<clipPath id="clip11_199:1000">
<rect width="9.98998" height="332.999" fill="white" transform="translate(156.229 183.28) rotate(97.5)"/>
</clipPath>
<clipPath id="clip12_199:1000">
<rect width="9.98998" height="332.999" fill="white" transform="translate(152.62 204.768) rotate(105)"/>
</clipPath>
<clipPath id="clip13_199:1000">
<rect width="9.98998" height="332.999" fill="white" transform="translate(146.238 225.602) rotate(112.5)"/>
</clipPath>
<clipPath id="clip14_199:1000">
<rect width="9.98998" height="332.999" fill="white" transform="translate(137.191 245.424) rotate(120)"/>
</clipPath>
<clipPath id="clip15_199:1000">
<rect width="9.98998" height="332.999" fill="white" transform="translate(125.634 263.896) rotate(127.5)"/>
</clipPath>
<clipPath id="clip16_199:1000">
<rect width="9.98998" height="332.999" fill="white" transform="translate(111.766 280.701) rotate(135)"/>
</clipPath>
<clipPath id="clip17_199:1000">
<rect width="9.98998" height="332.999" fill="white" transform="translate(95.8221 295.552) rotate(142.5)"/>
</clipPath>
<clipPath id="clip18_199:1000">
<rect width="9.98998" height="332.999" fill="white" transform="translate(78.0763 308.195) rotate(150)"/>
</clipPath>
<clipPath id="clip19_199:1000">
<rect width="9.98998" height="332.999" fill="white" transform="translate(58.832 318.414) rotate(157.5)"/>
</clipPath>
<clipPath id="clip20_199:1000">
<rect width="9.98998" height="332.999" fill="white" transform="translate(38.4188 326.033) rotate(165)"/>
</clipPath>
<clipPath id="clip21_199:1000">
<rect width="9.98998" height="332.999" fill="white" transform="translate(17.1852 330.923) rotate(172.5)"/>
</clipPath>
<clipPath id="clip22_199:1000">
<rect width="9.98998" height="332.999" fill="white" transform="translate(7.28137 0.772705) rotate(7.50004)"/>
</clipPath>
</defs>
</svg>
