<svg width="12" height="12" viewBox="0 0 12 12" fill="none" xmlns="http://www.w3.org/2000/svg">
<path d="M6 0.312744C4.87512 0.312744 3.7755 0.64631 2.8402 1.27126C1.90489 1.89621 1.17591 2.78448 0.745438 3.82373C0.314964 4.86299 0.202333 6.00655 0.421786 7.10982C0.64124 8.21309 1.18292 9.2265 1.97833 10.0219C2.77374 10.8173 3.78716 11.359 4.89043 11.5785C5.99369 11.7979 7.13726 11.6853 8.17651 11.2548C9.21577 10.8243 10.104 10.0954 10.729 9.16005C11.3539 8.22474 11.6875 7.12513 11.6875 6.00024C11.6858 4.49236 11.086 3.04673 10.0197 1.9805C8.95351 0.914264 7.50789 0.314487 6 0.312744ZM8.70874 5.00433L5.50012 8.06683C5.41854 8.14445 5.31024 8.18774 5.19763 8.18774C5.08503 8.18774 4.97673 8.14445 4.89514 8.06683L3.29126 6.53558C3.20747 6.45532 3.15896 6.34507 3.15639 6.22907C3.15382 6.11306 3.19741 6.00078 3.27757 5.91689C3.35772 5.83299 3.46791 5.78434 3.58391 5.78163C3.69991 5.77891 3.81225 5.82235 3.89624 5.9024L5.19763 7.14526L8.10376 4.37115C8.18776 4.2911 8.3001 4.24766 8.4161 4.25038C8.5321 4.25309 8.64228 4.30174 8.72244 4.38564C8.8026 4.46953 8.84618 4.58181 8.84361 4.69782C8.84104 4.81383 8.79254 4.92407 8.70874 5.00433Z" fill="#C85A16"/>
</svg>
