<svg width="16" height="16" viewBox="0 0 16 16" fill="none" xmlns="http://www.w3.org/2000/svg">
<path fill-rule="evenodd" clip-rule="evenodd" d="M2.33325 6.87842C2.33325 3.81185 4.89584 1.33325 7.99555 1.33325C11.104 1.33325 13.6666 3.81185 13.6666 6.87842C13.6666 8.42371 13.1046 9.85834 12.1796 11.0743C11.1591 12.4156 9.90136 13.5842 8.48561 14.5015C8.16159 14.7135 7.86917 14.7295 7.51355 14.5015C6.08974 13.5842 4.83198 12.4156 3.82025 11.0743C2.89457 9.85834 2.33325 8.42371 2.33325 6.87842ZM6.1294 7.05109C6.1294 8.07839 6.96769 8.88637 7.99555 8.88637C9.02408 8.88637 9.87043 8.07839 9.87043 7.05109C9.87043 6.03178 9.02408 5.18447 7.99555 5.18447C6.96769 5.18447 6.1294 6.03178 6.1294 7.05109Z" fill="#C85A16"/>
</svg>
