<svg width="130" height="493" viewBox="0 0 130 493" fill="none" xmlns="http://www.w3.org/2000/svg">
<g opacity="0.1">
<path opacity="0.0526316" d="M39.3924 397.734C50.0901 411.966 84.281 435.783 135.463 417.188C199.441 393.945 224.185 332.334 281.286 300.388C323.431 276.809 436.677 241.416 501.794 280.526" stroke="#A9CAB9" stroke-width="1.45842"/>
<path opacity="0.105263" d="M28.8401 367.897C37.9915 383.169 69.5057 410.429 122.351 397.286C188.408 380.858 219.457 322.171 279.584 296.369C323.963 277.324 440.288 253.963 500.961 299.665" stroke="#A9CAB9" stroke-width="1.45842"/>
<path opacity="0.157895" d="M20.869 337.658C28.3738 353.803 56.866 384.208 110.796 376.661C178.208 367.228 215.221 312.107 277.716 292.731C323.843 278.43 441.972 267.356 497.535 319.15" stroke="#A9CAB9" stroke-width="1.45842"/>
<path opacity="0.210526" d="M15.5054 307.288C21.2814 324.129 46.4394 357.345 100.863 355.477C168.892 353.142 211.463 302.193 275.642 289.455C323.01 280.054 441.65 281.388 491.495 338.706" stroke="#A9CAB9" stroke-width="1.45842"/>
<path opacity="0.263158" d="M12.7492 277.061C16.7332 294.414 38.2813 330.077 92.6017 333.908C160.502 338.697 208.166 292.477 273.325 286.518C321.416 282.119 439.266 295.847 482.847 358.062" stroke="#A9CAB9" stroke-width="1.45842"/>
<path opacity="0.315789" d="M12.5725 247.248C14.7208 264.923 32.4229 302.643 86.0453 312.131C153.073 323.991 205.308 283.006 270.732 283.891C319.02 284.544 434.789 310.515 471.628 376.944" stroke="#A9CAB9" stroke-width="1.45842"/>
<path opacity="0.368421" d="M14.9147 218.117C15.2038 235.919 28.866 275.284 81.2029 290.325C146.624 309.126 202.856 273.826 267.83 281.544C315.785 287.241 428.206 325.171 457.899 395.087" stroke="#A9CAB9" stroke-width="1.45842"/>
<path opacity="0.421053" d="M19.6932 189.928C18.1198 207.662 27.5925 248.239 78.0705 268.669C141.168 294.205 200.782 264.976 264.593 279.444C311.69 290.122 419.53 339.596 441.752 412.232" stroke="#A9CAB9" stroke-width="1.45842"/>
<path opacity="0.473684" d="M26.7956 162.929C23.3771 180.402 28.5564 221.747 76.6224 247.341C136.705 279.333 199.048 256.496 260.996 277.554C306.719 293.097 408.797 353.572 423.305 428.133" stroke="#A9CAB9" stroke-width="1.45842"/>
<path opacity="0.526316" d="M36.0863 137.358C30.86 154.378 31.6893 196.038 76.8167 226.516C133.226 264.613 197.614 248.418 257.023 275.836C300.87 296.073 396.068 366.887 402.703 442.556" stroke="#A9CAB9" stroke-width="1.45842"/>
<path opacity="0.578947" d="M47.4031 113.435C40.4263 129.815 36.8964 171.334 78.5908 206.362C130.709 250.147 196.437 240.77 252.654 274.248C294.146 298.957 381.42 379.334 380.109 455.283" stroke="#A9CAB9" stroke-width="1.45842"/>
<path opacity="0.631579" d="M60.5598 91.3629C51.9091 106.925 44.0587 147.846 81.8632 187.041C129.119 236.034 195.468 233.579 247.877 272.75C286.559 301.661 364.953 390.72 355.711 466.115" stroke="#A9CAB9" stroke-width="1.45842"/>
<path opacity="0.684211" d="M75.3578 71.3241C65.1278 85.8962 53.0429 125.773 86.5435 168.705C128.419 222.369 194.661 226.863 242.689 271.297C278.137 304.093 346.792 400.859 329.719 474.875" stroke="#A9CAB9" stroke-width="1.45842"/>
<path opacity="0.736842" d="M91.5693 53.4782C79.8721 66.9012 63.6851 105.297 92.5146 151.494C128.551 209.242 193.961 220.635 237.081 269.847C268.906 306.169 327.071 409.581 302.355 481.407" stroke="#A9CAB9" stroke-width="1.45842"/>
<path opacity="0.789474" d="M108.964 37.9628C95.9277 50.0895 75.816 86.5826 99.6586 135.541C129.462 196.739 193.322 214.907 231.062 268.356C258.916 307.806 305.953 416.731 273.864 485.58" stroke="#A9CAB9" stroke-width="1.45842"/>
<path opacity="0.842105" d="M127.29 24.8868C113.057 35.5845 89.241 69.7755 107.835 120.958C131.078 184.936 192.689 209.68 224.636 266.781C248.214 308.926 283.607 422.171 244.498 487.289" stroke="#A9CAB9" stroke-width="1.45842"/>
<path opacity="0.894737" d="M146.283 14.3352C131.011 23.4866 103.751 55.0007 116.893 107.846C133.322 173.903 192.009 204.952 217.811 265.079C236.855 309.458 260.217 425.783 214.515 486.456" stroke="#A9CAB9" stroke-width="1.45842"/>
<path opacity="0.947368" d="M165.68 6.36349C149.534 13.8683 119.13 42.3605 126.677 96.2903C136.11 163.703 191.23 200.715 210.606 263.211C224.907 309.337 235.981 427.466 184.188 483.03" stroke="#A9CAB9" stroke-width="1.45842"/>
</g>
</svg>
