<svg width="193" height="378" viewBox="0 0 193 378" fill="none" xmlns="http://www.w3.org/2000/svg">
<g opacity="0.15">
<path opacity="0.0526316" d="M30.1578 305.094C38.3479 315.99 64.5242 334.224 103.709 319.988C152.69 302.193 171.634 255.024 215.35 230.567C247.616 212.515 334.316 185.418 384.169 215.36" stroke="#A9CAB9" stroke-width="1.45842"/>
<path opacity="0.105263" d="M22.0799 282.251C29.0861 293.944 53.2131 314.813 93.6713 304.751C144.244 292.174 168.014 247.244 214.048 227.49C248.024 212.91 337.081 195.024 383.532 230.013" stroke="#A9CAB9" stroke-width="1.45842"/>
<path opacity="0.157895" d="M15.9765 259.1C21.7221 271.461 43.5355 294.739 84.8238 288.961C136.434 281.739 164.771 239.539 212.617 224.705C247.931 213.757 338.37 205.278 380.909 244.931" stroke="#A9CAB9" stroke-width="1.45842"/>
<path opacity="0.210526" d="M11.8704 235.849C16.2925 248.743 35.5532 274.173 77.2192 272.743C129.302 270.955 161.894 231.949 211.029 222.197C247.294 215 338.123 216.021 376.284 259.903" stroke="#A9CAB9" stroke-width="1.45842"/>
<path opacity="0.263158" d="M9.76042 212.708C12.8105 225.993 29.3076 253.297 70.8949 256.23C122.879 259.896 159.37 224.51 209.255 219.948C246.073 216.581 336.299 227.091 369.664 274.721" stroke="#A9CAB9" stroke-width="1.45842"/>
<path opacity="0.315789" d="M9.62481 189.883C11.2695 203.415 24.8221 232.294 65.875 239.557C117.191 248.637 157.181 217.26 207.27 217.937C244.238 218.437 332.871 238.32 361.074 289.178" stroke="#A9CAB9" stroke-width="1.45842"/>
<path opacity="0.368421" d="M11.4186 167.581C11.6399 181.21 22.0996 211.347 62.1683 222.862C112.254 237.257 155.305 210.231 205.048 216.14C241.762 220.501 327.831 249.541 350.564 303.068" stroke="#A9CAB9" stroke-width="1.45842"/>
<path opacity="0.421053" d="M15.0775 145.999C13.8729 159.577 21.1252 190.642 59.7707 206.283C108.078 225.834 153.718 203.456 202.571 214.532C238.628 222.707 321.189 260.584 338.203 316.194" stroke="#A9CAB9" stroke-width="1.45842"/>
<path opacity="0.473684" d="M20.5159 125.329C17.8987 138.707 21.864 170.36 58.6629 189.955C104.662 214.448 152.391 196.963 199.818 213.086C234.823 224.985 312.973 271.284 324.081 328.368" stroke="#A9CAB9" stroke-width="1.45842"/>
<path opacity="0.526316" d="M27.6278 105.753C23.6266 118.783 24.2615 150.678 58.8107 174.011C101.997 203.178 151.292 190.779 196.775 211.77C230.344 227.263 303.227 281.478 308.306 339.41" stroke="#A9CAB9" stroke-width="1.45842"/>
<path opacity="0.578947" d="M36.2914 87.437C30.9501 99.9779 28.2476 131.764 60.1685 158.581C100.07 192.103 150.391 184.924 193.43 210.554C225.196 229.472 292.012 291.008 291.009 349.153" stroke="#A9CAB9" stroke-width="1.45842"/>
<path opacity="0.631579" d="M46.3649 70.5389C39.7419 82.4527 33.7317 113.782 62.6746 143.789C98.8532 181.298 149.649 179.418 189.773 209.407C219.388 231.541 279.406 299.724 272.33 357.446" stroke="#A9CAB9" stroke-width="1.45842"/>
<path opacity="0.684211" d="M57.693 55.1974C49.861 66.3537 40.6089 96.8833 66.2566 129.751C98.3163 170.836 149.031 174.277 185.8 208.295C212.939 233.404 265.501 307.487 252.43 364.153" stroke="#A9CAB9" stroke-width="1.45842"/>
<path opacity="0.736842" d="M70.1058 41.5349C61.1505 51.8115 48.7578 81.2067 70.8295 116.575C98.419 160.786 148.496 169.509 181.508 207.185C205.874 234.993 250.404 314.164 231.481 369.154" stroke="#A9CAB9" stroke-width="1.45842"/>
<path opacity="0.789474" d="M83.4225 29.6562C73.4421 38.9403 58.0447 66.8792 76.2984 104.361C99.1155 151.214 148.006 165.123 176.899 206.044C198.225 236.246 234.236 319.638 209.669 372.349" stroke="#A9CAB9" stroke-width="1.45842"/>
<path opacity="0.842105" d="M97.4516 19.6452C86.5554 27.8353 68.3219 54.0116 82.5577 93.1964C100.352 142.177 147.521 161.121 171.979 204.837C190.031 237.103 217.127 323.803 187.185 373.657" stroke="#A9CAB9" stroke-width="1.45842"/>
<path opacity="0.894737" d="M111.993 11.5669C100.3 18.5731 79.4308 42.7001 89.4926 83.1583C102.07 133.731 147 157.501 166.754 203.535C181.334 237.511 199.22 326.568 164.231 373.019" stroke="#A9CAB9" stroke-width="1.45842"/>
<path opacity="0.947368" d="M126.843 5.46407C114.482 11.2097 91.2049 33.0231 96.9826 74.3114C104.205 125.922 146.404 154.258 161.238 202.104C172.187 237.418 180.665 327.857 141.013 370.396" stroke="#A9CAB9" stroke-width="1.45842"/>
<path d="M141.793 1.35779C128.899 5.77989 103.469 25.0406 104.9 66.7066C106.687 118.789 145.694 151.382 155.445 200.516C162.643 236.781 161.621 327.611 117.739 365.772" stroke="#A9CAB9" stroke-width="1.45842"/>
</g>
</svg>
