<svg width="273" height="493" viewBox="0 0 273 493" fill="none" xmlns="http://www.w3.org/2000/svg">
<g opacity="0.1">
<path opacity="0.0526316" d="M-194.608 397.734C-183.91 411.966 -149.719 435.783 -98.5367 417.188C-34.5587 393.945 -9.81487 332.334 47.2864 300.388C89.4313 276.809 202.677 241.416 267.794 280.526" stroke="#A9CAB9" stroke-width="1.45842"/>
<path opacity="0.105263" d="M-205.16 367.897C-196.008 383.169 -164.494 410.429 -111.649 397.286C-45.5917 380.858 -14.5433 322.171 45.5844 296.369C89.9631 277.325 206.288 253.963 266.961 299.665" stroke="#A9CAB9" stroke-width="1.45842"/>
<path opacity="0.157895" d="M-213.131 337.658C-205.626 353.803 -177.134 384.208 -123.204 376.661C-55.7918 367.228 -18.779 312.107 43.7164 292.731C89.8426 278.43 207.972 267.356 263.535 319.15" stroke="#A9CAB9" stroke-width="1.45842"/>
<path opacity="0.210526" d="M-218.495 307.288C-212.719 324.129 -187.561 357.345 -133.137 355.477C-65.1083 353.142 -22.5366 302.193 41.6418 289.455C89.0102 280.054 207.65 281.388 257.495 338.706" stroke="#A9CAB9" stroke-width="1.45842"/>
<path opacity="0.263158" d="M-221.251 277.061C-217.267 294.414 -195.719 330.077 -141.398 333.908C-73.4978 338.697 -25.8337 292.477 39.3245 286.518C87.4162 282.119 205.266 295.847 248.847 358.062" stroke="#A9CAB9" stroke-width="1.45842"/>
<path opacity="0.315789" d="M-221.428 247.248C-219.279 264.922 -201.577 302.643 -147.955 312.131C-80.9267 323.991 -28.6924 283.006 36.7318 283.891C85.0197 284.544 200.789 310.515 237.628 376.944" stroke="#A9CAB9" stroke-width="1.45842"/>
<path opacity="0.368421" d="M-219.085 218.117C-218.796 235.919 -205.134 275.284 -152.797 290.325C-87.3759 309.126 -31.1437 273.826 33.8296 281.544C81.7848 287.241 194.206 325.171 223.899 395.087" stroke="#A9CAB9" stroke-width="1.45842"/>
<path opacity="0.421053" d="M-214.307 189.928C-215.88 207.662 -206.407 248.239 -155.93 268.669C-92.832 294.205 -33.218 264.976 30.5926 279.444C77.6896 290.122 185.53 339.596 207.752 412.232" stroke="#A9CAB9" stroke-width="1.45842"/>
<path opacity="0.473684" d="M-207.204 162.929C-210.623 180.402 -205.444 221.747 -157.378 247.341C-97.295 279.333 -34.9523 256.496 26.9965 277.554C72.7193 293.097 174.797 353.572 189.305 428.133" stroke="#A9CAB9" stroke-width="1.45842"/>
<path opacity="0.526316" d="M-197.914 137.358C-203.14 154.378 -202.311 196.038 -157.183 226.516C-100.774 264.613 -36.3856 248.418 23.0226 275.836C66.8703 296.073 162.068 366.887 168.703 442.556" stroke="#A9CAB9" stroke-width="1.45842"/>
<path opacity="0.578947" d="M-186.597 113.435C-193.574 129.815 -197.104 171.334 -155.409 206.362C-103.291 250.147 -37.5626 240.77 18.6542 274.248C60.1464 298.957 147.42 379.334 146.109 455.283" stroke="#A9CAB9" stroke-width="1.45842"/>
<path opacity="0.631579" d="M-173.44 91.3629C-182.091 106.925 -189.941 147.846 -152.137 187.041C-104.881 236.034 -38.5324 233.579 13.877 272.75C52.5591 301.661 130.953 390.72 121.711 466.115" stroke="#A9CAB9" stroke-width="1.45842"/>
<path opacity="0.684211" d="M-158.642 71.3241C-168.872 85.8962 -180.957 125.773 -147.457 168.705C-105.581 222.369 -39.3391 226.863 8.68876 271.297C44.1369 304.093 112.792 400.859 95.7193 474.875" stroke="#A9CAB9" stroke-width="1.45842"/>
<path opacity="0.736842" d="M-142.431 53.4782C-154.128 66.9012 -170.315 105.297 -141.485 151.494C-105.449 209.242 -40.0393 220.635 3.08068 269.847C34.9065 306.169 93.0709 409.581 68.3548 481.407" stroke="#A9CAB9" stroke-width="1.45842"/>
<path opacity="0.789474" d="M-125.036 37.9628C-138.072 50.0895 -158.184 86.5826 -134.341 135.541C-104.538 196.739 -40.6783 214.907 -2.93849 268.356C24.9163 307.806 71.9526 416.731 39.864 485.58" stroke="#A9CAB9" stroke-width="1.45842"/>
<path opacity="0.842105" d="M-106.71 24.8868C-120.943 35.5845 -144.759 69.7755 -126.165 120.958C-102.922 184.936 -41.3105 209.68 -9.3644 266.781C14.2142 308.926 49.6071 422.171 10.4975 487.289" stroke="#A9CAB9" stroke-width="1.45842"/>
<path opacity="0.894737" d="M-87.7169 14.3352C-102.989 23.4866 -130.249 55.0007 -117.107 107.846C-100.678 173.903 -41.9913 204.952 -16.1889 265.079C2.85521 309.458 26.2168 425.783 -19.4851 486.456" stroke="#A9CAB9" stroke-width="1.45842"/>
<path opacity="0.947368" d="M-68.3201 6.36349C-84.4656 13.8683 -114.87 42.3605 -107.323 96.2903C-97.89 163.703 -42.7699 200.715 -23.3939 263.211C-9.09296 309.337 1.98145 427.466 -49.8122 483.03" stroke="#A9CAB9" stroke-width="1.45842"/>
</g>
</svg>
