<svg width="18" height="19" viewBox="0 0 18 19" fill="none" xmlns="http://www.w3.org/2000/svg">
<path fill-rule="evenodd" clip-rule="evenodd" d="M12.7047 2.75C13.7105 2.75 14.678 3.1475 15.3897 3.86075C16.1022 4.5725 16.5005 5.5325 16.5005 6.5375V12.4625C16.5005 14.555 14.798 16.25 12.7047 16.25H5.29549C3.20224 16.25 1.50049 14.555 1.50049 12.4625V6.5375C1.50049 4.445 3.19474 2.75 5.29549 2.75H12.7047ZM13.898 7.65504L13.958 7.59504C14.1373 7.37754 14.1373 7.06254 13.9498 6.84504C13.8455 6.73329 13.7023 6.66504 13.553 6.65004C13.3955 6.64179 13.2455 6.69504 13.1323 6.80004L9.75051 9.50004C9.31551 9.86079 8.69226 9.86079 8.25051 9.50004L4.87551 6.80004C4.64226 6.62754 4.31976 6.65004 4.12551 6.85254C3.92301 7.05504 3.90051 7.37754 4.07226 7.60254L4.17051 7.70004L7.58301 10.3625C8.00301 10.6925 8.51226 10.8725 9.04551 10.8725C9.57726 10.8725 10.0955 10.6925 10.5148 10.3625L13.898 7.65504Z" fill="#C85A16"/>
</svg>
