<svg width="233" height="235" viewBox="0 0 233 235" fill="none" xmlns="http://www.w3.org/2000/svg">
<path d="M230.947 164.662L100.388 37.521L55.5625 214.163L230.947 164.662ZM100.089 36.4639L232.014 164.931L231.553 165.06L54.7959 214.949L54.9129 214.488L100.089 36.4639" fill="url(#paint0_linear_143:1236)"/>
<path d="M107.065 35.9468L47.0154 208.009L226.051 173.983L107.065 35.9468ZM46.1831 208.727L106.86 34.8692L227.088 174.345L46.1831 208.727" fill="url(#paint1_linear_143:1236)"/>
<path d="M113.854 34.9613L39.0369 201.135L220.355 182.843L113.854 34.9613ZM38.145 201.777L38.3411 201.343L113.743 33.8693L221.361 183.293L38.145 201.777" fill="url(#paint2_linear_143:1236)"/>
<path d="M120.704 34.5715L31.6874 193.592L213.91 191.171L120.704 34.5715ZM30.7441 194.154L120.688 33.4733L120.931 33.8818L214.865 191.708L214.393 191.714L30.7441 194.154Z" fill="url(#paint3_linear_143:1236)"/>
<path d="M127.56 34.7797L25.0235 185.436L206.767 198.908L127.56 34.7797ZM24.0352 185.913L127.641 33.6846L207.67 199.524L24.0352 185.913Z" fill="url(#paint4_linear_143:1236)"/>
<path d="M134.373 35.5845L19.0956 176.732L198.967 205.991L134.373 35.5845ZM18.0693 177.121L18.3701 176.753L134.55 34.5007L199.819 206.686L18.0693 177.121Z" fill="url(#paint5_linear_143:1236)"/>
<path d="M141.089 36.9804L13.9497 167.544L190.592 212.369L141.089 36.9804ZM12.8926 167.841L141.359 35.9161L191.372 213.135L190.921 213.018L12.8926 167.841" fill="url(#paint6_linear_143:1236)"/>
<path d="M147.66 38.9571L9.6238 157.942L181.684 217.991L147.66 38.9571ZM8.54517 158.147L148.021 37.9195L182.403 218.823L8.54517 158.147Z" fill="url(#paint7_linear_143:1236)"/>
<path d="M154.035 41.497L6.1508 147.999L172.324 222.817L154.035 41.497ZM5.05884 148.109L154.487 40.4964L172.971 223.708L172.529 223.513L5.05884 148.109Z" fill="url(#paint8_linear_143:1236)"/>
<path d="M160.162 44.5832L3.55738 137.792L162.574 226.807L160.162 44.5832ZM2.46021 137.806L2.86973 137.563L160.696 43.6257L163.139 227.751L2.46021 137.806" fill="url(#paint9_linear_143:1236)"/>
<path d="M165.992 48.1925L1.86484 127.397L152.527 229.934L165.992 48.1925ZM0.769775 127.316L166.608 47.2843L152.999 230.922L0.769775 127.316Z" fill="url(#paint10_linear_143:1236)"/>
<path d="M171.493 52.2958L1.08374 116.895L142.23 232.172L171.493 52.2958ZM0 116.718L172.18 51.446L142.619 233.199L0 116.718Z" fill="url(#paint11_linear_143:1236)"/>
<path d="M176.614 56.8641L1.22152 106.364L131.784 233.505L176.614 56.8641ZM0.157227 106.094L0.614958 105.965L177.374 56.0769L132.082 234.561L131.742 234.229L0.157227 106.094" fill="url(#paint12_linear_143:1236)"/>
<path d="M181.315 61.859L2.27531 95.8854L121.261 233.921L181.315 61.859ZM1.23877 95.5241L182.146 61.1427L121.466 235L1.23877 95.5241Z" fill="url(#paint13_linear_143:1236)"/>
<path d="M185.563 67.2463L4.23969 85.5393L110.741 233.42L185.563 67.2463ZM3.23804 85.0887L186.446 66.6049L110.851 234.512L3.23804 85.0887Z" fill="url(#paint14_linear_143:1236)"/>
<path d="M189.32 72.9821L7.09796 75.4032L100.306 232.003L189.32 72.9821ZM6.1394 74.8665L6.61457 74.8603L190.264 72.4207L100.32 233.1L6.1394 74.8665" fill="url(#paint15_linear_143:1236)"/>
<path d="M192.573 79.0252L10.8286 65.5538L90.0333 229.682L192.573 79.0252ZM9.92139 64.937L193.558 78.5479L89.9522 230.777L9.92139 64.937Z" fill="url(#paint16_linear_143:1236)"/>
<path d="M195.283 85.3277L15.403 56.0686L80.0022 226.474L195.283 85.3277ZM14.5532 55.3738L196.309 84.9388L79.8257 227.558L14.5532 55.3738Z" fill="url(#paint17_linear_143:1236)"/>
<path d="M197.428 91.8427L20.7871 47.0175L70.2883 222.405L197.428 91.8427ZM20.001 46.2508L20.4618 46.3678L198.485 91.5441L70.0183 223.469L20.001 46.2508Z" fill="url(#paint18_linear_143:1236)"/>
<path d="M198.998 98.52L26.9398 38.4694L60.9662 217.506L198.998 98.52ZM26.2234 37.6381L200.076 98.3147L60.6049 218.541L26.2234 37.6381Z" fill="url(#paint19_linear_143:1236)"/>
<path d="M199.983 105.309L33.8138 30.4908L52.1068 211.811L199.983 105.309ZM33.1724 29.6L33.6055 29.795L201.081 105.198L51.6563 212.811L33.1724 29.6" fill="url(#paint20_linear_143:1236)"/>
<path d="M200.373 112.158L41.3573 23.1414L43.7773 205.365L200.373 112.158ZM40.7959 22.1982L201.471 112.143L201.071 112.386L43.2406 206.324L43.2354 205.849L40.7959 22.1982" fill="url(#paint21_linear_143:1236)"/>
<path d="M200.168 119.015L49.5125 16.4776L36.0421 198.22L200.168 119.015ZM49.0353 15.4893L201.266 119.097L35.4243 199.127L49.0353 15.4893" fill="url(#paint22_linear_143:1236)"/>
<path d="M197.972 132.544L67.4061 5.40472L22.5808 182.045L197.972 132.544ZM67.1075 4.34758L199.029 132.814L198.577 132.944L21.8142 182.832L21.9323 182.372L67.1075 4.34758Z" fill="url(#paint23_linear_143:1236)"/>
<path d="M77.0073 1.0777L16.9588 173.14L195.991 139.114L77.0073 1.0777ZM16.1265 173.857L76.8031 7.42376e-05L197.027 139.476L16.1265 173.857Z" fill="url(#paint24_linear_143:1236)"/>
<defs>
<linearGradient id="paint0_linear_143:1236" x1="54.7959" y1="125.706" x2="232.014" y2="125.706" gradientUnits="userSpaceOnUse">
<stop stop-color="#A9CAB9"/>
<stop offset="0.95426" stop-color="#B4F7FD"/>
<stop offset="0.999362" stop-color="#B6FBFF"/>
<stop offset="1" stop-color="#B6FBFF"/>
</linearGradient>
<linearGradient id="paint1_linear_143:1236" x1="46.1831" y1="121.798" x2="227.086" y2="121.798" gradientUnits="userSpaceOnUse">
<stop stop-color="#A9CAB9"/>
<stop offset="0.95426" stop-color="#B4F7FD"/>
<stop offset="0.999362" stop-color="#B6FBFF"/>
<stop offset="1" stop-color="#B6FBFF"/>
</linearGradient>
<linearGradient id="paint2_linear_143:1236" x1="38.145" y1="117.823" x2="221.356" y2="117.823" gradientUnits="userSpaceOnUse">
<stop stop-color="#111110"/>
<stop offset="0.95426" stop-color="#B4F7FD"/>
<stop offset="0.999362" stop-color="#B6FBFF"/>
<stop offset="1" stop-color="#B6FBFF"/>
</linearGradient>
<linearGradient id="paint3_linear_143:1236" x1="30.7431" y1="113.813" x2="214.869" y2="113.813" gradientUnits="userSpaceOnUse">
<stop stop-color="#A9CAB9"/>
<stop offset="0.95426" stop-color="#B4F7FD"/>
<stop offset="0.999362" stop-color="#B6FBFF"/>
<stop offset="1" stop-color="#B6FBFF"/>
</linearGradient>
<linearGradient id="paint4_linear_143:1236" x1="24.0341" y1="116.605" x2="207.671" y2="116.605" gradientUnits="userSpaceOnUse">
<stop stop-color="#A9CAB9"/>
<stop offset="0.95426" stop-color="#B4F7FD"/>
<stop offset="0.999362" stop-color="#B6FBFF"/>
<stop offset="1" stop-color="#B6FBFF"/>
</linearGradient>
<linearGradient id="paint5_linear_143:1236" x1="18.0693" y1="120.593" x2="199.822" y2="120.593" gradientUnits="userSpaceOnUse">
<stop stop-color="#A9CAB9"/>
<stop offset="0.95426" stop-color="#B4F7FD"/>
<stop offset="0.999362" stop-color="#B6FBFF"/>
<stop offset="1" stop-color="#B6FBFF"/>
</linearGradient>
<linearGradient id="paint6_linear_143:1236" x1="12.8926" y1="124.526" x2="191.377" y2="124.526" gradientUnits="userSpaceOnUse">
<stop stop-color="#A9CAB9"/>
<stop offset="0.95426" stop-color="#B4F7FD"/>
<stop offset="0.999362" stop-color="#B6FBFF"/>
<stop offset="1" stop-color="#B6FBFF"/>
</linearGradient>
<linearGradient id="paint7_linear_143:1236" x1="8.54517" y1="128.371" x2="182.403" y2="128.371" gradientUnits="userSpaceOnUse">
<stop stop-color="#A9CAB9"/>
<stop offset="0.95426" stop-color="#B4F7FD"/>
<stop offset="0.999362" stop-color="#B6FBFF"/>
<stop offset="1" stop-color="#B6FBFF"/>
</linearGradient>
<linearGradient id="paint8_linear_143:1236" x1="5.05884" y1="132.102" x2="172.967" y2="132.102" gradientUnits="userSpaceOnUse">
<stop stop-color="#A9CAB9"/>
<stop offset="0.95426" stop-color="#B4F7FD"/>
<stop offset="0.999362" stop-color="#B6FBFF"/>
<stop offset="1" stop-color="#B6FBFF"/>
</linearGradient>
<linearGradient id="paint9_linear_143:1236" x1="2.46021" y1="135.688" x2="163.14" y2="135.688" gradientUnits="userSpaceOnUse">
<stop stop-color="#A9CAB9"/>
<stop offset="0.95426" stop-color="#B4F7FD"/>
<stop offset="0.999362" stop-color="#B6FBFF"/>
<stop offset="1" stop-color="#B6FBFF"/>
</linearGradient>
<linearGradient id="paint10_linear_143:1236" x1="0.769775" y1="139.103" x2="166.611" y2="139.103" gradientUnits="userSpaceOnUse">
<stop stop-color="#A9CAB9"/>
<stop offset="0.95426" stop-color="#B4F7FD"/>
<stop offset="0.999362" stop-color="#B6FBFF"/>
<stop offset="1" stop-color="#B6FBFF"/>
</linearGradient>
<linearGradient id="paint11_linear_143:1236" x1="0" y1="142.322" x2="172.184" y2="142.322" gradientUnits="userSpaceOnUse">
<stop stop-color="#A9CAB9"/>
<stop offset="0.95426" stop-color="#B4F7FD"/>
<stop offset="0.999362" stop-color="#B6FBFF"/>
<stop offset="1" stop-color="#B6FBFF"/>
</linearGradient>
<linearGradient id="paint12_linear_143:1236" x1="0.157227" y1="145.319" x2="177.376" y2="145.319" gradientUnits="userSpaceOnUse">
<stop stop-color="#A9CAB9"/>
<stop offset="0.95426" stop-color="#B4F7FD"/>
<stop offset="0.999362" stop-color="#B6FBFF"/>
<stop offset="1" stop-color="#B6FBFF"/>
</linearGradient>
<linearGradient id="paint13_linear_143:1236" x1="1.23877" y1="148.071" x2="182.142" y2="148.071" gradientUnits="userSpaceOnUse">
<stop stop-color="#A9CAB9"/>
<stop offset="0.95426" stop-color="#B4F7FD"/>
<stop offset="0.999362" stop-color="#B6FBFF"/>
<stop offset="1" stop-color="#B6FBFF"/>
</linearGradient>
<linearGradient id="paint14_linear_143:1236" x1="3.23804" y1="150.558" x2="186.449" y2="150.558" gradientUnits="userSpaceOnUse">
<stop stop-color="#A9CAB9"/>
<stop offset="0.95426" stop-color="#B4F7FD"/>
<stop offset="0.999362" stop-color="#B6FBFF"/>
<stop offset="1" stop-color="#B6FBFF"/>
</linearGradient>
<linearGradient id="paint15_linear_143:1236" x1="6.1394" y1="152.76" x2="190.264" y2="152.76" gradientUnits="userSpaceOnUse">
<stop stop-color="#A9CAB9"/>
<stop offset="0.95426" stop-color="#B4F7FD"/>
<stop offset="0.999362" stop-color="#B6FBFF"/>
<stop offset="1" stop-color="#B6FBFF"/>
</linearGradient>
<linearGradient id="paint16_linear_143:1236" x1="9.92036" y1="147.857" x2="193.557" y2="147.857" gradientUnits="userSpaceOnUse">
<stop stop-color="#A9CAB9"/>
<stop offset="0.95426" stop-color="#B4F7FD"/>
<stop offset="0.999362" stop-color="#B6FBFF"/>
<stop offset="1" stop-color="#B6FBFF"/>
</linearGradient>
<linearGradient id="paint17_linear_143:1236" x1="14.5532" y1="141.466" x2="196.305" y2="141.466" gradientUnits="userSpaceOnUse">
<stop stop-color="#A9CAB9"/>
<stop offset="0.95426" stop-color="#B4F7FD"/>
<stop offset="0.999362" stop-color="#B6FBFF"/>
<stop offset="1" stop-color="#B6FBFF"/>
</linearGradient>
<linearGradient id="paint18_linear_143:1236" x1="20.001" y1="134.861" x2="198.485" y2="134.861" gradientUnits="userSpaceOnUse">
<stop stop-color="#A9CAB9"/>
<stop offset="0.95426" stop-color="#B4F7FD"/>
<stop offset="0.999362" stop-color="#B6FBFF"/>
<stop offset="1" stop-color="#B6FBFF"/>
</linearGradient>
<linearGradient id="paint19_linear_143:1236" x1="26.2234" y1="128.089" x2="200.081" y2="128.089" gradientUnits="userSpaceOnUse">
<stop stop-color="#A9CAB9"/>
<stop offset="0.95426" stop-color="#B4F7FD"/>
<stop offset="0.999362" stop-color="#B6FBFF"/>
<stop offset="1" stop-color="#B6FBFF"/>
</linearGradient>
<linearGradient id="paint20_linear_143:1236" x1="33.1724" y1="121.206" x2="201.08" y2="121.206" gradientUnits="userSpaceOnUse">
<stop stop-color="#A9CAB9"/>
<stop offset="0.95426" stop-color="#B4F7FD"/>
<stop offset="0.999362" stop-color="#B6FBFF"/>
<stop offset="1" stop-color="#B6FBFF"/>
</linearGradient>
<linearGradient id="paint21_linear_143:1236" x1="40.7959" y1="114.26" x2="201.475" y2="114.26" gradientUnits="userSpaceOnUse">
<stop stop-color="#A9CAB9"/>
<stop offset="0.95426" stop-color="#B4F7FD"/>
<stop offset="0.999362" stop-color="#B6FBFF"/>
<stop offset="1" stop-color="#B6FBFF"/>
</linearGradient>
<linearGradient id="paint22_linear_143:1236" x1="35.4243" y1="107.308" x2="201.265" y2="107.308" gradientUnits="userSpaceOnUse">
<stop stop-color="#A9CAB9"/>
<stop offset="0.95426" stop-color="#B4F7FD"/>
<stop offset="0.999362" stop-color="#B6FBFF"/>
<stop offset="1" stop-color="#B6FBFF"/>
</linearGradient>
<linearGradient id="paint23_linear_143:1236" x1="21.8142" y1="93.5896" x2="199.033" y2="93.5896" gradientUnits="userSpaceOnUse">
<stop stop-color="#A9CAB9"/>
<stop offset="0.95426" stop-color="#B4F7FD"/>
<stop offset="0.999362" stop-color="#B6FBFF"/>
<stop offset="1" stop-color="#B6FBFF"/>
</linearGradient>
<linearGradient id="paint24_linear_143:1236" x1="16.1265" y1="86.9287" x2="197.029" y2="86.9287" gradientUnits="userSpaceOnUse">
<stop stop-color="#A9CAB9"/>
<stop offset="0.95426" stop-color="#B4F7FD"/>
<stop offset="0.999362" stop-color="#B6FBFF"/>
<stop offset="1" stop-color="#B6FBFF"/>
</linearGradient>
</defs>
</svg>
