<svg width="252" height="231" viewBox="0 0 252 231" fill="none" xmlns="http://www.w3.org/2000/svg">
<path d="M123.574 92.131C122.211 92.131 120.637 92.4847 118.956 93.181C113.96 95.2557 109.221 99.7942 107.43 104.218L93.7726 137.974C92.6473 140.756 92.8375 142.967 94.3087 144.201C96.4685 146.012 100.765 145.368 105.254 142.555L142.941 118.942C149.254 114.985 152.369 109.231 152.096 105.825C151.976 104.313 151.233 103.258 149.89 102.691L125.86 92.5488C125.198 92.2691 124.428 92.131 123.574 92.131V92.131ZM97.5495 146.074C96.0219 146.074 94.7121 145.678 93.7471 144.869C91.9897 143.395 91.7034 140.763 92.9635 137.647L106.622 103.891C108.492 99.2669 113.427 94.5328 118.622 92.3752C121.572 91.1516 124.262 90.9273 126.199 91.7452L150.228 101.888C151.872 102.581 152.818 103.918 152.966 105.755C153.312 110.062 149.201 116.048 143.404 119.681L105.717 143.294C102.792 145.127 99.9115 146.074 97.5495 146.074Z" fill="url(#paint0_linear_143:1234)"/>
<path d="M121.773 91.1715C115.67 91.1715 106.637 98.2279 104.324 105.383L92.4752 142.034C91.529 144.963 91.9059 147.232 93.5385 148.426C96.0542 150.264 100.946 149.208 105.714 145.796L145.142 117.576C151.692 112.888 154.61 106.59 154.03 103.044C153.763 101.419 152.826 100.35 151.243 99.866L123.663 91.4357C123.077 91.2566 122.443 91.1715 121.773 91.1715V91.1715ZM96.7053 150.2C95.2672 150.2 94.0093 149.85 93.0245 149.13C91.0625 147.697 90.5729 145.082 91.645 141.766L103.494 105.113C106.233 96.6396 117.496 88.637 123.918 90.6012L151.498 99.0326C153.398 99.6129 154.571 100.951 154.889 102.902C155.622 107.378 151.651 113.991 145.65 118.285L106.221 146.505C102.841 148.925 99.4476 150.2 96.7053 150.2" fill="url(#paint1_linear_143:1234)"/>
<path d="M119.706 90.3326C112.89 90.3326 102.935 98.8867 100.998 106.888L91.4326 146.409C90.6899 149.475 91.2779 151.793 93.0873 152.936C95.5478 154.489 100.661 153.921 106.539 149.149L147.449 115.941C154.159 110.494 156.818 103.655 155.915 99.9854C155.488 98.2567 154.295 97.1481 152.461 96.7789L121.117 90.4675C120.665 90.3768 120.193 90.3326 119.706 90.3326ZM96.1137 154.58C94.7785 154.58 93.5891 154.284 92.6219 153.673C90.471 152.315 89.747 149.663 90.5849 146.203L100.15 106.683C102.359 97.5604 114.013 88.1496 121.289 89.612L152.633 95.9234C154.822 96.3644 156.249 97.6963 156.762 99.7765C157.919 104.474 154.234 111.556 147.999 116.618L107.088 149.827C103.299 152.903 99.2937 154.58 96.1137 154.58" fill="url(#paint2_linear_143:1234)"/>
<path d="M117.361 89.6419C109.738 89.6419 98.879 99.9092 97.4631 108.773L90.7018 151.092C90.1923 154.287 91.0146 156.639 93.0174 157.717C95.8946 159.264 101.575 158.279 107.779 152.589L149.845 114.012C156.632 107.789 158.971 100.418 157.728 96.6419C157.11 94.7661 155.648 93.6553 153.503 93.4287L118.198 89.6861C117.924 89.6562 117.644 89.6419 117.361 89.6419ZM95.9267 159.251C94.6898 159.251 93.5646 159.002 92.6041 158.485C90.2486 157.217 89.2671 154.544 89.8408 150.955L96.6009 108.635C98.1605 98.8791 110.118 87.9507 118.29 88.8184L153.596 92.5599C156.107 92.8263 157.823 94.1438 158.555 96.3689C160.145 101.191 156.729 108.882 150.435 114.655L108.368 153.232C104.157 157.095 99.5599 159.251 95.9267 159.251" fill="url(#paint3_linear_143:1234)"/>
<path d="M114.731 89.1312C106.189 89.1312 94.4645 101.346 93.7328 111.074L90.3472 156.072C90.0985 159.382 91.1839 161.754 93.4034 162.749C97.3615 164.525 103.975 161.783 109.487 156.082L152.314 111.768C159.159 104.685 161.079 96.9668 159.438 93.002C158.593 90.9627 156.826 89.8618 154.327 89.8176L114.885 89.1334C114.833 89.1323 114.783 89.1312 114.731 89.1312ZM96.1567 164.167C95.0271 164.167 93.9792 163.965 93.0464 163.546C90.4665 162.388 89.1987 159.711 89.4773 156.007L92.8629 111.008C93.6421 100.645 105.767 88.0678 114.901 88.2602L154.342 88.9455C157.215 88.9952 159.256 90.2829 160.243 92.6693C162.284 97.5979 159.213 105.886 152.941 112.375L110.114 156.687C105.515 161.446 100.295 164.167 96.1567 164.167Z" fill="url(#paint4_linear_143:1234)"/>
<path d="M155.529 85.9357C155.318 85.9357 155.103 85.9435 154.881 85.9578L111.158 88.8571C101.656 89.4882 89.6928 103.49 89.8255 113.829L90.4356 161.325C90.4809 164.794 91.825 167.104 94.323 168.009C98.9035 169.667 106.054 166.203 111.715 159.585L154.83 109.188C161.564 101.314 163.038 93.1037 161.012 89.0616C159.983 87.0079 158.095 85.9357 155.529 85.9357V85.9357ZM96.8608 169.301C95.855 169.301 94.9044 169.146 94.0257 168.83C91.1972 167.805 89.6132 165.144 89.5635 161.336L88.9533 113.84C88.813 102.91 101.025 88.6548 111.101 87.9872L154.824 85.0868L154.853 85.5223L154.824 85.0868C158.048 84.8735 160.525 86.1457 161.792 88.6703C164.345 93.7647 161.754 102.435 155.492 109.755L112.378 160.152C107.445 165.919 101.568 169.301 96.8608 169.301" fill="url(#paint5_linear_143:1234)"/>
<path d="M155.053 81.427L155.116 81.8581L107 88.9112C96.5258 90.4465 84.6193 106.239 85.7688 117.076L91.0434 166.825C91.4215 170.395 93.0905 172.688 95.8671 173.457C101.131 174.917 108.803 170.638 114.524 163.053L157.365 106.25C163.218 98.4899 165.292 89.6761 162.411 84.8149C160.975 82.392 158.451 81.3696 155.116 81.8581L155.053 81.427ZM98.0059 174.607C97.1791 174.607 96.3843 174.506 95.6338 174.299C92.5279 173.437 90.5891 170.817 90.1758 166.917L84.9012 117.168C83.6875 105.728 95.8041 89.6705 106.874 88.0479L154.99 80.996C158.651 80.4588 161.554 81.6569 163.161 84.3694C166.219 89.5268 164.121 98.7408 158.06 106.775L115.22 163.578C110.084 170.389 103.356 174.607 98.0059 174.607Z" fill="url(#paint6_linear_143:1234)"/>
<path d="M154.878 77.114L154.973 77.5407L102.398 89.35C90.9363 91.9243 79.2696 109.59 81.5919 120.853L92.2483 172.537C93.0032 176.201 95.0393 178.451 98.1353 179.047C104.144 180.203 112.3 175.016 117.968 166.431L159.887 102.937C165.459 94.4953 166.984 85.1708 163.595 80.2598C161.773 77.6225 158.792 76.6819 154.973 77.5407L154.878 77.114ZM99.8363 180.077C99.1974 180.077 98.5741 180.02 97.9706 179.903C94.5496 179.246 92.2151 176.693 91.3939 172.715L80.7375 121.029C78.2881 109.15 90.1261 91.2114 102.206 88.4989L154.783 76.6896C158.917 75.76 162.303 76.8521 164.313 79.7646C167.899 84.9607 166.379 94.6876 160.616 103.416L118.697 166.912C113.398 174.939 105.913 180.077 99.8363 180.077Z" fill="url(#paint7_linear_143:1234)"/>
<path d="M158.109 72.4362C156.947 72.4362 155.702 72.6308 154.393 73.0265L97.3405 90.2331C91.1397 92.1033 84.721 98.124 80.5893 105.944C76.9307 112.868 75.7149 120.065 77.3353 125.197L94.1362 178.418C95.32 182.168 97.7749 184.346 101.236 184.717C108.043 185.446 116.624 179.254 122.109 169.656L162.36 99.2282C167.556 90.1347 168.442 80.336 164.513 75.4007C162.955 73.4421 160.745 72.4362 158.109 72.4362V72.4362ZM102.322 185.647C101.924 185.647 101.531 185.627 101.143 185.585C97.366 185.18 94.5817 182.729 93.3039 178.68L76.503 125.46C74.7886 120.029 75.9967 112.768 79.8178 105.537C84.0545 97.5172 90.6721 91.3329 97.0885 89.3985L154.141 72.1909L154.267 72.6087L154.141 72.1909C158.788 70.7904 162.713 71.7366 165.196 74.8569C169.408 80.1481 168.572 90.1159 163.117 99.6604L122.867 170.089C117.523 179.439 109.243 185.646 102.322 185.647Z" fill="url(#paint8_linear_143:1234)"/>
<path d="M153.154 67.9398L153.309 68.3466L91.825 91.6247C84.8769 94.2554 78.2196 101.458 74.4493 110.422C71.3235 117.854 70.8106 125.042 73.0433 130.144L96.7945 184.411C98.4713 188.242 101.409 190.309 105.291 190.388C112.932 190.527 121.851 183.25 127.005 172.658L164.738 95.112C169.538 85.2459 169.69 75.2504 165.116 70.24C162.333 67.1904 158.139 66.5184 153.309 68.3466L153.154 67.9398ZM105.526 191.262C105.44 191.262 105.357 191.261 105.275 191.26C101.088 191.176 97.7926 188.866 95.9954 184.762L72.2442 130.493C69.9164 125.173 70.427 117.735 73.6446 110.084C77.5055 100.907 84.353 93.5214 91.5155 90.809L152.999 67.5309C158.186 65.5667 162.718 66.3194 165.76 69.6509C170.573 74.9233 170.478 85.3089 165.521 95.4933L127.789 173.04C122.547 183.813 113.427 191.262 105.526 191.262Z" fill="url(#paint9_linear_143:1234)"/>
<path d="M158.205 61.9644C156.166 61.9644 153.958 62.4872 151.651 63.5417L85.8506 93.5921C78.1819 97.0938 71.4184 105.522 68.1963 115.587C65.6928 123.407 65.9039 130.748 68.7733 135.726L100.318 190.454C102.568 194.357 106.061 196.254 110.43 195.956C118.888 195.368 128.051 186.897 132.715 175.355L166.97 90.5768C171.195 80.1238 170.539 69.758 165.341 64.7852C163.38 62.9095 160.945 61.9644 158.205 61.9644V61.9644ZM109.568 196.858C105.324 196.858 101.796 194.764 99.5621 190.889L68.0184 136.161C65.0252 130.971 64.7875 123.375 67.3651 115.322C70.659 105.03 77.6038 96.3997 85.4881 92.7985L151.288 62.7481L151.469 63.1449L151.288 62.7481C157.042 60.1196 162.247 60.6192 165.945 64.1552C171.483 69.4541 172.204 79.9536 167.779 90.904L133.523 175.682C128.74 187.521 119.268 196.216 110.49 196.826C110.18 196.848 109.871 196.858 109.568 196.858" fill="url(#paint10_linear_143:1234)"/>
<path d="M149.142 58.2716L149.348 58.6563L79.4243 96.2052C71.2184 100.612 64.33 110.515 61.8751 121.433C60.0281 129.648 61.0174 137.134 64.5887 141.973L104.805 196.468C107.728 200.43 111.873 202.098 116.79 201.297C126.037 199.788 135.292 190.068 139.296 177.66L169.004 85.6162C172.609 74.4502 171.086 64.0237 165.126 59.0531C160.953 55.5735 155.35 55.4331 149.348 58.6563L149.142 58.2716ZM114.503 202.359C110.329 202.359 106.697 200.501 104.103 196.986L63.8868 142.492C60.1652 137.448 59.1218 129.703 61.024 121.243C63.5309 110.087 70.5928 99.9578 79.011 95.4359L148.935 57.888C155.18 54.5345 161.286 54.7147 165.684 58.3832C171.919 63.5827 173.548 74.3773 169.834 85.8848L140.127 177.927C136.026 190.634 126.487 200.599 116.929 202.158C116.103 202.293 115.293 202.359 114.503 202.359" fill="url(#paint11_linear_143:1234)"/>
<path d="M146.322 53.7464L72.5613 99.5355C63.7851 104.984 57.0967 116.14 55.5194 127.958C54.3666 136.595 56.2059 144.232 60.5641 148.91L110.356 202.366C114.024 206.306 119.049 207.686 124.505 206.255C134.457 203.645 143.627 192.632 146.805 179.473L170.775 80.2277C173.591 68.5633 171.087 57.8991 164.392 53.0578C159.414 49.4566 152.828 49.7086 146.322 53.7464V53.7464ZM120.378 207.682C116.301 207.682 112.614 206.071 109.717 202.961L59.9253 149.505C55.389 144.635 53.468 136.74 54.6551 127.843C56.2644 115.776 63.113 104.375 72.1015 98.795L145.862 53.0058L146.092 53.3761L145.862 53.0058C152.683 48.7713 159.623 48.5326 164.902 52.3504C171.886 57.4006 174.523 68.4229 171.623 80.4322L147.653 179.677C144.403 193.135 134.976 204.411 124.727 207.099C123.242 207.488 121.787 207.682 120.378 207.682Z" fill="url(#paint12_linear_143:1234)"/>
<path d="M154.857 44.4882C150.848 44.4882 146.603 45.9627 142.495 48.8775L65.285 103.661C56.0533 110.211 49.7231 122.576 49.1583 135.161C48.7482 144.271 51.5292 152.071 56.7839 156.558L117.073 208.044C121.68 211.978 127.589 212.901 133.711 210.645C144.393 206.709 153.065 194.669 155.293 180.684L172.213 74.4138C174.17 62.1193 170.661 51.5468 163.054 46.8227C160.542 45.2609 157.761 44.4882 154.857 44.4882V44.4882ZM127.253 212.731C123.311 212.731 119.628 211.373 116.507 208.707L56.2169 157.221C50.7566 152.558 47.8651 144.503 48.2862 135.123C48.8621 122.279 55.3371 109.649 64.7799 102.949L141.99 48.1657L142.243 48.5216L141.99 48.1657C149.371 42.9297 157.217 42.1693 163.515 46.0821C171.425 50.9942 175.088 61.9037 173.074 74.5508L156.154 180.821C153.879 195.109 144.981 207.423 134.013 211.464C131.715 212.311 129.443 212.729 127.253 212.731Z" fill="url(#paint13_linear_143:1234)"/>
<path d="M137.512 43.7841L137.785 44.1234L57.6283 108.654C48.0761 116.343 42.2621 129.848 42.8147 143.059C43.2182 152.707 47.0559 160.678 53.3441 164.927L125.063 213.385C130.785 217.25 137.696 217.56 144.52 214.255C155.574 208.9 163.725 195.607 164.803 181.176L173.241 68.1864C174.189 55.4939 169.504 44.8397 161.016 40.3786C153.872 36.6249 145.404 37.99 137.785 44.1234L137.512 43.7841ZM135.188 217.404C131.431 217.404 127.822 216.303 124.574 214.108L52.8555 165.649C46.3352 161.245 42.3582 153.023 41.9426 143.095C41.3789 129.617 47.3211 115.832 57.08 107.975L137.239 43.4437C145.141 37.0825 153.956 35.6832 161.422 39.6071C170.223 44.2307 175.086 55.2065 174.111 68.2516L165.674 181.24C164.573 195.973 156.225 209.555 144.9 215.04C141.642 216.618 138.361 217.404 135.188 217.404Z" fill="url(#paint14_linear_143:1234)"/>
<path d="M131.817 39.2501L132.111 39.5729L49.6346 114.595C39.9188 123.434 34.768 137.987 36.5144 151.67C37.8242 161.937 42.8678 170.084 50.352 174.021L134.43 218.256C141.473 221.961 149.494 221.464 157.016 216.852C168.371 209.891 175.579 195.746 175.378 180.819L173.776 61.5611C173.601 48.5238 167.617 37.8729 158.159 33.7666C149.699 30.0936 140.205 32.2103 132.111 39.5729L131.817 39.2501ZM144.236 221.59C140.723 221.59 137.276 220.74 134.024 219.028L49.9452 174.793C42.2058 170.721 36.9952 162.333 35.6489 151.781C33.8683 137.823 39.1274 122.974 49.0466 113.95L131.524 38.9274C139.883 31.3238 149.718 29.1508 158.507 32.9664C168.283 37.2119 174.469 48.1635 174.649 61.55L176.251 180.807C176.455 196.037 169.085 210.477 157.472 217.595C153.137 220.253 148.636 221.59 144.236 221.59" fill="url(#paint15_linear_143:1234)"/>
<path d="M125.074 35.0188L125.387 35.3228L41.3602 121.56C31.4963 131.683 27.2529 146.807 30.2859 161.029C32.6248 171.998 39.0545 180.311 47.9269 183.834L145.275 222.507C153.742 225.871 163.207 224.299 171.242 218.198C182.446 209.69 188.65 194.491 187.048 179.475L173.727 54.5654C172.284 41.0273 165.039 30.7379 154.348 27.0395C144.565 23.655 133.739 26.751 125.387 35.3228L125.074 35.0188ZM154.318 225.118C151.143 225.118 147.987 224.523 144.952 223.318L47.6041 184.644C38.4576 181.011 31.8345 172.47 29.4326 161.211C26.3399 146.707 30.6706 131.28 40.7356 120.951L124.761 34.7137C133.355 25.8944 144.522 22.7154 154.633 26.2149C165.652 30.0272 173.115 40.5907 174.595 54.4725L187.916 179.382C189.55 194.695 183.212 210.204 171.771 218.892C166.356 223.004 160.304 225.118 154.318 225.118" fill="url(#paint16_linear_143:1234)"/>
<path d="M117.201 31.1999L117.531 31.4851L32.8756 129.623C23.1863 140.855 19.8505 156.777 24.169 171.176C27.6938 182.932 35.724 191.379 46.1981 194.35L157.697 225.972C167.924 228.873 178.678 225.989 187.201 218.06C198.132 207.894 202.974 192.158 199.837 176.995L172.995 47.2337C170.143 33.4382 161.33 23.3576 149.423 20.2694C138.055 17.3193 126.134 21.5117 117.531 31.4851L117.201 31.1999ZM165.58 227.949C162.869 227.949 160.147 227.574 157.458 226.811L45.9604 195.189C35.1935 192.135 26.9455 183.474 23.3333 171.427C18.9308 156.745 22.333 140.509 32.2146 129.054L116.87 30.9147C125.695 20.6849 137.947 16.3897 149.643 19.4238C161.878 22.5994 170.927 32.9286 173.85 47.0558L200.691 176.817C203.889 192.278 198.948 208.326 187.794 218.7C181.279 224.761 173.483 227.949 165.58 227.949Z" fill="url(#paint17_linear_143:1234)"/>
<path d="M137.379 13.0494C126.365 13.0494 115.86 18.4578 108.464 28.1813L24.2633 138.86C14.9244 151.135 12.6065 167.726 18.2127 182.159C23.117 194.782 32.9931 203.303 45.312 205.537L171.789 228.467C184.008 230.683 196.056 226.224 204.849 216.237C215.065 204.632 218.476 188.149 213.752 173.221L171.476 39.6115C167.041 25.5993 156.472 15.8592 143.203 13.5546C141.255 13.2163 139.309 13.0494 137.379 13.0494ZM177.94 229.897C175.853 229.897 173.746 229.708 171.634 229.326L45.1561 206.395C32.5333 204.106 22.4163 195.388 17.4003 182.476C11.6836 167.762 14.0467 150.846 23.5691 138.331L107.769 27.6529L108.116 27.9171L107.769 27.6529C116.664 15.963 129.963 10.3701 143.352 12.6946C156.949 15.0556 167.774 25.0201 172.307 39.3484L214.585 172.957C219.4 188.176 215.921 204.98 205.503 216.813C198.022 225.312 188.227 229.897 177.94 229.897Z" fill="url(#paint18_linear_143:1234)"/>
<path d="M131.952 6.87519C118.473 6.87519 106.013 13.6851 98.1054 25.5507L15.6239 149.336C6.66857 162.775 5.49581 179.485 12.4859 194.034C18.9023 207.391 31.2145 216.108 45.419 217.35L187.636 229.793C201.838 231.032 215.478 224.59 224.117 212.551C233.528 199.435 235.274 182.775 228.789 167.985L169.054 31.7583C162.833 17.5692 150.279 8.32429 135.472 7.02996C134.293 6.92606 133.118 6.87519 131.952 6.87519ZM191.106 230.816C189.929 230.816 188.747 230.765 187.559 230.661L45.3428 218.219C30.8277 216.949 18.2513 208.05 11.6989 194.412C4.57401 179.582 5.76996 162.55 14.8977 148.852L97.3792 25.0677L97.7428 25.3098L97.3792 25.0677C106.151 11.9044 120.417 4.83588 135.548 6.16005C150.677 7.48423 163.502 16.9226 169.853 31.4079L229.588 167.634C236.198 182.71 234.417 199.691 224.826 213.059C216.728 224.344 204.318 230.815 191.106 230.816Z" fill="url(#paint19_linear_143:1234)"/>
<path d="M86.0077 23.5257L86.3857 23.7434L7.0743 161.114C-1.19352 175.435 -1.19352 192.535 7.0743 206.857C15.3432 221.177 30.1524 229.728 46.6892 229.728H205.311C221.848 229.728 236.657 221.177 244.925 206.857C253.192 192.535 253.192 175.435 244.925 161.114L165.613 23.7434C157.345 9.42283 142.536 0.872052 126.001 0.872052C109.463 0.872052 94.6546 9.42283 86.3857 23.7434L86.0077 23.5257ZM205.311 230.6H46.6892C29.8374 230.6 14.7453 221.887 6.31941 207.293C-2.10647 192.699 -2.10647 175.272 6.31941 160.678L85.6308 23.3079C94.0556 8.71322 109.149 -6.39745e-05 126.001 -6.39745e-05C126.001 -6.39745e-05 125.999 -6.39745e-05 126.001 -6.39745e-05C142.852 -6.39745e-05 157.943 8.71322 166.369 23.3079L245.681 160.678C254.106 175.272 254.106 192.699 245.681 207.293C237.254 221.887 222.163 230.6 205.311 230.6Z" fill="url(#paint20_linear_143:1234)"/>
<defs>
<linearGradient id="paint0_linear_143:1234" x1="92.1875" y1="118.668" x2="152.986" y2="118.668" gradientUnits="userSpaceOnUse">
<stop stop-color="#A9CAB9"/>
<stop offset="0.95426" stop-color="#B4F7FD"/>
<stop offset="0.999362" stop-color="#B6FBFF"/>
<stop offset="1" stop-color="#B6FBFF"/>
</linearGradient>
<linearGradient id="paint1_linear_143:1234" x1="91.0902" y1="120.25" x2="154.977" y2="120.25" gradientUnits="userSpaceOnUse">
<stop stop-color="#A9CAB9"/>
<stop offset="0.95426" stop-color="#B4F7FD"/>
<stop offset="0.999362" stop-color="#B6FBFF"/>
<stop offset="1" stop-color="#B6FBFF"/>
</linearGradient>
<linearGradient id="paint2_linear_143:1234" x1="90.2455" y1="122.02" x2="156.973" y2="122.02" gradientUnits="userSpaceOnUse">
<stop stop-color="#A9CAB9"/>
<stop offset="0.95426" stop-color="#B4F7FD"/>
<stop offset="0.999362" stop-color="#B6FBFF"/>
<stop offset="1" stop-color="#B6FBFF"/>
</linearGradient>
<linearGradient id="paint3_linear_143:1234" x1="89.6805" y1="124.011" x2="158.943" y2="124.011" gradientUnits="userSpaceOnUse">
<stop stop-color="#A9CAB9"/>
<stop offset="0.95426" stop-color="#B4F7FD"/>
<stop offset="0.999362" stop-color="#B6FBFF"/>
<stop offset="1" stop-color="#B6FBFF"/>
</linearGradient>
<linearGradient id="paint4_linear_143:1234" x1="89.4397" y1="126.213" x2="160.871" y2="126.213" gradientUnits="userSpaceOnUse">
<stop stop-color="#A9CAB9"/>
<stop offset="0.95426" stop-color="#B4F7FD"/>
<stop offset="0.999362" stop-color="#B6FBFF"/>
<stop offset="1" stop-color="#B6FBFF"/>
</linearGradient>
<linearGradient id="paint5_linear_143:1234" x1="88.9522" y1="127.182" x2="162.766" y2="127.182" gradientUnits="userSpaceOnUse">
<stop stop-color="#A9CAB9"/>
<stop offset="0.95426" stop-color="#B4F7FD"/>
<stop offset="0.999362" stop-color="#B6FBFF"/>
<stop offset="1" stop-color="#B6FBFF"/>
</linearGradient>
<linearGradient id="paint6_linear_143:1234" x1="84.8172" y1="127.738" x2="164.555" y2="127.738" gradientUnits="userSpaceOnUse">
<stop stop-color="#A9CAB9"/>
<stop offset="0.95426" stop-color="#B4F7FD"/>
<stop offset="0.999362" stop-color="#B6FBFF"/>
<stop offset="1" stop-color="#B6FBFF"/>
</linearGradient>
<linearGradient id="paint7_linear_143:1234" x1="80.4136" y1="128.222" x2="166.241" y2="128.222" gradientUnits="userSpaceOnUse">
<stop stop-color="#A9CAB9"/>
<stop offset="0.95426" stop-color="#B4F7FD"/>
<stop offset="0.999362" stop-color="#B6FBFF"/>
<stop offset="1" stop-color="#B6FBFF"/>
</linearGradient>
<linearGradient id="paint8_linear_143:1234" x1="75.7414" y1="128.602" x2="167.864" y2="128.602" gradientUnits="userSpaceOnUse">
<stop stop-color="#A9CAB9"/>
<stop offset="0.95426" stop-color="#B4F7FD"/>
<stop offset="0.999362" stop-color="#B6FBFF"/>
<stop offset="1" stop-color="#B6FBFF"/>
</linearGradient>
<linearGradient id="paint9_linear_143:1234" x1="70.8028" y1="128.861" x2="169.305" y2="128.861" gradientUnits="userSpaceOnUse">
<stop stop-color="#A9CAB9"/>
<stop offset="0.95426" stop-color="#B4F7FD"/>
<stop offset="0.999362" stop-color="#B6FBFF"/>
<stop offset="1" stop-color="#B6FBFF"/>
</linearGradient>
<linearGradient id="paint10_linear_143:1234" x1="65.59" y1="128.971" x2="170.66" y2="128.971" gradientUnits="userSpaceOnUse">
<stop stop-color="#A9CAB9"/>
<stop offset="0.95426" stop-color="#B4F7FD"/>
<stop offset="0.999362" stop-color="#B6FBFF"/>
<stop offset="1" stop-color="#B6FBFF"/>
</linearGradient>
<linearGradient id="paint11_linear_143:1234" x1="60.0934" y1="128.927" x2="171.803" y2="128.927" gradientUnits="userSpaceOnUse">
<stop stop-color="#A9CAB9"/>
<stop offset="0.95426" stop-color="#B4F7FD"/>
<stop offset="0.999362" stop-color="#B6FBFF"/>
<stop offset="1" stop-color="#B6FBFF"/>
</linearGradient>
<linearGradient id="paint12_linear_143:1234" x1="54.3113" y1="128.664" x2="172.784" y2="128.664" gradientUnits="userSpaceOnUse">
<stop stop-color="#A9CAB9"/>
<stop offset="0.95426" stop-color="#B4F7FD"/>
<stop offset="0.999362" stop-color="#B6FBFF"/>
<stop offset="1" stop-color="#B6FBFF"/>
</linearGradient>
<linearGradient id="paint13_linear_143:1234" x1="48.2464" y1="128.17" x2="173.619" y2="128.17" gradientUnits="userSpaceOnUse">
<stop stop-color="#A9CAB9"/>
<stop offset="0.95426" stop-color="#B4F7FD"/>
<stop offset="0.999362" stop-color="#B6FBFF"/>
<stop offset="1" stop-color="#B6FBFF"/>
</linearGradient>
<linearGradient id="paint14_linear_143:1234" x1="41.9061" y1="127.412" x2="174.234" y2="127.412" gradientUnits="userSpaceOnUse">
<stop stop-color="#A9CAB9"/>
<stop offset="0.95426" stop-color="#B4F7FD"/>
<stop offset="0.999362" stop-color="#B6FBFF"/>
<stop offset="1" stop-color="#B6FBFF"/>
</linearGradient>
<linearGradient id="paint15_linear_143:1234" x1="35.3063" y1="126.357" x2="176.255" y2="126.357" gradientUnits="userSpaceOnUse">
<stop stop-color="#A9CAB9"/>
<stop offset="0.95426" stop-color="#B4F7FD"/>
<stop offset="0.999362" stop-color="#B6FBFF"/>
<stop offset="1" stop-color="#B6FBFF"/>
</linearGradient>
<linearGradient id="paint16_linear_143:1234" x1="28.4511" y1="124.969" x2="188.172" y2="124.969" gradientUnits="userSpaceOnUse">
<stop stop-color="#A9CAB9"/>
<stop offset="0.95426" stop-color="#B4F7FD"/>
<stop offset="0.999362" stop-color="#B6FBFF"/>
<stop offset="1" stop-color="#B6FBFF"/>
</linearGradient>
<linearGradient id="paint17_linear_143:1234" x1="21.4399" y1="123.208" x2="201.65" y2="123.208" gradientUnits="userSpaceOnUse">
<stop stop-color="#121211"/>
<stop offset="0.95426" stop-color="#B4F7FD"/>
<stop offset="0.999362" stop-color="#B6FBFF"/>
<stop offset="1" stop-color="#B6FBFF"/>
</linearGradient>
<linearGradient id="paint18_linear_143:1234" x1="14.3242" y1="121.037" x2="216.715" y2="121.037" gradientUnits="userSpaceOnUse">
<stop stop-color="#A9CAB9"/>
<stop offset="0.95426" stop-color="#B4F7FD"/>
<stop offset="0.999362" stop-color="#B6FBFF"/>
<stop offset="1" stop-color="#B6FBFF"/>
</linearGradient>
<linearGradient id="paint19_linear_143:1234" x1="7.09194" y1="118.409" x2="233.53" y2="118.409" gradientUnits="userSpaceOnUse">
<stop stop-color="#A9CAB9"/>
<stop offset="0.95426" stop-color="#B4F7FD"/>
<stop offset="0.999362" stop-color="#B6FBFF"/>
<stop offset="1" stop-color="#B6FBFF"/>
</linearGradient>
<linearGradient id="paint20_linear_143:1234" x1="-0.000828993" y1="115.3" x2="252" y2="115.3" gradientUnits="userSpaceOnUse">
<stop stop-color="#A9CAB9"/>
<stop offset="0.95426" stop-color="#B4F7FD"/>
<stop offset="0.999362" stop-color="#B6FBFF"/>
<stop offset="1" stop-color="#B6FBFF"/>
</linearGradient>
</defs>
</svg>
