<svg width="64" height="64" viewBox="0 0 64 64" fill="none" xmlns="http://www.w3.org/2000/svg">
<path d="M17.6612 15.125C16.6274 15.125 15.7862 15.9662 15.7862 17C15.8893 19.4874 19.4334 19.4866 19.5362 17C19.5362 15.9662 18.6949 15.125 17.6612 15.125Z" fill="#C85A16"/>
<path d="M35.0125 20.9463L30.89 17.7375C30.9181 17.2444 30.9181 16.7556 30.89 16.2625L35.0125 13.0538L29.755 3.94625L24.915 5.91125C24.5037 5.64125 24.0762 5.395 23.6375 5.1725L22.9187 0H12.4037L11.685 5.1725C11.2462 5.395 10.8187 5.64125 10.4062 5.91125L5.5675 3.94625L0.309998 13.0538L4.43125 16.2625C4.40437 16.7556 4.40437 17.2444 4.43125 17.7375L0.309998 20.9463L5.5675 30.0537L10.4062 28.0888C10.8187 28.3588 11.2462 28.605 11.685 28.8275L12.4037 34H22.9187L23.6375 28.8275C24.0762 28.605 24.5037 28.3588 24.915 28.0888L29.755 30.0537L35.0125 20.9463ZM17.6612 22.625C14.56 22.625 12.0362 20.1012 12.0362 17C12.3457 9.53775 22.9779 9.54 23.2862 17C23.2862 20.1012 20.7625 22.625 17.6612 22.625Z" fill="#C85A16"/>
<path d="M45.6875 44.3387C44.6537 44.3387 43.8125 45.18 43.8125 46.2137C43.9148 48.7012 47.4606 48.7006 47.5625 46.2137C47.5625 45.18 46.7213 44.3387 45.6875 44.3387Z" fill="#C85A16"/>
<path d="M59.435 46.3387C59.435 46.0712 59.4262 45.8012 59.41 45.5312L63.69 42.1987L58.2737 32.8187L53.25 34.8587C52.7987 34.5612 52.3312 34.29 51.8487 34.0487L51.1037 28.6787H40.2712L39.5262 34.0487C39.0437 34.29 38.5762 34.5612 38.125 34.8587L33.1012 32.8187L27.685 42.1987L31.965 45.5312C31.9319 46.0715 31.9319 46.6071 31.965 47.1462L27.685 50.4787L33.1012 59.86L38.125 57.82C38.5762 58.1175 39.0437 58.3875 39.5262 58.63L40.2712 64H51.1037L51.8487 58.63C52.3312 58.3875 52.7987 58.1175 53.25 57.82L58.2737 59.86L63.69 50.4787L59.41 47.1462C59.4262 46.8775 59.435 46.6075 59.435 46.3387ZM45.6875 51.8387C42.5862 51.8387 40.0625 49.3162 40.0625 46.2137C40.372 38.7515 51.0041 38.7537 51.3125 46.2137C51.3125 49.3162 48.7887 51.8387 45.6875 51.8387Z" fill="#C85A16"/>
<path d="M14.9668 50.7277L16.6034 52.375H14.8081C11.7002 52.375 9.17188 49.8465 9.17188 46.7388V41H5.42188V46.7388C5.42188 51.9143 9.6325 56.125 14.8081 56.125H16.6034L14.9668 57.7723L17.6269 60.4154L23.7525 54.25L17.627 48.0848L14.9668 50.7277Z" fill="#C85A16"/>
<path d="M49.5332 13.2722L47.8966 11.625H49.6919C52.7996 11.625 55.3281 14.1535 55.3281 17.2612V23H59.0781V17.2612C59.0781 12.0857 54.8674 7.87497 49.6919 7.87497H47.8966L49.5332 6.22772L46.8731 3.58459L40.7475 9.74997L46.873 15.9152L49.5332 13.2722Z" fill="#C85A16"/>
</svg>
