<svg width="72" height="72" viewBox="0 0 72 72" fill="none" xmlns="http://www.w3.org/2000/svg">
<path d="M58.5939 67.7804H49.4065V62.6616H22.5939V67.7804H13.4065C12.2416 67.7804 11.2971 68.7248 11.2971 69.8897C11.2971 71.0547 12.2416 71.9991 13.4065 71.9991H58.5939C61.3735 71.9029 61.4023 67.8885 58.5939 67.7804Z" fill="#C85A16"/>
<path d="M15.864 20.1851L24.7035 24.6049L33.5429 20.1851L24.7035 15.7654L15.864 20.1851Z" fill="#C85A16"/>
<path d="M23.7596 28.8498L17.7748 25.8574V32.3862C22.1934 34.2117 27.2127 34.2115 31.6307 32.3862L31.6308 25.8574L25.6461 28.8498C25.0524 29.1468 24.3535 29.1468 23.7596 28.8498Z" fill="#C85A16"/>
<path d="M69.8906 0H2.10938C0.944437 0 0 0.944437 0 2.10938V45.1875H72V2.10938C72 0.944437 71.0556 0 69.8906 0ZM39.2026 22.071L35.85 23.7473V33.7407C35.85 34.5397 35.3985 35.2702 34.6839 35.6275C28.4341 38.7518 20.9718 38.7523 14.7225 35.6273C14.0078 35.2702 13.5563 34.5397 13.5563 33.7407V23.7475L10.2035 22.0711C8.6632 21.3211 8.65828 19.0492 10.2035 18.2978L23.7597 11.5197C24.3537 11.2227 25.0526 11.2227 25.6463 11.5197L39.2025 18.2978C40.7415 19.0458 40.7486 21.3204 39.2026 22.071ZM52.9453 40.3687H47.2968C44.5033 40.266 44.5012 36.2534 47.2968 36.1499H52.9453C55.7388 36.2527 55.7409 40.2652 52.9453 40.3687ZM60.8531 31.3313H47.2968C44.5054 31.2296 44.4991 27.2167 47.2968 27.1125H60.8531C62.018 27.1125 62.9625 28.0569 62.9625 29.2219C62.9625 30.3868 62.0182 31.3313 60.8531 31.3313ZM45.1875 20.1843C45.1875 19.0194 46.1319 18.075 47.2968 18.075H52.9453C55.7388 18.1776 55.7409 22.1902 52.9453 22.2937H47.2968C46.1319 22.2937 45.1875 21.3493 45.1875 20.1843ZM60.8531 13.2563H47.2968C44.5054 13.1546 44.4991 9.14175 47.2968 9.03755H60.8531C62.018 9.03755 62.9625 9.98198 62.9625 11.1469C62.9625 12.3119 62.0182 13.2563 60.8531 13.2563Z" fill="#C85A16"/>
<path d="M0 56.3337C0 57.4986 0.944437 58.4431 2.10938 58.4431H69.8906C71.0556 58.4431 72 57.4986 72 56.3337V49.4055H0V56.3337Z" fill="#C85A16"/>
</svg>
