<svg width="72" height="72" viewBox="0 0 72 72" fill="none" xmlns="http://www.w3.org/2000/svg">
<path d="M19.125 55.125C23.7849 55.125 27.5625 51.3474 27.5625 46.6875C27.5625 42.0276 23.7849 38.25 19.125 38.25C14.4651 38.25 10.6875 42.0276 10.6875 46.6875C10.6875 51.3474 14.4651 55.125 19.125 55.125Z" fill="#C85A16"/>
<path d="M4.35938 69.8906C4.35938 71.0565 5.30283 72 6.46875 72H31.7812C32.9472 72 33.8906 71.0565 33.8906 69.8906C33.8906 61.7497 27.2659 55.125 19.125 55.125C10.9841 55.125 4.35938 61.7497 4.35938 69.8906Z" fill="#C85A16"/>
<path d="M52.875 55.125C57.5349 55.125 61.3125 51.3474 61.3125 46.6875C61.3125 42.0276 57.5349 38.25 52.875 38.25C48.2151 38.25 44.4375 42.0276 44.4375 46.6875C44.4375 51.3474 48.2151 55.125 52.875 55.125Z" fill="#C85A16"/>
<path d="M38.1094 69.8906C38.1094 71.0565 39.0528 72 40.2188 72H65.5312C66.6972 72 67.6406 71.0565 67.6406 69.8906C67.6406 61.7497 61.0159 55.125 52.875 55.125C44.7341 55.125 38.1094 61.7497 38.1094 69.8906Z" fill="#C85A16"/>
<path d="M65.6719 0H6.32812C2.83866 0 0 2.83866 0 6.32812V23.2031C0 26.6926 2.83866 29.5312 6.32812 29.5312H13.8922L17.4929 33.132C18.3168 33.9559 19.6518 33.9559 20.4757 33.132L24.0765 29.5312H47.9235L51.5242 33.132C52.3481 33.9559 53.6829 33.956 54.507 33.132L58.1078 29.5312H65.6719C69.1613 29.5312 72 26.6926 72 23.2031V6.32812C72 2.83866 69.1613 0 65.6719 0ZM27.4219 21.0938H10.5469C9.38095 21.0938 8.4375 20.1503 8.4375 18.9844C8.4375 17.8185 9.38095 16.875 10.5469 16.875H27.4219C28.5878 16.875 29.5312 17.8185 29.5312 18.9844C29.5312 20.1503 28.5878 21.0938 27.4219 21.0938ZM27.4219 12.6562H10.5469C9.38095 12.6562 8.4375 11.7128 8.4375 10.5469C8.4375 9.38095 9.38095 8.4375 10.5469 8.4375H27.4219C28.5878 8.4375 29.5312 9.38095 29.5312 10.5469C29.5312 11.7128 28.5878 12.6562 27.4219 12.6562ZM61.4531 21.0938H44.5781C43.4122 21.0938 42.4688 20.1503 42.4688 18.9844C42.4688 17.8185 43.4122 16.875 44.5781 16.875H61.4531C62.619 16.875 63.5625 17.8185 63.5625 18.9844C63.5625 20.1503 62.619 21.0938 61.4531 21.0938ZM61.4531 12.6562H44.5781C43.4122 12.6562 42.4688 11.7128 42.4688 10.5469C42.4688 9.38095 43.4122 8.4375 44.5781 8.4375H61.4531C62.619 8.4375 63.5625 9.38095 63.5625 10.5469C63.5625 11.7128 62.619 12.6562 61.4531 12.6562Z" fill="#C85A16"/>
</svg>
