<svg width="72" height="72" viewBox="0 0 72 72" fill="none" xmlns="http://www.w3.org/2000/svg">
<path d="M43.546 34.5086C43.9416 34.113 44.4781 33.8907 45.0375 33.8907H55.2393C52.2065 11.0449 19.7849 11.0615 16.7607 33.8907H26.0888L30.0671 29.9125C27.8493 25.6229 31.1491 20.2696 36.0002 20.3346C39.6549 20.3346 42.6283 23.3079 42.6283 26.9626C42.6927 31.8134 37.3399 35.114 33.0502 32.8956L28.4541 37.4917C28.0586 37.8872 27.5221 38.1096 26.9627 38.1096H16.7609C19.7936 60.9554 52.2153 60.9388 55.2394 38.1096H45.9113L41.933 42.0877C44.1508 46.3773 40.8511 51.7306 35.9999 51.6657C32.3452 51.6657 29.3719 48.6923 29.3719 45.0376C29.3074 40.1869 34.6602 36.8863 38.95 39.1046L43.546 34.5086Z" fill="#C85A16"/>
<path d="M38.4094 26.9625C38.4094 25.634 37.3286 24.5532 36.0001 24.5532C32.8082 24.6742 32.809 29.2513 36.0001 29.372C37.3286 29.372 38.4094 28.2911 38.4094 26.9625Z" fill="#C85A16"/>
<path d="M33.5908 45.0375C33.5908 46.366 34.6717 47.4469 36.0002 47.4469C39.1921 47.3258 39.1912 42.7487 36.0002 42.6281C34.6717 42.6281 33.5908 43.7089 33.5908 45.0375Z" fill="#C85A16"/>
<path d="M69.8906 29.3719H67.9352C67.6834 28.1554 67.3615 26.9525 66.9717 25.7722L68.6647 24.7946C69.6734 24.212 70.019 22.922 69.4365 21.9132L64.9178 14.0868C64.3354 13.078 63.0454 12.7323 62.0366 13.3148L60.3335 14.2979C59.5072 13.3723 58.6281 12.4933 57.7024 11.6668L58.6855 9.96356C59.268 8.95472 58.9222 7.66477 57.9135 7.0823L50.0871 2.56359C49.0783 1.98098 47.7882 2.32678 47.2057 3.33548L46.2281 5.02847C45.0494 4.63936 43.8466 4.31761 42.6284 4.06533V2.10938C42.6284 0.944437 41.6839 0 40.519 0H31.4814C30.3165 0 29.3721 0.944437 29.3721 2.10938V4.06477C28.1555 4.31663 26.9526 4.63852 25.7723 5.02833L24.7947 3.33534C24.2121 2.32664 22.9222 1.98112 21.9133 2.56345L14.087 7.08216C13.0783 7.66463 12.7325 8.95458 13.3149 9.96342L14.298 11.6665C13.3725 12.4928 12.4934 13.3719 11.667 14.2976L9.9637 13.3145C8.95486 12.732 7.66477 13.0777 7.08244 14.0865L2.56373 21.9129C1.98127 22.9217 2.32678 24.2118 3.33562 24.7943L5.02861 25.7719C4.6395 26.9506 4.31775 28.1534 4.06547 29.3716H2.10938C0.944437 29.3716 0 30.3161 0 31.481V40.5186C0 41.6835 0.944437 42.6279 2.10938 42.6279H4.06477C4.31663 43.8445 4.63852 45.0474 5.02833 46.2277L3.33534 47.2053C2.32664 47.7879 1.98098 49.0778 2.56345 50.0867L7.08216 57.913C7.66463 58.9219 8.95472 59.2677 9.96342 58.6851L11.6665 57.702C12.4928 58.6275 13.3719 59.5066 14.2976 60.333L13.3145 62.0363C12.732 63.0451 13.0778 64.3351 14.0865 64.9176L21.9129 69.4363C22.9219 70.0189 24.2118 69.6732 24.7943 68.6644L25.7719 66.9714C26.9506 67.3605 28.1534 67.6823 29.3716 67.9345V69.8906C29.3716 71.0556 30.3161 72 31.481 72H40.5186C41.6835 72 42.6279 71.0556 42.6279 69.8906V67.9352C43.8445 67.6834 45.0474 67.3615 46.2277 66.9717L47.2053 68.6647C47.7879 69.6734 49.0778 70.019 50.0867 69.4365L57.913 64.9178C58.9217 64.3354 59.2675 63.0454 58.6851 62.0366L57.702 60.3335C58.6275 59.5072 59.5066 58.6281 60.333 57.7024L62.0363 58.6855C63.0451 59.2678 64.3351 58.9222 64.9176 57.9135L69.4363 50.0871C70.0187 49.0783 69.6732 47.7882 68.6644 47.2057L66.9714 46.2281C67.3605 45.0494 67.6823 43.8466 67.9345 42.6284H69.8906C71.0556 42.6284 72 41.6839 72 40.519V31.4814C72 30.3164 71.0556 29.3719 69.8906 29.3719ZM36 59.5734C23.0016 59.5734 12.4266 48.9984 12.4266 36C13.6118 4.76958 58.3931 4.77816 59.5735 36.0003C59.5734 48.9984 48.9984 59.5734 36 59.5734Z" fill="#C85A16"/>
</svg>
