<svg width="72" height="72" viewBox="0 0 72 72" fill="none" xmlns="http://www.w3.org/2000/svg">
<path d="M48.7677 28.4841L53.3678 23.884C57.6613 26.1036 63.0194 22.8012 62.9544 17.9456C62.9544 14.2876 59.9783 11.3116 56.3204 11.3116C51.4652 11.2471 48.1618 16.6046 50.3821 20.8982L46.4004 24.8799H38.0792V29.1024H47.2749C47.8348 29.1024 48.3718 28.88 48.7677 28.4841V28.4841Z" fill="#C85A16"/>
<path d="M65.366 29.4028C62.4461 29.4028 59.9624 31.2998 59.0784 33.9255H38.0791V38.148H59.0784C61.557 45.17 71.8521 43.5722 72 36.0366C72 32.3788 69.024 29.4028 65.366 29.4028V29.4028Z" fill="#C85A16"/>
<path d="M56.3204 47.4939C55.26 47.4939 54.2577 47.7453 53.3678 48.1896L48.7677 43.5895C48.3719 43.1935 47.8348 42.971 47.2749 42.971H38.0792V47.1935H46.4004L50.3821 51.1752C48.1625 55.4692 51.4649 60.8265 56.3205 60.7617C65.1088 60.4287 65.1072 47.8262 56.3204 47.4939V47.4939Z" fill="#C85A16"/>
<path d="M23.2532 0.00460818C13.0899 -0.297302 8.00765 15.163 18.1675 16.1255C19.3334 16.1252 20.2787 17.0705 20.2787 18.2365C20.2787 19.4024 19.3334 20.3477 18.1675 20.3477C13.5801 20.3477 9.7258 17.1589 8.69832 12.8822C-3.89591 15.4095 -2.40902 33.5791 10.5389 33.9255C13.5811 33.9255 16.0562 31.4504 16.0562 28.4081C16.0562 27.2421 17.0015 26.2968 18.1675 26.2968C19.3334 26.2968 20.2787 27.2421 20.2787 28.4081C20.2787 31.495 18.8353 34.2511 16.588 36.0368C18.8353 37.8226 20.2787 40.5786 20.2787 43.6654C20.2787 44.8314 19.3334 45.7767 18.1675 45.7767C17.0015 45.7767 16.0562 44.8314 16.0562 43.6654C16.0562 40.6231 13.5811 38.148 10.5388 38.148C-2.4093 38.4936 -3.89464 56.667 8.69832 59.1912C9.72565 54.9145 13.58 51.7257 18.1675 51.7257C19.3334 51.7257 20.2787 52.671 20.2787 53.8369C20.2787 55.0029 19.3334 55.9482 18.1675 55.9482C15.1251 55.9482 12.65 58.4233 12.65 61.4656C13.1818 75.51 33.3245 75.5118 33.8565 61.4655V56.3799C33.8565 53.3375 31.3814 50.8624 28.3391 50.8624C25.5408 50.7596 25.5435 46.742 28.3391 46.6399C30.3862 46.6399 32.2869 47.2763 33.8565 48.3593V23.714C32.2869 24.7973 30.3862 25.4335 28.3391 25.4335C27.1731 25.4335 26.2278 24.4882 26.2278 23.3222C26.2278 22.1562 27.1731 21.2109 28.3391 21.2109C31.3814 21.2109 33.8565 18.7358 33.8565 15.6935V10.6078C33.8564 4.76128 29.0998 0.00460818 23.2532 0.00460818V0.00460818Z" fill="#C85A16"/>
</svg>
