<svg width="72" height="72" viewBox="0 0 72 72" fill="none" xmlns="http://www.w3.org/2000/svg">
<path d="M69.8906 0H2.10938C0.944437 0 0 0.944437 0 2.10938V18.075H72V2.10938C72 0.944437 71.0556 0 69.8906 0V0ZM13.4062 11.1469H11.1469C8.35242 11.0438 8.35214 7.03139 11.1469 6.92817H13.4063C16.2007 7.03125 16.2011 11.0437 13.4062 11.1469ZM23.5734 11.1469H21.3141C18.5196 11.0438 18.5193 7.03139 21.3141 6.92817H23.5734C26.3679 7.03125 26.3683 11.0437 23.5734 11.1469ZM33.7406 11.1469H31.4813C28.6868 11.0438 28.6865 7.03139 31.4813 6.92817H33.7406C36.5351 7.03125 36.5354 11.0437 33.7406 11.1469ZM60.8531 11.1469H42.7781C41.6132 11.1469 40.6688 10.2025 40.6688 9.03755C40.6688 7.87261 41.6132 6.92817 42.7781 6.92817H60.8531C63.6432 7.02914 63.6519 11.0422 60.8531 11.1469Z" fill="#C85A16"/>
<path d="M0 69.8906C0 71.0556 0.944437 72 2.10938 72H69.8906C71.0556 72 72 71.0556 72 69.8906V22.2937H0V69.8906ZM48.0646 39.7509C46.1627 37.7065 48.9956 34.8626 51.0477 36.7678L57.8258 43.5459C58.2214 43.9415 58.4438 44.478 58.4438 45.0374C58.4438 45.5968 58.2214 46.1333 57.8258 46.5289L51.0477 53.307C49.0009 55.2091 46.1606 52.3754 48.0646 50.3239L53.3512 45.0373L48.0646 39.7509ZM29.7262 50.6455L38.7637 37.0893C40.3962 34.8237 43.7392 37.043 42.274 39.4294L33.2364 52.9857C32.8448 53.5731 31.6025 54.4316 30.3113 53.5708C29.3418 52.9245 29.08 51.6149 29.7262 50.6455ZM14.174 43.5459L20.9521 36.7678C23.0009 34.8647 25.8386 37.7017 23.9352 39.7509L18.6487 45.0374L23.9352 50.3241C25.8376 52.3711 23.0029 55.2112 20.9521 53.3071L14.174 46.529C13.3573 45.7438 13.3568 44.3312 14.174 43.5459Z" fill="#C85A16"/>
</svg>
