<svg width="64" height="64" viewBox="0 0 64 64" fill="none" xmlns="http://www.w3.org/2000/svg">
<path d="M22.625 56.5V60.25H17C15.9636 60.25 15.125 61.0886 15.125 62.125C15.125 63.1614 15.9636 64 17 64H47C48.0364 64 48.875 63.1614 48.875 62.125C48.875 61.0886 48.0364 60.25 47 60.25H41.375V56.5H22.625Z" fill="#C85A16"/>
<path d="M17 0C15.9645 0 15.125 0.83925 15.125 1.875V41.375H48.875V1.875C48.875 0.83925 48.0355 0 47 0H17ZM31.4506 29.4506L25.8256 35.0756C25.4594 35.4419 24.9796 35.625 24.5 35.625C24.0204 35.625 23.5405 35.4419 23.1744 35.0756L19.4244 31.3256C18.692 30.5933 18.692 29.4066 19.4244 28.6742C20.1568 27.9419 21.3434 27.9419 22.0758 28.6742L24.5 31.0986L28.7994 26.7992C29.5318 26.0669 30.7184 26.0669 31.4508 26.7992C32.1831 27.5316 32.1831 28.7183 31.4506 29.4506ZM31.4506 18.2006L25.8256 23.8256C25.4594 24.1919 24.9796 24.375 24.5 24.375C24.0204 24.375 23.5405 24.1919 23.1744 23.8256L19.4244 20.0756C18.692 19.3433 18.692 18.1566 19.4244 17.4242C20.1568 16.6919 21.3434 16.6919 22.0758 17.4242L24.5 19.8486L28.7994 15.5492C29.5318 14.8169 30.7184 14.8169 31.4508 15.5492C32.1831 16.2816 32.1831 17.4683 31.4506 18.2006ZM31.4506 6.95062L25.8256 12.5756C25.4594 12.9419 24.9796 13.125 24.5 13.125C24.0204 13.125 23.5405 12.9419 23.1744 12.5756L19.4244 8.82563C18.692 8.09325 18.692 6.90663 19.4244 6.17425C20.1568 5.44187 21.3434 5.44187 22.0758 6.17425L24.5 8.59863L28.7994 4.29925C29.5318 3.56687 30.7184 3.56687 31.4508 4.29925C32.1831 5.03163 32.1831 6.21825 31.4506 6.95062ZM43.25 33.75H35.75C34.7136 33.75 33.875 32.9114 33.875 31.875C33.875 30.8386 34.7136 30 35.75 30H43.25C44.2864 30 45.125 30.8386 45.125 31.875C45.125 32.9114 44.2864 33.75 43.25 33.75ZM43.25 22.5H35.75C34.7136 22.5 33.875 21.6614 33.875 20.625C33.875 19.5886 34.7136 18.75 35.75 18.75H43.25C44.2864 18.75 45.125 19.5886 45.125 20.625C45.125 21.6614 44.2864 22.5 43.25 22.5ZM43.25 11.25H35.75C34.7136 11.25 33.875 10.4114 33.875 9.375C33.875 8.33862 34.7136 7.5 35.75 7.5H43.25C44.2864 7.5 45.125 8.33862 45.125 9.375C45.125 10.4114 44.2864 11.25 43.25 11.25Z" fill="#C85A16"/>
<path d="M62.125 7.5H52.625V41.375H64V9.375C64 8.33862 63.1614 7.5 62.125 7.5Z" fill="#C85A16"/>
<path d="M1.875 52.75H62.125C63.1614 52.75 64 51.9114 64 50.875V45.125H0V50.875C0 51.9114 0.838625 52.75 1.875 52.75Z" fill="#C85A16"/>
<path d="M11.375 7.5H1.875C0.838625 7.5 0 8.33862 0 9.375V41.375H11.375V7.5Z" fill="#C85A16"/>
</svg>
