<svg width="72" height="72" viewBox="0 0 72 72" fill="none" xmlns="http://www.w3.org/2000/svg">
<path d="M44.7308 34.1968L41.5422 36.5884L44.4374 38.2597V36C44.4374 35.3694 44.5582 34.7721 44.7308 34.1968Z" fill="#C85A16"/>
<path d="M0 48.6562C0 49.8222 0.943453 50.7656 2.10938 50.7656C2.82319 50.7656 33.635 50.7656 32.5496 50.7656C31.3237 49.9146 30.3895 48.7294 29.9974 47.2679C29.5608 45.6344 29.7852 43.9287 30.6319 42.4641L32.7392 38.8139C33.0098 38.3437 34.6019 36.522 34.7352 36.4223L40.9212 31.7812L34.7352 27.1402C33.802 26.4419 33.6126 25.1194 34.3129 24.1883C35.0153 23.2552 36.3358 23.0698 37.2648 23.766L45.7023 30.0942C46.1246 30.4102 46.356 30.8852 46.4552 31.3935C47.5871 30.3339 49.0963 29.6719 50.7656 29.6719H54.9844V12.6562H0V48.6562ZM23.4529 37.442L27.6716 24.7857C28.0382 23.6815 29.2227 23.0822 30.3393 23.4529C31.4435 23.8195 32.0408 25.0144 31.6721 26.1205L27.4534 38.7768C27.1588 39.6605 26.3368 40.2188 25.4531 40.2188C24.0145 40.2188 22.9977 38.8077 23.4529 37.442ZM9.42272 30.0942L17.8602 23.766C18.7913 23.0636 20.1118 23.2532 20.8121 24.1883C21.5124 25.1194 21.323 26.4419 20.3898 27.1402L14.2038 31.7812L20.3898 36.4223C21.323 37.1206 21.5124 38.4431 20.8121 39.3742C20.1163 40.3052 18.7947 40.497 17.8602 39.7965L9.42272 33.4683C8.8913 33.0708 8.57812 32.4446 8.57812 31.7812C8.57812 31.1179 8.8913 30.4917 9.42272 30.0942Z" fill="#C85A16"/>
<path d="M52.875 54.9844C54.0388 54.9844 54.9844 54.0388 54.9844 52.875C54.9844 51.7112 54.0388 50.7656 52.875 50.7656C51.7112 50.7656 50.7656 51.7112 50.7656 52.875C50.7656 54.0388 51.7112 54.9844 52.875 54.9844Z" fill="#C85A16"/>
<path d="M34.2834 61.1731L36.3927 64.8267C36.9752 65.8356 38.2652 66.1811 39.2742 65.5988L44.7021 62.4651C45.8629 63.4556 47.1898 64.2348 48.6565 64.7563V69.8906C48.6565 71.0556 49.601 72 50.7659 72H54.9846C56.1496 72 57.094 71.0556 57.094 69.8906V64.7563C58.5607 64.2348 59.8875 63.4556 61.0484 62.4651L66.5861 65.5988C67.5949 66.1812 69.0256 65.8357 69.6081 64.8267L71.7175 61.1731C72.2999 60.1643 71.9544 58.8742 70.9454 58.2916L65.2996 55.1765C65.4376 54.4279 65.5317 53.6635 65.5317 52.875C65.5317 52.0865 65.4377 51.3218 65.2996 50.5732L70.9454 47.4581C71.9543 46.8757 72.2998 45.5857 71.7175 44.5767L69.6081 40.9231C69.0256 39.914 67.595 39.5685 66.5861 40.151L61.0481 43.2849C59.8874 42.2947 58.5607 41.5152 57.094 40.9937V36C57.094 34.8348 56.1496 33.8906 54.9846 33.8906H50.7659C49.601 33.8906 48.6565 34.8348 48.6565 36V40.9937C47.1898 41.5152 45.8633 42.2945 44.7024 43.2849L39.2743 40.151C38.2654 39.5685 36.9754 39.914 36.3929 40.9231L34.2835 44.5767C33.701 45.5856 34.0466 46.8757 35.0555 47.4581L40.451 50.5732C40.3128 51.3218 40.2189 52.0865 40.2189 52.875C40.2189 53.6635 40.3128 54.4279 40.4509 55.1765L35.0554 58.2916C34.0466 58.8743 33.701 60.1643 34.2834 61.1731ZM52.8751 46.5469C56.3646 46.5469 59.2032 49.3855 59.2032 52.875C59.2032 56.3645 56.3646 59.2031 52.8751 59.2031C49.3857 59.2031 46.547 56.3645 46.547 52.875C46.547 49.3855 49.3857 46.5469 52.8751 46.5469Z" fill="#C85A16"/>
<path d="M0 8.4375H42.3281V0H2.10938C0.943453 0 0 0.943453 0 2.10938V8.4375Z" fill="#C85A16"/>
<path d="M54.9844 2.10938C54.9844 0.943453 54.0409 0 52.875 0H46.5469V8.4375H54.9844V2.10938Z" fill="#C85A16"/>
</svg>
