<svg width="68" height="72" viewBox="0 0 68 72" fill="none" xmlns="http://www.w3.org/2000/svg">
<path d="M67.623 28.7436L65.5136 25.1155C64.9655 24.103 63.6577 23.7655 62.6449 24.3139L59.0591 26.4233C57.8777 25.4108 56.5699 24.6516 55.0935 24.103V21.2344C55.0935 20.053 54.1655 19.125 52.9841 19.125H48.7653C47.5839 19.125 46.656 20.053 46.656 21.2344V24.1031C45.1795 24.6516 43.8717 25.4109 42.6903 26.4234L37.9653 23.7234L33.7466 31.0641L38.4716 33.68C38.303 34.4393 38.2185 35.1987 38.2185 36.0003C38.2185 36.8018 38.303 37.5612 38.4294 38.3206L33.7466 40.9362L37.9653 48.2768L42.6903 45.5768C43.8717 46.5896 45.1795 47.3489 46.656 47.8973V50.7656C46.656 51.9467 47.5839 52.875 48.7653 52.875H52.9841C54.1655 52.875 55.0935 51.9467 55.0935 50.7656V47.8969C56.5699 47.3484 57.8777 46.5891 59.0591 45.5764L62.6449 47.6858C63.6577 48.2342 64.9653 47.8969 65.5136 46.8842L67.623 43.2561C68.2136 42.2436 67.8764 40.9358 66.8636 40.3452L63.32 38.3203C63.4464 37.5609 63.531 36.8016 63.531 36C63.531 35.1984 63.4464 34.4391 63.2778 33.6797L66.8636 31.6545C67.8764 31.0639 68.2138 29.7561 67.623 28.7436ZM58.6793 33.2577L50.2418 41.6952C49.8622 42.1172 49.3138 42.3281 48.7653 42.3281C48.2169 42.3281 47.6685 42.1172 47.2889 41.6952L43.0702 37.4764C42.2264 36.6749 42.2264 35.3249 43.0702 34.5233C43.8717 33.6797 45.2214 33.6797 46.0231 34.5233L48.7655 37.2233L55.7266 30.3045C56.5281 29.4609 57.8778 29.4609 58.6795 30.3045C59.5231 31.1061 59.5231 32.4561 58.6793 33.2577Z" fill="#C85A16"/>
<path d="M29.9331 42.7656L25.3093 45.4077C24.1279 44.3952 22.8201 43.6359 21.3437 43.0874V38.1094H12.9062V43.0875C11.4298 43.6359 10.1219 44.3953 8.94055 45.4078L5.35475 43.2984C4.34197 42.75 3.0343 43.0875 2.486 44.1L0.376625 47.7281C-0.214 48.7406 0.123219 50.0484 1.136 50.6391L4.7218 52.6641C4.55319 53.4234 4.46867 54.1828 4.46867 54.9844C4.46867 55.7859 4.55319 56.5453 4.67961 57.3047L1.136 59.3295C0.123219 59.9202 -0.214 61.228 0.376625 62.2405L2.486 65.8686C3.03416 66.8814 4.34197 67.2186 5.35475 66.6702L8.94055 64.5608C10.1219 65.5734 11.4298 66.3328 12.9062 66.8813V69.75C12.9062 70.9311 13.8342 72 15.0156 72H19.2343C20.4157 72 21.3437 70.9311 21.3437 69.75V66.8813C22.8201 66.3328 24.1279 65.5734 25.3093 64.5608L28.8951 66.6702C29.9079 67.2186 31.2156 66.8812 31.7639 65.8686L33.8732 62.2405C34.4639 61.228 34.1266 59.9202 33.1139 59.3295L29.5702 57.3047C29.6967 56.5453 29.7812 55.7859 29.7812 54.9844C29.7812 54.1828 29.6967 53.4234 29.5281 52.6641L34.15 50.1054L29.9331 42.7656ZM24.9444 52.257L16.5069 60.6945C16.0949 61.1065 15.5551 61.3125 15.0156 61.3125C14.476 61.3125 13.9361 61.1065 13.5242 60.6945L9.30547 56.4757C8.48155 55.6518 8.48155 54.3168 9.30547 53.4929C10.1294 52.669 11.4643 52.669 12.2883 53.4929L15.0156 56.2203L21.9617 49.2742C22.7857 48.4502 24.1206 48.4502 24.9445 49.2742C25.7684 50.0981 25.7684 51.433 24.9444 52.257Z" fill="#C85A16"/>
<path d="M21.3437 33.8906V28.9125C22.8201 28.3641 24.1279 27.6047 25.3093 26.592L29.9333 29.2344L34.1503 21.894L29.5702 19.3359C29.6967 18.5766 29.7812 17.8172 29.7812 17.0156C29.7812 16.2141 29.6967 15.4547 29.5281 14.6953L33.1139 12.6702C34.1266 12.0795 34.4639 10.7717 33.8732 9.75923L31.7639 6.13111C31.2157 5.11861 29.9079 4.78111 28.8951 5.32955L25.3093 7.43892C24.1279 6.42642 22.8201 5.66719 21.3437 5.11861V2.10938C21.3437 0.927984 20.4157 0 19.2343 0H15.0156C13.8342 0 12.9062 0.927984 12.9062 2.10938V5.11875C11.4298 5.66719 10.1219 6.42656 8.94055 7.43906L5.35475 5.32969C4.34197 4.78125 3.0343 5.11875 2.486 6.13125L0.376625 9.75938C-0.214 10.7719 0.123219 12.0797 1.136 12.6703L4.7218 14.6953C4.55319 15.4547 4.46867 16.2141 4.46867 17.0156C4.46867 17.8172 4.55319 18.5766 4.67961 19.3359L1.136 21.3608C0.123219 21.9514 -0.214 23.2592 0.376625 24.2717L2.486 27.8999C3.03416 28.9126 4.34197 29.2499 5.35475 28.7014L8.94055 26.592C10.1219 27.6047 11.4298 28.3641 12.9062 28.9125V33.8906H21.3437ZM9.32038 18.492C8.47663 17.6905 8.47663 16.3405 9.32038 15.5389C10.1219 14.6953 11.4717 14.6953 12.2734 15.5389L15.0157 18.2389L21.9768 11.3202C22.7783 10.4766 24.1281 10.4766 24.9298 11.3202C25.7735 12.1217 25.7735 13.4717 24.9298 14.2733L16.4923 22.7108C16.1124 23.1328 15.564 23.3438 15.0156 23.3438C14.4671 23.3438 13.9187 23.1328 13.5391 22.7108L9.32038 18.492Z" fill="#C85A16"/>
</svg>
