<svg width="72" height="72" viewBox="0 0 72 72" fill="none" xmlns="http://www.w3.org/2000/svg">
<path d="M58.5938 67.7812H49.4064V62.6625H22.5938V67.7812H13.4064C12.2414 67.7812 11.297 68.7257 11.297 69.8906C11.297 71.0555 12.2414 72 13.4064 72H58.5938C61.3734 71.9038 61.4022 67.8894 58.5938 67.7812Z" fill="#C85A16"/>
<path d="M17.9252 22.2937C16.5967 22.2937 15.5157 23.3745 15.5157 24.703C15.637 27.8949 20.2139 27.8942 20.3345 24.703C20.3345 23.3745 19.2537 22.2937 17.9252 22.2937Z" fill="#C85A16"/>
<path d="M35.9999 13.2563C34.6714 13.2563 33.5905 14.3372 33.5905 15.6657C33.7117 18.8576 38.2886 18.8567 38.4094 15.6657C38.4094 14.3372 37.3284 13.2563 35.9999 13.2563Z" fill="#C85A16"/>
<path d="M69.8906 0H2.10938C0.944437 0 0 0.944437 0 2.10938V45.1875H24.8531V34.6143L20.8748 30.6361C16.5852 32.8539 11.2319 29.5542 11.2968 24.703C11.2968 21.0483 14.2702 18.075 17.9249 18.075C22.7756 18.0105 26.0761 23.3633 23.8579 27.6531L28.4539 32.2491C28.8495 32.6447 29.0718 33.1812 29.0718 33.7406V45.1875H33.8906V21.9476C26.8757 19.4719 28.4704 9.18534 36.0001 9.03755C43.5309 9.18605 45.1232 19.4733 38.1094 21.9476V45.1876H42.9282V33.7407C42.9282 33.1812 43.1504 32.6448 43.5461 32.2493L48.1421 27.6532C45.9245 23.3636 49.224 18.0103 54.0752 18.0752C57.7299 18.0752 60.7033 21.0486 60.7033 24.7033C60.7677 29.554 55.415 32.8546 51.1252 30.6363L47.1469 34.6144V45.1876H72V2.10938C72 0.944437 71.0556 0 69.8906 0Z" fill="#C85A16"/>
<path d="M54.075 27.1125C55.4035 27.1125 56.4845 26.0317 56.4845 24.7032C56.3632 21.5113 51.7863 21.512 51.6656 24.7032C51.6656 26.0317 52.7465 27.1125 54.075 27.1125Z" fill="#C85A16"/>
<path d="M0 56.3344C0 57.4993 0.944437 58.4437 2.10938 58.4437H69.8906C71.0556 58.4437 72 57.4993 72 56.3344V49.4062H0V56.3344Z" fill="#C85A16"/>
</svg>
