<svg width="90" height="90" viewBox="0 0 90 90" fill="none" xmlns="http://www.w3.org/2000/svg">
<path opacity="0.0344828" d="M11.6283 21.0825C12.0176 20.6295 12.6155 20.3345 13.4384 20.214C14.2638 20.0932 15.296 20.1514 16.5175 20.3898C18.96 20.8664 22.0958 22.0502 25.7163 23.8483C32.9529 27.4423 42.0653 33.4597 51.3325 41.051C60.5996 48.6423 68.2521 56.3582 73.1343 62.6914C75.5768 65.86 77.3155 68.6692 78.2205 70.9347C78.673 72.0677 78.911 73.05 78.9324 73.8645C78.9537 74.6766 78.76 75.3026 78.3707 75.7556C77.9813 76.2086 77.3835 76.5035 76.5605 76.624C75.7351 76.7449 74.7029 76.6866 73.4815 76.4483C71.0389 75.9717 67.9031 74.7879 64.2826 72.9898C57.046 69.3958 47.9336 63.3784 38.6665 55.7871C29.3994 48.1958 21.7468 40.4799 16.8647 34.1466C14.4221 30.9781 12.6834 28.1688 11.7785 25.9033C11.3259 24.7704 11.0879 23.7881 11.0665 22.9736C11.0452 22.1615 11.2389 21.5355 11.6283 21.0825Z" stroke="#A9CAB9" stroke-width="0.6"/>
<path opacity="0.0689655" d="M14.1965 18.0058C14.6253 17.5872 15.2476 17.3442 16.0781 17.2942C16.9112 17.244 17.9343 17.3899 19.1297 17.7312C21.5202 18.4138 24.5383 19.8598 27.9844 21.9591C34.8725 26.1551 43.4129 32.9248 51.9669 41.2756C60.521 49.6265 67.4555 57.964 71.7535 64.6884C73.9039 68.0527 75.3851 70.9991 76.0843 73.3328C76.4339 74.4998 76.5833 75.4986 76.5319 76.3119C76.4807 77.1227 76.2318 77.7302 75.8031 78.1488C75.3743 78.5673 74.752 78.8103 73.9215 78.8603C73.0884 78.9105 72.0654 78.7646 70.8699 78.4233C68.4794 77.7407 65.4613 76.2947 62.0152 74.1954C55.1272 69.9995 46.5867 63.2297 38.0327 54.8789C29.4786 46.528 22.5441 38.1905 18.2461 31.4661C16.0957 28.1018 14.6145 25.1555 13.9153 22.8217C13.5657 21.6547 13.4163 20.6559 13.4677 19.8427C13.5189 19.0319 13.7678 18.4244 14.1965 18.0058Z" stroke="#A9CAB9" stroke-width="0.6"/>
<path opacity="0.103448" d="M16.999 15.158C17.4639 14.7771 18.1059 14.5881 18.9377 14.6089C19.7721 14.6298 20.7782 14.8621 21.9385 15.3039C24.2589 16.1872 27.1362 17.8844 30.3818 20.2689C36.8689 25.0348 44.7723 32.5054 52.5482 41.5522C60.3241 50.599 66.4878 59.4947 70.1691 66.5591C72.0109 70.0934 73.2234 73.1545 73.7115 75.5387C73.9556 76.7309 74.0153 77.7386 73.8915 78.5444C73.768 79.3477 73.4658 79.9321 73.0009 80.313C72.5359 80.6939 71.8939 80.8829 71.0621 80.8621C70.2277 80.8412 69.2216 80.6089 68.0613 80.1672C65.7409 79.2838 62.8636 77.5866 59.618 75.2022C53.1309 70.4362 45.2275 62.9656 37.4516 53.9188C29.6757 44.872 23.512 35.9763 19.8307 28.9119C17.989 25.3776 16.7765 22.3165 16.2883 19.9323C16.0442 18.7401 15.9846 17.7325 16.1084 16.9266C16.2318 16.1233 16.534 15.5389 16.999 15.158Z" stroke="#A9CAB9" stroke-width="0.6"/>
<path opacity="0.137931" d="M20.0145 12.5581C20.5122 12.2179 21.169 12.0842 21.9958 12.1758C22.8251 12.2676 23.8066 12.5846 24.923 13.1233C27.1555 14.2006 29.8703 16.1362 32.8905 18.7876C38.9273 24.0873 46.1337 32.2018 53.0723 41.8757C60.0108 51.5496 65.3568 60.9358 68.3933 68.2864C69.9125 71.9639 70.8471 75.1163 71.1205 77.5329C71.2572 78.7412 71.2267 79.7501 71.0314 80.5423C70.8368 81.332 70.4835 81.8889 69.9858 82.2291C69.4881 82.5693 68.8312 82.7029 68.0045 82.6114C67.1751 82.5196 66.1937 82.2025 65.0773 81.6638C62.8447 80.5865 60.13 78.651 57.1097 75.9995C51.0729 70.6999 43.8666 62.5854 36.928 52.9115C29.9894 43.2376 24.6435 33.8514 21.6069 26.5008C20.0877 22.8233 19.1532 19.6708 18.8798 17.2543C18.743 16.0459 18.7735 15.0371 18.9688 14.2449C19.1635 13.4551 19.5168 12.8983 20.0145 12.5581Z" stroke="#A9CAB9" stroke-width="0.6"/>
<path opacity="0.172414" d="M23.2198 10.2234C23.7465 9.92655 24.4131 9.84935 25.2285 10.0109C26.0465 10.1729 26.9959 10.5722 28.0599 11.2039C30.1876 12.467 32.7191 14.626 35.4911 17.5243C41.0317 23.3173 47.4861 32.014 53.5346 42.2414C59.5831 52.4688 64.0707 62.274 66.4394 69.8548C67.6245 73.6475 68.274 76.8674 68.3306 79.2978C68.3589 80.5131 68.2385 81.5155 67.9732 82.2881C67.7088 83.0582 67.307 83.5832 66.7804 83.8801C66.2537 84.1769 65.5871 84.2541 64.7717 84.0926C63.9537 83.9305 63.0043 83.5312 61.9403 82.8996C59.8126 81.6365 57.281 79.4774 54.509 76.5791C48.9685 70.7861 42.514 62.0895 36.4656 51.8621C30.4171 41.6347 25.9295 31.8295 23.5608 24.2487C22.3757 20.4559 21.7262 17.2361 21.6696 14.8056C21.6413 13.5903 21.7617 12.588 22.027 11.8154C22.2914 11.0452 22.6932 10.5202 23.2198 10.2234Z" stroke="#A9CAB9" stroke-width="0.6"/>
<path opacity="0.206897" d="M26.5907 8.16876C27.1423 7.91766 27.8135 7.89757 28.6114 8.12785C29.4119 8.35887 30.322 8.83746 31.3254 9.55714C33.3322 10.9964 35.6613 13.3625 38.1639 16.4856C43.1662 22.7279 48.8195 31.9405 53.9319 42.6436C59.0442 53.3466 62.6393 63.4962 64.3222 71.2496C65.1642 75.1287 65.5237 78.3914 65.3632 80.8173C65.2829 82.0303 65.0734 83.0186 64.7402 83.7656C64.408 84.5104 63.9608 84.9995 63.4092 85.2506C62.8576 85.5017 62.1863 85.5218 61.3884 85.2915C60.588 85.0605 59.6779 84.5819 58.6745 83.8622C56.6677 82.4229 54.3386 80.0568 51.836 76.9337C46.8337 70.6914 41.1803 61.4788 36.068 50.7758C30.9556 40.0727 27.3605 29.9231 25.6777 22.1697C24.8357 18.2907 24.4761 15.0279 24.6367 12.602C24.717 11.389 24.9264 10.4008 25.2597 9.65368C25.5918 8.90896 26.0391 8.41985 26.5907 8.16876Z" stroke="#A9CAB9" stroke-width="0.6"/>
<path opacity="0.241379" d="M30.1018 6.40742C31.2497 5.99952 32.8023 6.56978 34.6951 8.19328C36.5657 9.79774 38.6746 12.353 40.8889 15.677C45.3147 22.3211 50.1241 31.9796 54.2614 43.0768C58.3987 54.174 61.074 64.5908 62.0583 72.4578C62.5507 76.3937 62.6176 79.6744 62.2411 82.0773C61.8601 84.5088 61.0462 85.9199 59.8983 86.3278C58.7503 86.7357 57.1977 86.1654 55.3049 84.5419C53.4344 82.9375 51.3255 80.3822 49.1112 77.0582C44.6853 70.4141 39.876 60.7556 35.7386 49.6584C31.6013 38.5612 28.926 28.1444 27.9418 20.2774C27.4493 16.3416 27.3824 13.0608 27.7589 10.6579C28.1399 8.22645 28.9538 6.81532 30.1018 6.40742Z" stroke="#A9CAB9" stroke-width="0.6"/>
<path opacity="0.275862" d="M33.7257 4.95055C34.9063 4.64174 36.4022 5.34226 38.1426 7.1204C39.8627 8.87785 41.7354 11.6027 43.6445 15.1025C47.4603 22.0978 51.3891 32.1286 54.5199 43.5356C57.6508 54.9425 59.3859 65.5472 59.664 73.4679C59.8032 77.4307 59.577 80.7046 58.9874 83.0662C58.3909 85.4557 57.4542 86.7925 56.2736 87.1013C55.093 87.4102 53.5971 86.7096 51.8567 84.9315C50.1366 83.174 48.2638 80.4492 46.3548 76.9494C42.539 69.9541 38.6102 59.9233 35.4794 48.5163C32.3485 37.1093 30.6134 26.5046 30.3352 18.584C30.1961 14.6212 30.4223 11.3473 31.0119 8.98568C31.6084 6.59623 32.5451 5.25937 33.7257 4.95055Z" stroke="#A9CAB9" stroke-width="0.6"/>
<path opacity="0.310345" d="M37.4359 3.8061C38.6399 3.59883 40.0677 4.42422 41.6426 6.3435C43.1992 8.24057 44.8215 11.1144 46.4109 14.7632C49.5876 22.0565 52.6059 32.3834 54.7064 44.0133C56.807 55.6432 57.5887 66.3551 57.1587 74.2692C56.9436 78.2287 56.4259 81.4708 55.6278 83.7732C54.8203 86.1026 53.7678 87.355 52.5637 87.5622C51.3597 87.7695 49.9319 86.9441 48.357 85.0248C46.8004 83.1277 45.1781 80.254 43.5887 76.6051C40.412 69.3118 37.3937 58.9849 35.2932 47.355C33.1926 35.7251 32.4109 25.0132 32.8409 17.0991C33.056 13.1396 33.5737 9.89749 34.3718 7.59507C35.1793 5.2657 36.2318 4.01336 37.4359 3.8061Z" stroke="#A9CAB9" stroke-width="0.6"/>
<path opacity="0.344828" d="M41.2035 2.98023C42.4217 2.87618 43.7704 3.82007 45.1678 5.86592C46.5492 7.88819 47.9087 10.889 49.1663 14.6592C51.6798 22.195 53.7646 32.7394 54.8189 44.5037C55.8732 56.268 55.6956 67.0056 54.5607 74.853C53.9929 78.7791 53.1878 81.9648 52.1871 84.1905C51.1748 86.4422 50.0145 87.6004 48.7962 87.7045C47.578 87.8085 46.2293 86.8646 44.8319 84.8188C43.4505 82.7965 42.091 79.7956 40.8334 76.0255C38.3199 68.4897 36.2351 57.9453 35.1808 46.181C34.1265 34.4167 34.3041 23.679 35.439 15.8317C36.0068 11.9056 36.812 8.71985 37.8126 6.49414C38.8249 4.24247 39.9852 3.08428 41.2035 2.98023Z" stroke="#A9CAB9" stroke-width="0.6"/>
<path opacity="0.37931" d="M44.9999 2.47622C46.2228 2.47622 47.4821 3.53133 48.6916 5.68826C49.8871 7.82035 50.9736 10.9254 51.8897 14.7883C53.7209 22.5092 54.8564 33.1908 54.8564 45.0001C54.8564 56.8094 53.7209 67.491 51.8897 75.2119C50.9736 79.0748 49.8871 82.1798 48.6916 84.3119C47.4821 86.4689 46.2228 87.524 44.9999 87.524C43.7769 87.524 42.5176 86.4689 41.3081 84.3119C40.1126 82.1798 39.0261 79.0748 38.11 75.2119C36.2788 67.491 35.1433 56.8094 35.1433 45.0001C35.1433 33.1908 36.2788 22.5092 38.11 14.7883C39.0261 10.9254 40.1126 7.82035 41.3081 5.68826C42.5176 3.53133 43.7769 2.47622 44.9999 2.47622Z" stroke="#A9CAB9" stroke-width="0.6"/>
<path opacity="0.413793" d="M48.7961 2.29598C50.0143 2.40003 51.1746 3.55822 52.187 5.80989C53.1876 8.03561 53.9927 11.2213 54.5605 15.1474C55.6955 22.9948 55.873 33.7324 54.8187 45.4967C53.7645 57.2611 51.6796 67.8055 49.1661 75.3412C47.9086 79.1114 46.549 82.1122 45.1677 84.1345C43.7702 86.1804 42.4216 87.1243 41.2033 87.0202C39.9851 86.9162 38.8248 85.758 37.8125 83.5063C36.8118 81.2806 36.0067 78.0949 35.4389 74.1688C34.304 66.3214 34.1264 55.5838 35.1807 43.8194C36.235 32.0551 38.3198 21.5107 40.8333 13.975C42.0908 10.2048 43.4504 7.20395 44.8317 5.18168C46.2292 3.13583 47.5779 2.19193 48.7961 2.29598Z" stroke="#A9CAB9" stroke-width="0.6"/>
<path opacity="0.448276" d="M52.5638 2.43825C53.7679 2.64551 54.8204 3.89785 55.6279 6.22722C56.426 8.52964 56.9437 11.7718 57.1588 15.7313C57.5888 23.6454 56.8071 34.3573 54.7065 45.9872C52.606 57.6171 49.5877 67.944 46.411 75.2372C44.8216 78.8861 43.1993 81.7599 41.6427 83.657C40.0678 85.5762 38.64 86.4016 37.436 86.1944C36.2319 85.9871 35.1794 84.7348 34.3719 82.4054C33.5738 80.103 33.0561 76.8608 32.841 72.9013C32.411 64.9872 33.1927 54.2753 35.2933 42.6454C37.3938 31.0155 40.4121 20.6886 43.5888 13.3954C45.1782 9.7465 46.8005 6.87272 48.3571 4.97565C49.932 3.05637 51.3598 2.23098 52.5638 2.43825Z" stroke="#A9CAB9" stroke-width="0.6"/>
<path opacity="0.482759" d="M56.2738 2.89914C57.4543 3.20795 58.391 4.54482 58.9876 6.93426C59.5771 9.2959 59.8034 12.5698 59.6642 16.5326C59.386 24.4532 57.6509 35.0579 54.5201 46.4649C51.3892 57.8718 47.4605 67.9027 43.6447 74.898C41.7356 78.3978 39.8629 81.1226 38.1427 82.8801C36.4024 84.6582 34.9064 85.3587 33.7259 85.0499C32.5453 84.7411 31.6086 83.4042 31.012 81.0148C30.4225 78.6532 30.1962 75.3792 30.3354 71.4165C30.6136 63.4958 32.3487 52.8911 35.4795 41.4842C38.6104 30.0772 42.5391 20.0464 46.3549 13.0511C48.264 9.5513 50.1367 6.82644 51.8569 5.06899C53.5973 3.29084 55.0932 2.59032 56.2738 2.89914Z" stroke="#A9CAB9" stroke-width="0.6"/>
<path opacity="0.517241" d="M59.898 3.67244C61.046 4.08034 61.8599 5.49146 62.2408 7.92288C62.6173 10.3258 62.5504 13.6066 62.058 17.5425C61.0737 25.4094 58.3985 35.8262 54.2611 46.9234C50.1238 58.0206 45.3144 67.6791 40.8886 74.3232C38.6743 77.6473 36.5654 80.2025 34.6949 81.8069C32.8021 83.4304 31.2495 84.0007 30.1015 83.5928C28.9535 83.1849 28.1397 81.7738 27.7587 79.3424C27.3822 76.9395 27.4491 73.6587 27.9415 69.7228C28.9258 61.8558 31.601 51.439 35.7384 40.3418C39.8757 29.2446 44.6851 19.5861 49.1109 12.9421C51.3252 9.61798 53.4341 7.06276 55.3047 5.4583C57.1974 3.83479 58.75 3.26454 59.898 3.67244Z" stroke="#A9CAB9" stroke-width="0.6"/>
<path opacity="0.551724" d="M63.4092 4.74985C63.9608 5.00095 64.408 5.49006 64.7402 6.23478C65.0734 6.98187 65.2829 7.97011 65.3632 9.18315C65.5237 11.609 65.1641 14.8718 64.3222 18.7508C62.6393 26.5042 59.0442 36.6538 53.9319 47.3569C48.8195 58.0599 43.1661 67.2725 38.1639 73.5148C35.6612 76.6379 33.3322 79.004 31.3254 80.4433C30.3219 81.163 29.4118 81.6416 28.6114 81.8726C27.8135 82.1029 27.1422 82.0828 26.5907 81.8317C26.0391 81.5806 25.5918 81.0915 25.2596 80.3467C24.9264 79.5996 24.717 78.6114 24.6367 77.3984C24.4761 74.9725 24.8357 71.7098 25.6776 67.8307C27.3605 60.0773 30.9556 49.9277 36.0679 39.2247C41.1803 28.5216 46.8337 19.309 51.8359 13.0667C54.3386 9.94364 56.6677 7.5775 58.6744 6.13824C59.6779 5.41856 60.588 4.93997 61.3884 4.70895C62.1863 4.47867 62.8576 4.49876 63.4092 4.74985Z" stroke="#A9CAB9" stroke-width="0.6"/>
<path opacity="0.586207" d="M66.7801 6.12038C67.3068 6.41722 67.7086 6.94221 67.973 7.71238C68.2382 8.48498 68.3587 9.48731 68.3304 10.7026C68.2737 13.1331 67.6242 16.3529 66.4391 20.1457C64.0704 27.7265 59.5828 37.5317 53.5344 47.7591C47.4859 57.9865 41.0315 66.6831 35.4909 72.4761C32.7189 75.3744 30.1874 77.5335 28.0596 78.7966C26.9957 79.4282 26.0463 79.8275 25.2283 79.9896C24.4128 80.1511 23.7462 80.0739 23.2196 79.7771C22.6929 79.4802 22.2911 78.9552 22.0267 78.1851C21.7615 77.4125 21.641 76.4101 21.6693 75.1948C21.726 72.7644 22.3755 69.5445 23.5606 65.7518C25.9293 58.171 30.4169 48.3658 36.4653 38.1384C42.5138 27.911 48.9682 19.2143 54.5088 13.4213C57.2808 10.523 59.8123 8.36396 61.9401 7.10085C63.004 6.46925 63.9534 6.06991 64.7714 5.90788C65.5869 5.74635 66.2535 5.82355 66.7801 6.12038Z" stroke="#A9CAB9" stroke-width="0.6"/>
<path opacity="0.62069" d="M69.9855 7.77146C70.4831 8.11166 70.8365 8.6685 71.0311 9.45826C71.2264 10.2505 71.2569 11.2593 71.1202 12.4677C70.8468 14.8842 69.9122 18.0366 68.393 21.7142C65.3565 29.0647 60.0105 38.4509 53.0719 48.1248C46.1334 57.7987 38.927 65.9132 32.8902 71.2129C29.87 73.8644 27.1552 75.7999 24.9227 76.8772C23.8063 77.4159 22.8248 77.733 21.9955 77.8248C21.1687 77.9163 20.5119 77.7826 20.0142 77.4424C19.5165 77.1022 19.1632 76.5454 18.9685 75.7556C18.7732 74.9634 18.7427 73.9546 18.8794 72.7462C19.1529 70.3297 20.0874 67.1773 21.6066 63.4997C24.6431 56.1492 29.9891 46.763 36.9277 37.0891C43.8663 27.4151 51.0726 19.3007 57.1094 14.001C60.1297 11.3495 62.8444 9.41401 65.077 8.33669C66.1933 7.79798 67.1748 7.48093 68.0042 7.38911C68.8309 7.29758 69.4878 7.43125 69.9855 7.77146Z" stroke="#A9CAB9" stroke-width="0.6"/>
<path opacity="0.655172" d="M73.0013 9.68737C73.4663 10.0683 73.7685 10.6527 73.8919 11.456C74.0157 12.2618 73.956 13.2694 73.7119 14.4617C73.2238 16.8459 72.0113 19.9069 70.1695 23.4413C66.4882 30.5057 60.3246 39.4014 52.5487 48.4482C44.7728 57.495 36.8693 64.9655 30.3822 69.7315C27.1367 72.1159 24.2593 73.8132 21.939 74.6965C20.7787 75.1382 19.7726 75.3706 18.9382 75.3915C18.1064 75.4123 17.4644 75.2232 16.9994 74.8423C16.5344 74.4615 16.2322 73.877 16.1088 73.0737C15.985 72.2679 16.0447 71.2603 16.2887 70.068C16.7769 67.6838 17.9894 64.6228 19.8312 61.0884C23.5124 54.0241 29.6761 45.1283 37.452 36.0815C45.2279 27.0347 53.1314 19.5642 59.6185 14.7982C62.864 12.4138 65.7414 10.7165 68.0617 9.8332C69.222 9.39149 70.2281 9.15915 71.0625 9.13826C71.8943 9.11742 72.5363 9.30648 73.0013 9.68737Z" stroke="#A9CAB9" stroke-width="0.6"/>
<path opacity="0.689655" d="M75.8033 11.8514C76.232 12.27 76.4809 12.8775 76.5321 13.6883C76.5835 14.5015 76.4341 15.5003 76.0845 16.6673C75.3853 19.0011 73.9041 21.9474 71.7537 25.3117C67.4557 32.0361 60.5212 40.3737 51.9671 48.7245C43.4131 57.0753 34.8727 63.8451 27.9846 68.041C24.5385 70.1403 21.5204 71.5863 19.1299 72.2689C17.9345 72.6102 16.9114 72.7561 16.0783 72.7059C15.2478 72.6559 14.6255 72.4129 14.1968 71.9944C13.768 71.5758 13.5191 70.9683 13.4679 70.1575C13.4165 69.3442 13.5659 68.3454 13.9155 67.1784C14.6147 64.8447 16.0959 61.8983 18.2463 58.5341C22.5443 51.8096 29.4788 43.4721 38.0329 35.1213C46.5869 26.7704 55.1274 20.0007 62.0154 15.8047C65.4616 13.7055 68.4796 12.2594 70.8701 11.5768C72.0656 11.2355 73.0886 11.0897 73.9217 11.1398C74.7522 11.1898 75.3745 11.4328 75.8033 11.8514Z" stroke="#A9CAB9" stroke-width="0.6"/>
<path opacity="0.724138" d="M78.3712 14.2444C78.7606 14.6975 78.9543 15.3234 78.9329 16.1355C78.9115 16.9501 78.6735 17.9324 78.221 19.0653C77.3161 21.3308 75.5773 24.14 73.1348 27.3086C68.2526 33.6419 60.6001 41.3578 51.333 48.9491C42.0659 56.5403 32.9534 62.5578 25.7168 66.1518C22.0963 67.9498 18.9605 69.1337 16.518 69.6103C15.2966 69.8486 14.2643 69.9068 13.4389 69.786C12.616 69.6655 12.0181 69.3706 11.6288 68.9175C11.2394 68.4645 11.0457 67.8385 11.067 67.0265C11.0885 66.2119 11.3265 65.2296 11.779 64.0967C12.6839 61.8312 14.4226 59.022 16.8652 55.8534C21.7473 49.5201 29.3999 41.8042 38.667 34.2129C47.9341 26.6216 57.0465 20.6042 64.2831 17.0102C67.9036 15.2121 71.0394 14.0283 73.482 13.5517C74.7034 13.3134 75.7357 13.2551 76.5611 13.376C77.384 13.4965 77.9818 13.7914 78.3712 14.2444Z" stroke="#A9CAB9" stroke-width="0.6"/>
<path opacity="0.758621" d="M80.6849 16.8457C81.032 17.3297 81.1692 17.9694 81.0754 18.7766C80.9814 19.5862 80.6566 20.5445 80.1046 21.6347C79.0008 23.8148 77.0178 26.4655 74.3016 29.4142C68.8725 35.3081 60.5601 42.3436 50.6504 49.1176C40.7408 55.8915 31.1257 61.1108 23.5956 64.0754C19.8283 65.5587 16.5986 66.4712 14.1227 66.7382C12.8845 66.8717 11.8509 66.8419 11.0395 66.6512C10.2304 66.4612 9.66156 66.1166 9.31446 65.6327C8.96736 65.1487 8.83023 64.509 8.92399 63.7018C9.01804 62.8922 9.34284 61.9338 9.89483 60.8436C10.9986 58.6636 12.9816 56.0129 15.6978 53.0642C21.1269 47.1703 29.4393 40.1348 39.349 33.3608C49.2586 26.5869 58.8737 21.3676 66.4038 18.4029C70.1711 16.9197 73.4008 16.0072 75.8767 15.7402C77.1149 15.6067 78.1485 15.6365 78.9599 15.8271C79.769 16.0172 80.3378 16.3618 80.6849 16.8457Z" stroke="#A9CAB9" stroke-width="0.6"/>
<path opacity="0.793103" d="M82.7277 19.6326C83.0299 20.1438 83.1095 20.7924 82.9441 21.5885C82.7781 22.3871 82.3689 23.3142 81.7217 24.3533C80.4274 26.4313 78.2152 28.9033 75.246 31.6097C69.3113 37.0193 60.4023 43.3209 49.9255 49.2259C39.4488 55.131 29.4042 59.5124 21.638 61.8251C17.7525 62.9821 14.4535 63.6164 11.963 63.6717C10.7175 63.6994 9.69051 63.5817 8.89915 63.3228C8.11013 63.0646 7.57455 62.673 7.27226 62.1619C6.96997 61.6508 6.89039 61.0022 7.05586 60.206C7.22183 59.4075 7.63097 58.4803 8.27824 57.4412C9.57254 55.3632 11.7847 52.8913 14.7539 50.1848C20.6886 44.7752 29.5976 38.4736 40.0744 32.5686C50.5512 26.6635 60.5957 22.2821 68.362 19.9694C72.2475 18.8124 75.5464 18.1781 78.0369 18.1228C79.2824 18.0951 80.3094 18.2128 81.1008 18.4717C81.8898 18.7299 82.4254 19.1215 82.7277 19.6326Z" stroke="#A9CAB9" stroke-width="0.6"/>
<path opacity="0.827586" d="M84.4831 22.5814C84.7384 23.1159 84.7599 23.7685 84.524 24.5476C84.2873 25.3289 83.797 26.2178 83.0594 27.1979C81.5844 29.1579 79.1598 31.4324 75.9603 33.8759C69.5651 38.7601 60.1273 44.2797 49.1632 49.2709C38.199 54.2621 27.8014 57.7722 19.8581 59.4153C15.884 60.2374 12.5408 60.5886 10.0548 60.4318C8.8115 60.3534 7.79884 60.1488 7.03361 59.8235C6.27062 59.4991 5.77235 59.0636 5.51706 58.5291C5.26177 57.9947 5.24029 57.3421 5.47623 56.563C5.71285 55.7816 6.20323 54.8928 6.94084 53.9126C8.4158 51.9526 10.8404 49.6782 14.0399 47.2346C20.4351 42.3505 29.8729 36.8309 40.837 31.8397C51.8012 26.8484 62.1988 23.3384 70.1421 21.6952C74.1162 20.8732 77.4594 20.5219 79.9454 20.6788C81.1887 20.7572 82.2014 20.9618 82.9666 21.2871C83.7296 21.6114 84.2278 22.047 84.4831 22.5814Z" stroke="#A9CAB9" stroke-width="0.6"/>
<path opacity="0.862069" d="M85.9378 25.6673C86.1442 26.221 86.1075 26.8727 85.8029 27.6287C85.4974 28.387 84.9295 29.2307 84.1072 30.1445C82.4628 31.9716 79.8443 34.0312 76.4387 36.1932C69.6317 40.5147 59.737 45.2103 48.3689 49.2497C37.0008 53.289 26.3293 55.9011 18.2694 56.8622C14.237 57.343 10.8751 57.4084 8.41239 57.0406C7.18079 56.8567 6.19021 56.5667 5.45694 56.1775C4.72579 55.7895 4.26856 55.3134 4.06211 54.7596C3.85566 54.2059 3.89241 53.5542 4.19701 52.7981C4.50249 52.0399 5.07037 51.1961 5.89273 50.2824C7.53713 48.4553 10.1556 46.3957 13.5612 44.2337C20.3682 39.9122 30.2629 35.2166 41.631 31.1772C52.9991 27.1378 63.6706 24.5258 71.7305 23.5647C75.7629 23.0839 79.1248 23.0185 81.5875 23.3862C82.8191 23.5702 83.8097 23.8602 84.543 24.2493C85.2741 24.6374 85.7313 25.1135 85.9378 25.6673Z" stroke="#A9CAB9" stroke-width="0.6"/>
<path opacity="0.896552" d="M87.081 28.8637C87.2372 29.4325 87.1425 30.0784 86.7715 30.8057C86.3995 31.535 85.7585 32.3273 84.8576 33.1676C83.0563 34.8479 80.2639 36.6769 76.6782 38.541C69.5112 42.2669 59.2348 46.1028 47.5493 49.1595C35.8638 52.2163 24.9996 53.9104 16.8845 54.1821C12.8245 54.3179 9.46944 54.0971 7.04884 53.5211C5.83829 53.2331 4.87735 52.8599 4.18161 52.4098C3.48787 51.9611 3.07509 51.4479 2.91895 50.8791C2.76282 50.3102 2.8575 49.6644 3.22845 48.9371C3.60046 48.2077 4.24152 47.4155 5.14237 46.5751C6.9437 44.8948 9.73613 43.0659 13.3218 41.2018C20.4888 37.4758 30.7652 33.64 42.4507 30.5832C54.1362 27.5265 65.0004 25.8323 73.1155 25.5607C77.1755 25.4248 80.5306 25.6457 82.9512 26.2216C84.1617 26.5096 85.1226 26.8828 85.8184 27.3329C86.5121 27.7817 86.9249 28.2948 87.081 28.8637Z" stroke="#A9CAB9" stroke-width="0.6"/>
<path opacity="0.931035" d="M87.9042 32.1442C88.0089 32.7239 87.8571 33.3591 87.4226 34.052C86.9869 34.747 86.2775 35.4817 85.305 36.2422C83.3605 37.7629 80.4154 39.3473 76.6769 40.8993C69.2045 44.0012 58.6247 46.9482 46.7107 48.999C34.7967 51.0499 23.8225 51.8132 15.714 51.3933C11.6573 51.1832 8.33464 50.6777 5.97461 49.898C4.79435 49.5081 3.87036 49.0545 3.21745 48.547C2.5664 48.0409 2.20114 47.4947 2.09643 46.915C1.99173 46.3352 2.14361 45.7 2.57808 45.0071C3.0138 44.3121 3.72316 43.5774 4.69564 42.8169C6.64017 41.2962 9.58532 39.7118 13.3238 38.1598C20.7962 35.0579 31.376 32.111 43.29 30.0601C55.204 28.0093 66.1781 27.2459 74.2867 27.6658C78.3434 27.8759 81.666 28.3814 84.0261 29.1611C85.2063 29.551 86.1303 30.0046 86.7832 30.5122C87.4343 31.0183 87.7995 31.5645 87.9042 32.1442Z" stroke="#A9CAB9" stroke-width="0.6"/>
<path opacity="0.965517" d="M88.3999 35.481C88.4525 36.0673 88.2445 36.6871 87.7498 37.3404C87.2537 37.9957 86.4815 38.6672 85.4448 39.3421C83.3718 40.6916 80.2964 42.0194 76.4336 43.2474C68.7126 45.7017 57.91 47.7373 45.8582 48.7666C33.8064 49.796 22.8058 49.6226 14.7656 48.5144C10.7431 47.96 7.47817 47.1737 5.19669 46.1961C4.05571 45.7072 3.17572 45.1768 2.57061 44.6156C1.96722 44.056 1.65218 43.4809 1.59964 42.8947C1.54711 42.3084 1.75505 41.6886 2.24974 41.0352C2.74584 40.38 3.51811 39.7084 4.5548 39.0335C6.62773 37.6841 9.70316 36.3563 13.566 35.1283C21.2869 32.6739 32.0896 30.6384 44.1414 29.6091C56.1931 28.5797 67.1937 28.753 75.2339 29.8612C79.2565 30.4157 82.5214 31.202 84.8029 32.1795C85.9439 32.6684 86.8238 33.1989 87.429 33.7601C88.0324 34.3196 88.3474 34.8948 88.3999 35.481Z" stroke="#A9CAB9" stroke-width="0.6"/>
<path d="M88.5657 38.8459C88.5657 39.4343 88.3033 40.034 87.7521 40.6428C87.1994 41.2533 86.3701 41.8566 85.2771 42.4408C83.0916 43.6087 79.9093 44.6698 75.9515 45.5644C68.0408 47.3525 57.0976 48.4612 44.9998 48.4612C32.9019 48.4612 21.9587 47.3525 14.048 45.5644C10.0902 44.6698 6.90792 43.6087 4.72239 42.4408C3.62939 41.8566 2.8001 41.2533 2.24739 40.6428C1.69625 40.034 1.43379 39.4343 1.43379 38.8459C1.43379 38.2574 1.69625 37.6577 2.24739 37.0489C2.8001 36.4384 3.62939 35.8351 4.72239 35.251C6.90792 34.083 10.0902 33.0219 14.048 32.1273C21.9587 30.3392 32.9019 29.2305 44.9998 29.2305C57.0976 29.2305 68.0408 30.3392 75.9515 32.1273C79.9093 33.0219 83.0916 34.083 85.2771 35.251C86.3701 35.8351 87.1994 36.4384 87.7521 37.0489C88.3033 37.6577 88.5657 38.2574 88.5657 38.8459Z" stroke="#A9CAB9" stroke-width="0.6"/>
</svg>
