<svg width="226" height="241" viewBox="0 0 226 241" fill="none" xmlns="http://www.w3.org/2000/svg">
<path d="M-17.1346 61.9591C-34.2842 -0.185523 29.2443 -6.5111 75.0908 12.2534C101.84 21.9037 119.407 -8.10808 152.544 3.86923C185.681 15.8465 145.957 53.5751 196.661 72.9384C247.365 92.3017 222.611 178.938 178.295 179.936C133.979 180.934 146.156 195.506 101.84 228.843C57.5241 262.18 -17.1345 215.868 1.43033 166.96C19.9951 118.053 1.43013 129.232 -17.1346 61.9591Z" stroke="#C85A16" stroke-width="0.8"/>
<path d="M78.2441 110.323C76.2654 104.404 85.5336 94.8553 92.9861 98.9304C99.8105 102.662 106.76 100.145 111.351 101.809C123.438 106.189 118.992 108.507 124.396 113.709C130.971 120.038 134.108 136.613 118.992 136.613C106.56 136.613 110.28 142.651 100.971 145.326C91.6617 148.002 81.1044 143.448 81.1044 131.458C81.1044 126.955 81.5398 120.181 78.2441 110.323Z" stroke="#C85A16" stroke-width="0.8"/>
<path d="M-8.46493 66.054C-24.2353 9.02078 34.3604 2.40219 76.7165 19.8312C101.655 28.9435 118.256 1.43129 148.798 12.471C180.022 23.7576 143.504 58.2671 190.09 76.3429C236.782 94.5214 214.564 174.788 172.903 175.695C131.485 176.603 142.894 190.399 101.76 220.949C60.6264 251.498 -8.20481 208.982 8.67229 163.431C25.5494 118.56 8.71168 128.107 -8.46493 66.054Z" stroke="#C85A16" stroke-width="0.8"/>
<path d="M0.204154 70.1489C-14.1871 18.2271 39.4759 11.3155 78.3416 27.4092C101.468 35.9834 117.105 10.9707 145.052 21.0728C174.362 31.6687 141.051 62.9591 183.519 79.7475C226.199 96.7411 206.517 170.639 167.51 171.455C128.991 172.272 139.63 185.293 101.679 213.055C63.7281 240.817 0.724285 202.097 15.9137 159.902C31.1031 119.068 15.9927 126.983 0.204154 70.1489Z" stroke="#C85A16" stroke-width="0.8"/>
<path d="M8.87463 74.2441C-4.13745 27.4337 44.5928 20.2291 79.9682 34.9873C101.283 43.0235 115.955 20.5104 141.306 29.6749C168.703 39.5801 138.6 67.6513 176.949 83.1523C215.618 98.961 198.471 166.489 162.119 167.215C126.498 167.941 136.369 180.186 101.6 205.161C66.8312 230.135 9.65478 195.212 23.1565 156.373C36.6581 119.576 23.275 125.858 8.87463 74.2441Z" stroke="#C85A16" stroke-width="0.8"/>
<path d="M17.5441 78.3396C5.91117 36.6407 49.7086 29.1431 81.5937 42.5659C101.098 50.064 114.803 30.0504 137.56 38.2773C163.043 47.4919 136.147 72.344 170.378 86.5576C205.035 101.181 190.424 162.34 156.726 162.976C124.004 163.611 133.106 175.08 101.52 197.267C69.9332 219.454 18.5842 188.327 30.3982 152.844C42.2122 120.084 30.5564 124.734 17.5441 78.3396Z" stroke="#C85A16" stroke-width="0.8"/>
<path d="M26.214 82.6427C15.9603 46.0552 54.8249 38.2645 83.2196 50.352C100.912 57.312 113.653 39.798 133.815 47.0873C157.384 55.6111 133.695 77.2441 163.807 90.1703C194.453 103.609 182.377 158.399 151.334 158.943C121.511 159.488 129.843 170.181 101.44 189.581C73.0358 208.981 27.5142 181.649 37.6404 149.523C47.7667 120.799 37.8382 123.818 26.214 82.6427Z" stroke="#C85A16" stroke-width="0.8"/>
<path d="M34.8838 87.1911C26.0092 55.715 59.9412 47.6313 84.8455 58.3834C100.727 64.8054 112.502 49.7909 130.069 56.1426C151.724 63.9757 131.242 82.3896 157.237 94.0283C183.871 106.282 174.331 154.703 145.942 155.157C119.017 155.61 126.581 165.528 101.36 182.14C76.1382 198.753 36.444 175.218 44.8826 146.447C53.3211 121.76 45.1199 123.147 34.8838 87.1911Z" stroke="#C85A16" stroke-width="0.8"/>
<path d="M43.5541 91.7531C36.0587 65.3884 65.0578 57.0118 86.4718 66.4285C100.542 72.3124 111.352 59.7974 126.324 65.2115C146.065 72.354 128.791 87.5487 150.667 97.9C173.289 108.969 166.284 151.021 140.55 151.384C116.524 151.747 123.319 160.888 101.28 174.713C79.2411 188.538 45.3743 168.799 52.1251 143.385C58.876 122.735 52.4021 122.489 43.5541 91.7531Z" stroke="#C85A16" stroke-width="0.8"/>
<path d="M52.2247 96.3349C46.1085 75.0817 70.1749 66.412 88.0985 74.4933C100.357 79.8391 110.202 69.8237 122.579 74.3002C140.407 80.7519 126.339 92.7276 144.097 101.791C162.707 111.676 158.238 147.358 135.159 147.63C114.031 147.902 120.057 156.268 101.201 167.306C82.3444 178.343 54.3049 162.401 59.3681 140.342C64.4312 123.729 59.6846 121.852 52.2247 96.3349Z" stroke="#C85A16" stroke-width="0.8"/>
<path d="M60.8953 100.946C56.1583 84.8038 75.2919 75.8411 89.7252 82.587C100.172 87.3948 109.052 79.8789 118.834 83.4178C134.748 89.1789 123.888 97.9354 137.527 105.712C152.126 114.411 150.192 143.724 129.767 143.906C111.538 144.087 116.796 151.677 101.122 159.927C85.4476 168.178 63.2356 156.031 66.611 137.329C69.9864 124.753 66.9672 121.243 60.8953 100.946Z" stroke="#C85A16" stroke-width="0.8"/>
<path d="M69.5682 105.6C66.2103 94.5698 80.4112 85.3141 91.3541 90.7246C99.9899 94.9943 107.905 89.978 115.091 92.5793C129.092 97.6497 121.439 103.187 130.96 109.676C141.547 117.191 142.149 140.134 124.378 140.225C109.048 140.316 113.536 147.13 101.045 152.593C88.5532 158.056 72.1685 149.705 73.8562 134.359C75.5439 125.82 74.252 120.678 69.5682 105.6Z" stroke="#C85A16" stroke-width="0.8"/>
</svg>
