<svg width="210" height="366" viewBox="0 0 210 366" fill="none" xmlns="http://www.w3.org/2000/svg">
<g opacity="0.1">
<path d="M-8.1212 22.5492C-17.6082 -2.13415 -64.5426 -14.3233 -56.7975 34.8235C-55.5275 42.8819 -55.3998 56.7578 -56.7975 73.6476C-58.0778 89.1196 -83.1427 97.5854 -90.8368 117.577C-102.903 148.93 -57.7873 170.783 -64.9669 187.264C-74.3703 208.851 -103.163 218.217 -119.089 230.027C-134.082 241.145 -143.632 258.984 -147.299 277.324C-153.732 309.5 -142.058 343.22 -109.899 344.898C-93.8003 345.737 -72.5684 338.548 -45.9049 319.115C-33.9836 310.427 -23.4716 303.267 -14.129 297.477C9.91701 282.576 3.45216 317.824 32.0452 319.115C48.3374 319.851 65.3537 289.421 78.2351 305.653C87.3945 317.194 97.9053 331.198 112.916 345.595C139.277 370.879 172.235 374.602 176.897 338.517C179.098 321.482 174.993 295.577 160.911 258.882C151.9 235.4 174.314 236.227 176.897 206.135C179.48 176.043 158.361 162.166 173.649 149.711L173.955 149.461C185.607 139.969 198.035 129.846 204.822 110.401C210.668 93.6519 210.11 77.0626 204.822 64.3154C199.163 50.6731 188.087 41.4315 173.649 41.1036C159.162 40.7747 141.289 49.4199 122.106 71.5983C109.459 86.2209 100.894 52.1963 78.2351 55.6745C55.5764 59.1526 52.4271 91.982 38.8531 82.4602C15.274 65.92 2.98972 51.4578 -8.1212 22.5492Z" stroke="#A9CAB9"/>
<path d="M37.6468 157.191C36.203 153.402 29.4744 154.397 29.1339 158.503C28.7462 163.179 31.1097 169.272 30.8365 173.959C30.309 183.009 27.112 185.585 20.7463 190.355C18.4646 192.061 17.0112 194.8 16.4532 197.615C15.4742 202.555 17.2509 207.732 22.145 207.989C24.5949 208.118 27.8261 207.014 31.8839 204.031C33.6982 202.697 35.298 201.598 36.7197 200.709C42.9092 196.53 48.6697 199.805 50.7762 201.964C52.1702 203.736 53.7698 205.886 56.0541 208.096C60.0659 211.978 66.1411 211.469 65.7912 207.01C65.2968 200.709 54.5404 177.192 65.7912 173.092C71.0173 171.187 70.8457 166.872 70.0409 164.915C69.1797 162.821 67.4941 161.402 65.2968 161.352C63.0921 161.301 59.4398 164.915 57.4528 166.033C50.1179 170.16 43.5731 172.294 37.6468 157.191Z" stroke="#A9CAB9"/>
<path d="M-48.9496 45.5761C-55.8235 0.835486 -12.9331 11.9884 -4.23549 34.6167C6.41309 62.281 18.1856 75.2465 40.3067 89.9227C52.7477 98.5354 55.7415 68.5598 76.4888 65.3018C97.2361 62.0437 105.163 92.9195 116.77 79.6179C134.424 59.4441 150.839 51.7066 164.099 52.1948C177.273 52.5814 187.373 61.1311 192.475 73.684C197.24 85.4225 197.633 100.656 192.076 115.981C184.824 134.197 174.35 145.535 163.713 154.806C149.819 166.339 168.904 179.077 166.374 206.473C163.844 233.87 143.221 233.04 151.237 254.23C163.842 287.417 167.431 310.791 165.302 326.13C160.965 358.863 130.798 355.354 106.587 332.299C92.7044 319.149 82.8691 306.428 74.2537 296.116C62.4039 281.429 46.7757 309.214 31.7868 308.664C5.58614 307.624 11.3026 275.647 -10.7238 289.262C-19.3718 294.586 -29.0656 301.123 -40.024 309.022C-64.7295 326.678 -84.2095 332.753 -98.7682 331.543C-128.003 329.889 -138.58 299.085 -132.661 269.698C-129.26 252.899 -120.485 236.568 -106.74 226.376C-91.6702 215.201 -65.1814 206.447 -56.5774 185.99C-50.0325 170.784 -91.13 150.658 -80.1972 121.89C-73.2428 103.458 -50.4817 95.513 -49.2991 81.2253C-48.0119 65.6734 -47.9674 52.9338 -48.9496 45.5761Z" stroke="#A9CAB9"/>
<path d="M-40.7503 56.7818C-46.7427 16.594 -7.95914 26.674 -0.0635757 47.1728C10.1073 73.4993 21.3509 84.926 41.982 97.6907C53.2718 105.366 56.1056 78.343 74.9112 75.3159C93.7168 72.2888 100.993 99.9148 111.544 87.9777C127.643 69.8747 142.577 63.0699 154.59 63.7155C166.48 64.1593 175.589 71.9888 180.128 83.4108C184.363 94.1019 184.59 107.929 179.33 121.779C171.681 138.536 163.336 151.041 153.817 159.986C141.338 170.559 158.361 182.116 155.888 206.726C153.415 231.337 134.612 230.509 141.623 249.337C152.732 278.907 155.8 299.675 153.746 313.267C149.739 342.542 122.408 339.257 100.383 318.507C87.6479 306.648 78.5025 295.252 70.4436 286.203C59.6427 273.108 45.4254 298.156 31.7617 297.795C7.99171 297.009 12.9514 268.407 -7.02314 280.69C-14.964 285.532 -23.8255 291.424 -33.8048 298.507C-56.5165 314.331 -74.2161 319.27 -87.2135 317.696C-113.482 316.072 -122.945 288.285 -117.55 261.783C-114.418 246.58 -106.433 231.812 -93.9548 222.579C-79.7632 212.076 -55.6173 203.963 -47.8254 184.706C-41.9246 170.824 -78.9435 152.493 -69.1604 126.404C-62.9558 109.593 -42.532 102.195 -41.4489 89.1386C-40.274 74.9759 -40.0573 63.4146 -40.7503 56.7818Z" stroke="#A9CAB9"/>
<path d="M-32.9057 67.535C-38.0258 31.7534 -3.28931 40.7972 3.81639 59.2408C13.5254 84.3226 24.2578 94.2525 43.431 105.153C53.5871 111.92 56.2653 87.7504 73.1582 84.9435C90.0511 82.1366 96.6882 106.614 106.199 95.9977C120.769 79.8993 134.244 74.0021 145.029 74.8069C155.653 75.3094 163.785 82.4469 167.767 92.7795C171.479 102.462 171.541 114.933 166.57 127.359C158.513 142.716 152.283 156.429 143.869 165.08C132.784 174.73 147.772 185.148 145.352 207.063C142.931 228.978 125.92 228.148 131.935 244.684C141.566 270.744 144.118 288.983 142.135 300.879C138.453 326.802 113.915 323.73 94.042 305.21C82.4347 294.597 73.9649 284.485 66.45 276.665C56.6814 265.114 43.853 287.517 31.4933 287.343C10.1174 286.807 14.3278 261.477 -3.62572 272.473C-10.8718 276.85 -18.9146 282.118 -27.9304 288.412C-48.6834 302.46 -64.6299 306.284 -76.086 304.339C-99.4287 302.74 -107.793 277.869 -102.912 254.156C-100.046 240.494 -92.8365 227.235 -81.6069 218.927C-68.2714 209.059 -46.4309 201.559 -39.4391 183.432C-34.1735 170.825 -67.1707 154.222 -58.5223 130.717C-53.058 115.466 -34.94 108.588 -33.9547 96.7168C-32.8904 83.892 -32.501 73.4671 -32.9057 67.535Z" stroke="#A9CAB9"/>
<path d="M-24.7102 78.2877C-28.9489 46.9138 1.67894 54.9211 7.98217 71.3092C17.2123 95.1483 27.4146 103.581 45.096 112.616C54.1004 118.473 56.6184 97.1585 71.5686 94.5716C86.5188 91.9848 92.5051 113.312 100.959 104.017C113.973 89.9243 125.966 84.9353 135.503 85.8997C144.843 86.4611 151.984 92.9066 155.402 102.15C158.584 110.823 158.48 121.939 153.807 132.939C145.355 146.898 141.253 161.823 133.958 170.18C124.287 178.909 137.213 188.186 134.85 207.405C132.487 226.623 117.298 225.792 122.306 240.033C130.441 262.584 132.473 278.291 130.565 288.49C127.213 311.06 105.512 308.202 87.8264 291.911C77.3678 282.546 69.5885 273.718 62.6308 267.128C53.9117 257.121 42.495 276.879 31.4614 276.891C12.5173 276.607 15.9709 254.549 0.0703278 264.258C-6.46805 268.17 -13.678 272.814 -21.7142 278.318C-40.4718 290.59 -54.637 293.298 -64.5314 290.982C-84.9066 289.407 -92.1571 267.452 -87.7997 246.529C-85.2037 234.409 -78.7833 222.658 -68.8219 215.276C-56.3659 206.042 -36.8697 199.154 -30.6904 182.157C-26.0692 170.825 -54.9861 155.949 -47.4878 135.03C-42.7736 121.339 -26.9936 114.981 -26.1079 104.294C-25.156 92.8074 -24.5945 83.5189 -24.7102 78.2877Z" stroke="#A9CAB9"/>
<path d="M-16.5175 89.5465C-19.8751 62.6502 6.64325 69.6032 12.1438 83.8992C20.8935 106.441 30.5641 113.358 46.7517 120.508C54.604 125.442 56.9615 107.03 69.9685 104.669C82.9756 102.308 88.3107 120.438 95.7072 112.485C107.164 100.429 117.675 96.3591 125.965 97.481C134.02 98.0999 140.17 103.839 143.024 111.972C145.675 119.617 145.406 129.352 141.031 138.903C132.188 151.431 130.211 167.534 124.035 175.579C115.779 183.365 126.643 191.482 124.337 207.961C122.031 224.44 108.665 223.61 112.667 235.525C119.307 254.515 120.819 267.656 118.986 276.136C115.966 295.303 97.1021 292.664 81.6041 278.639C72.2947 270.543 65.2069 263.018 58.8073 257.673C51.1381 249.233 41.1336 266.3 31.4264 266.5C14.915 266.468 17.6122 247.731 3.76501 256.131C-2.06524 259.569 -8.44189 263.579 -15.4982 268.281C-32.259 278.749 -44.6423 280.335 -52.9752 277.654C-70.3826 276.106 -76.5195 257.117 -72.6857 239.03C-70.3602 228.479 -64.7291 218.263 -56.0363 211.824C-44.4615 203.245 -27.3105 196.984 -21.9438 181.155C-17.9672 171.123 -42.8034 158.009 -36.4551 139.721C-32.4909 127.62 -19.049 121.798 -18.2628 112.319C-17.4234 102.196 -16.6904 94.0651 -16.5175 89.5465Z" stroke="#A9CAB9"/>
<path d="M-8.67878 100.299C-11.1623 77.8129 11.3017 83.729 16.011 95.9688C24.2987 117.271 33.4576 122.688 48.1854 127.971C54.9019 131.996 57.1038 116.439 68.1947 114.298C79.2856 112.157 83.9806 127.135 90.3351 120.505C100.26 110.455 109.309 107.294 116.369 108.576C123.156 109.254 128.327 114.301 130.623 121.344C132.75 127.98 132.315 136.358 128.23 144.484C118.977 155.614 119.121 172.933 114.05 180.686C107.192 187.55 116.017 194.527 113.764 208.308C111.51 222.089 99.9387 221.257 102.943 230.877C108.102 246.355 109.096 256.963 107.335 263.744C104.639 279.556 88.5744 277.13 75.2319 265.336C67.0524 258.488 60.6412 252.248 54.7862 248.133C48.151 241.239 39.5378 255.66 31.137 256.047C17.0238 256.266 18.9701 240.803 7.14762 247.916C2.01332 250.889 -3.5433 254.274 -9.63438 258.187C-24.4333 266.877 -35.0605 267.345 -41.8491 264.292C-56.3251 262.768 -61.361 246.697 -58.0429 231.401C-55.983 222.392 -51.1295 213.685 -43.6872 208.172C-32.9693 200.227 -18.1278 194.578 -13.5626 179.877C-10.2223 171.121 -31.0294 159.734 -25.818 144.032C-22.5955 133.492 -11.4637 128.19 -10.7756 119.896C-10.0469 111.111 -9.14068 104.117 -8.67878 100.299Z" stroke="#A9CAB9"/>
<path d="M-0.496548 111.051C-2.09958 92.9782 16.2508 97.8568 20.1563 108.039C27.9595 128.105 36.5823 132.022 49.8106 135.435C55.3736 138.548 57.4139 125.85 66.5594 123.929C75.7049 122.007 79.7473 133.831 85.043 128.523C93.4088 120.482 100.973 118.231 106.784 119.674C112.285 120.411 116.465 124.766 118.197 130.719C119.794 136.346 119.193 143.367 115.409 150.066C105.771 159.798 108.034 178.344 104.083 185.806C98.6401 191.749 105.403 197.585 103.208 208.666C101.014 219.746 91.2679 218.912 93.2668 226.234C96.9308 238.196 97.4056 246.268 95.7201 251.35C93.3571 263.804 80.1329 261.59 68.9813 252.028C61.9534 246.43 56.2359 241.475 50.9413 238.593C45.3577 233.246 38.1587 245.018 31.0865 245.593C19.4088 246.065 20.5994 233.879 10.8328 239.704C6.40813 242.211 1.68629 244.971 -3.42341 248.094C-16.2211 255.005 -25.0641 254.352 -30.2906 250.925C-41.797 249.425 -45.7188 236.273 -42.9251 223.77C-41.1363 216.303 -37.0733 209.107 -30.9011 204.521C-21.0692 197.208 -8.57645 192.171 -4.8248 178.595C-2.12955 171.115 -18.8529 161.457 -14.792 148.341C-12.3197 139.362 -3.52723 134.579 -2.93885 127.47C-2.32284 120.024 -1.24603 114.167 -0.496548 111.051Z" stroke="#A9CAB9"/>
<path d="M7.45567 121.802C6.7259 108.148 21.0615 111.989 24.1846 120.112C31.549 138.948 39.6858 141.361 51.4902 142.9C55.93 145.1 57.8204 135.263 65.0701 133.561C72.3198 131.86 75.7322 140.523 79.9978 136.541C86.8508 130.51 92.9719 129.171 97.5651 130.777C101.81 131.574 105.019 135.237 106.196 140.099C107.272 144.716 106.503 150.38 102.996 155.651C92.9143 163.984 97.3171 183.771 94.4646 190.946C90.4083 195.967 95.1438 200.662 92.995 209.039C90.8462 217.416 82.8721 216.579 83.8749 221.599C86.0621 230.039 86.0186 235.571 84.3994 238.949C82.3551 248.04 71.9001 246.038 62.8784 238.712C56.9631 234.363 51.9069 230.696 47.1424 229.05C42.5797 225.252 36.7556 234.373 30.9731 235.136C21.6675 235.862 22.1074 226.958 14.3436 231.493L14.1288 231.61C10.4541 233.616 6.61128 235.714 2.53445 238C-8.33338 243.13 -15.4403 241.352 -19.132 237.548C-27.7297 236.07 -30.5579 225.841 -28.2733 216.134C-26.7457 210.212 -23.4508 204.527 -18.5152 200.868C-9.5124 194.186 0.700094 189.76 3.65849 177.307C5.72307 171.102 -7.00561 163.174 -4.07401 152.647C-2.33909 145.229 4.16035 140.965 4.65219 135.041C5.15893 128.935 6.41329 124.216 7.45567 121.802Z" stroke="#A9CAB9"/>
<path d="M15.6182 133.075C15.7682 123.9 25.9774 126.685 28.2937 132.714C35.164 150.235 42.7539 151.134 53.0447 150.792C56.3267 152.07 58.0532 145.137 63.3507 143.663C68.6481 142.188 71.4043 147.655 74.6069 145.015C79.8942 141.021 84.5244 140.6 87.8643 142.36C90.8199 143.215 93.0343 146.169 93.6466 149.918C94.1913 153.505 93.2589 157.786 90.0573 161.606C79.6059 168.504 86.118 189.44 84.3869 196.296C81.7493 200.372 84.4195 203.905 82.3324 209.541C80.2453 215.178 74.1048 214.342 74.1026 217.039C74.7948 221.92 74.2326 224.887 72.6917 226.548C70.9819 232.236 63.3774 230.455 56.5555 225.396C51.7981 222.317 47.4417 219.953 43.2433 219.55C39.7368 217.319 35.3325 223.747 30.8845 224.696C24.0233 225.672 23.7082 220.089 18.0076 223.314C14.9816 224.881 11.9073 226.381 8.73644 227.909C-0.118271 231.236 -5.4341 228.341 -7.56135 224.177C-13.1827 222.729 -14.8948 215.467 -13.1369 208.599C-11.8821 204.248 -9.38096 200.1 -5.72028 197.384C2.38544 191.363 10.2388 187.568 12.381 176.293C13.7987 171.392 5.1645 165.229 6.94353 157.338C7.92719 151.514 12.0823 147.788 12.4738 143.075C12.8674 138.335 14.2902 134.776 15.6182 133.075Z" stroke="#A9CAB9"/>
<path d="M23.9013 143.842C24.9272 139.113 31.0424 140.851 32.5588 144.804C38.9459 161.05 46.0009 160.441 54.7984 158.223C56.9323 158.585 58.4977 154.533 61.859 153.282C65.2203 152.031 67.3268 154.321 69.4755 153.015C73.2112 151.044 76.3635 151.537 78.4604 153.455C80.1364 154.367 81.3634 156.621 81.4146 159.269C81.432 161.836 80.3359 164.746 77.4336 167.128C66.6015 172.609 75.2207 194.734 74.6035 201.285C73.3744 204.428 73.9927 206.809 71.9644 209.725C69.9362 212.64 65.6127 211.805 64.6103 212.19C63.8155 213.533 62.7365 213.95 61.2717 213.901C59.8925 216.208 55.1154 214.645 50.4741 211.836C46.8632 210.016 43.1977 208.947 39.5575 209.782C37.0977 209.107 34.101 212.865 30.9754 214.001C26.5382 215.228 25.4713 212.945 21.8169 214.87C19.4973 215.967 17.254 216.838 15.06 217.569C8.19763 219.104 4.65765 215.09 4.08461 210.56C1.41822 209.138 0.814703 204.82 2.05063 200.768C3.03543 197.973 4.74987 195.35 7.14639 193.569C14.3694 188.195 19.8849 185.021 21.2173 174.898C21.9931 171.287 17.4229 166.87 18.0571 161.591C18.2944 157.344 20.1217 154.147 20.4138 150.633C20.6953 147.246 22.2875 144.834 23.9013 143.842Z" stroke="#A9CAB9"/>
</g>
</svg>
