<svg width="227" height="378" viewBox="0 0 227 378" fill="none" xmlns="http://www.w3.org/2000/svg">
<g opacity="0.1">
<path d="M176.287 252.498L175.759 252.357L175.946 251.844L220.862 128.912L221.824 129.17L199.256 258.089L199.161 258.628L198.634 258.486L176.287 252.498ZM175.39 252.55L199.387 258.98L223.269 122.554L222.918 122.46L175.39 252.55Z" fill="url(#paint0_linear_216_1270)" stroke="#A9CAB9"/>
<path d="M174.42 254.216L173.889 254.073L174.081 253.558L221.549 126.348L222.51 126.605L200.013 260.506L199.922 261.049L199.391 260.906L174.42 254.216ZM173.515 254.266L200.149 261.403L223.824 120.491L223.469 120.395L173.515 254.266Z" fill="url(#paint1_linear_216_1270)" stroke="#A9CAB9"/>
<path d="M172.39 255.96L171.855 255.816L172.052 255.299L222.245 123.754L223.206 124.011L200.899 263.028L200.811 263.575L200.276 263.432L172.39 255.96ZM171.481 256.008L201.042 263.929L224.686 116.566L171.481 256.008Z" fill="url(#paint2_linear_216_1270)" stroke="#A9CAB9"/>
<mask id="path-4-inside-1_216_1270" fill="white">
<path d="M170.31 257.242L201.437 265.583L223.415 121.31L170.31 257.242ZM202.49 267.192L168.596 258.11L226.42 110.096L202.49 267.192Z"/>
</mask>
<path d="M170.31 257.242L201.437 265.583L223.415 121.31L170.31 257.242ZM202.49 267.192L168.596 258.11L226.42 110.096L202.49 267.192Z" fill="url(#paint3_linear_216_1270)"/>
<path d="M170.31 257.242L170.051 258.208L168.972 257.919L169.379 256.878L170.31 257.242ZM201.437 265.583L202.426 265.733L202.257 266.838L201.178 266.549L201.437 265.583ZM223.415 121.31L222.483 120.946L224.403 121.461L223.415 121.31ZM168.596 258.11L168.337 259.076L167.258 258.787L167.664 257.746L168.596 258.11ZM226.42 110.096L225.488 109.732L227.408 110.247L226.42 110.096ZM170.569 256.276L201.696 264.617L201.178 266.549L170.051 258.208L170.569 256.276ZM200.449 265.432L222.426 121.16L224.403 121.461L202.426 265.733L200.449 265.432ZM224.346 121.674L171.242 257.606L169.379 256.878L222.483 120.946L224.346 121.674ZM202.231 268.158L168.337 259.076L168.855 257.144L202.748 266.226L202.231 268.158ZM167.664 257.746L225.488 109.732L227.351 110.46L169.527 258.474L167.664 257.746ZM227.408 110.247L203.478 267.342L201.501 267.041L225.431 109.946L227.408 110.247Z" fill="#A9CAB9" mask="url(#path-4-inside-1_216_1270)"/>
<path d="M167.775 259.509L167.23 259.364L167.44 258.841L223.663 118.468L224.622 118.725L203.126 268.403L203.046 268.96L202.502 268.815L167.775 259.509ZM166.85 259.555L203.279 269.316L225.829 112.3L166.85 259.555Z" fill="url(#paint4_linear_216_1270)" stroke="#A9CAB9"/>
<mask id="path-7-inside-2_216_1270" fill="white">
<path d="M165.276 260.829L204.003 271.206L224.848 115.955L165.276 260.829ZM205.079 272.822L163.535 261.69L227.441 106.281L205.079 272.822Z"/>
</mask>
<path d="M165.276 260.829L204.003 271.206L224.848 115.955L165.276 260.829ZM205.079 272.822L163.535 261.69L227.441 106.281L205.079 272.822Z" fill="url(#paint5_linear_216_1270)"/>
<path d="M165.276 260.829L165.017 261.795L163.918 261.501L164.351 260.449L165.276 260.829ZM204.003 271.206L204.994 271.339L204.843 272.467L203.744 272.172L204.003 271.206ZM224.848 115.955L223.924 115.575L225.84 116.089L224.848 115.955ZM163.535 261.69L163.276 262.656L162.177 262.362L162.61 261.31L163.535 261.69ZM227.441 106.281L226.516 105.9L228.432 106.414L227.441 106.281ZM165.534 259.863L204.262 270.24L203.744 272.172L165.017 261.795L165.534 259.863ZM203.012 271.073L223.857 115.822L225.84 116.089L204.994 271.339L203.012 271.073ZM225.773 116.336L166.2 261.21L164.351 260.449L223.924 115.575L225.773 116.336ZM204.82 273.788L163.276 262.656L163.793 260.724L205.338 271.856L204.82 273.788ZM162.61 261.31L226.516 105.9L228.366 106.661L164.46 262.07L162.61 261.31ZM228.432 106.414L206.07 272.955L204.088 272.689L226.45 106.148L228.432 106.414Z" fill="#A9CAB9" mask="url(#path-7-inside-2_216_1270)"/>
<path d="M162.279 263.127L161.724 262.978L161.948 262.449L225.124 113.017L226.081 113.274L206.077 274.273L206.006 274.843L205.451 274.695L162.279 263.127ZM161.338 263.166L206.246 275.199L227.053 107.73L161.338 263.166Z" fill="url(#paint6_linear_216_1270)" stroke="#A9CAB9"/>
<mask id="path-10-inside-3_216_1270" fill="white">
<path d="M159.272 264.465L207.385 277.357L226.332 110.421L159.272 264.465ZM208.49 278.982L157.502 265.32L228.57 102.067L208.49 278.982Z"/>
</mask>
<path d="M159.272 264.465L207.385 277.357L226.332 110.421L159.272 264.465ZM208.49 278.982L157.502 265.32L228.57 102.067L208.49 278.982Z" fill="url(#paint7_linear_216_1270)"/>
<path d="M159.272 264.465L159.013 265.431L157.891 265.131L158.355 264.066L159.272 264.465ZM207.385 277.357L208.379 277.47L208.248 278.624L207.127 278.323L207.385 277.357ZM226.332 110.421L225.415 110.022L227.325 110.534L226.332 110.421ZM157.502 265.32L157.244 266.286L156.122 265.986L156.586 264.921L157.502 265.32ZM228.57 102.067L227.653 101.668L229.564 102.18L228.57 102.067ZM159.53 263.499L207.644 276.392L207.127 278.323L159.013 265.431L159.53 263.499ZM206.392 277.245L225.338 110.308L227.325 110.534L208.379 277.47L206.392 277.245ZM227.249 110.82L160.188 264.865L158.355 264.066L225.415 110.022L227.249 110.82ZM208.231 279.948L157.244 266.286L157.761 264.354L208.749 278.016L208.231 279.948ZM156.586 264.921L227.653 101.668L229.487 102.467L158.419 265.719L156.586 264.921ZM229.564 102.18L209.484 279.095L207.496 278.869L227.576 101.955L229.564 102.18Z" fill="#A9CAB9" mask="url(#path-10-inside-3_216_1270)"/>
<mask id="path-12-inside-4_216_1270" fill="white">
<path d="M155.841 266.293L209.443 280.656L227.095 107.576L155.841 266.293ZM210.565 282.283L154.056 267.142L229.175 99.812L210.565 282.283Z"/>
</mask>
<path d="M155.841 266.293L209.443 280.656L227.095 107.576L155.841 266.293ZM210.565 282.283L154.056 267.142L229.175 99.812L210.565 282.283Z" fill="url(#paint8_linear_216_1270)"/>
<path d="M155.841 266.293L155.582 267.259L154.448 266.955L154.929 265.883L155.841 266.293ZM209.443 280.656L210.438 280.757L210.319 281.926L209.184 281.622L209.443 280.656ZM227.095 107.576L226.182 107.166L228.089 107.677L227.095 107.576ZM154.056 267.142L153.797 268.108L152.662 267.804L153.143 266.732L154.056 267.142ZM229.175 99.812L228.263 99.4025L230.17 99.9135L229.175 99.812ZM156.1 265.327L209.702 279.69L209.184 281.622L155.582 267.259L156.1 265.327ZM208.448 280.554L226.1 107.474L228.089 107.677L210.438 280.757L208.448 280.554ZM228.007 107.985L156.753 266.703L154.929 265.883L226.182 107.166L228.007 107.985ZM210.306 283.249L153.797 268.108L154.314 266.176L210.824 281.317L210.306 283.249ZM153.143 266.732L228.263 99.4025L230.087 100.222L154.968 267.551L153.143 266.732ZM230.17 99.9135L211.56 282.385L209.57 282.182L228.18 99.7106L230.17 99.9135Z" fill="#A9CAB9" mask="url(#path-12-inside-4_216_1270)"/>
<path d="M151.954 268.599L151.38 268.445L151.63 267.906L227.418 104.463L228.37 104.718L212.283 284.157L212.23 284.75L211.655 284.596L151.954 268.599ZM150.983 268.632L212.48 285.11L229.051 100.271L150.983 268.632Z" fill="url(#paint9_linear_216_1270)" stroke="#A9CAB9"/>
<path d="M147.837 270.413L147.255 270.257L147.515 269.714L228.216 101.494L229.165 101.749L214.944 287.782L214.898 288.382L214.316 288.226L147.837 270.413ZM146.854 270.442L215.153 288.743L229.764 97.6154L146.854 270.442Z" fill="url(#paint10_linear_216_1270)" stroke="#A9CAB9"/>
<mask id="path-16-inside-5_216_1270" fill="white">
<path d="M143.448 271.728L217.458 291.559L229.478 98.6817L143.448 271.728ZM218.64 293.203L141.602 272.561L231.151 92.4355L218.64 293.203Z"/>
</mask>
<path d="M143.448 271.728L217.458 291.559L229.478 98.6817L143.448 271.728ZM218.64 293.203L141.602 272.561L231.151 92.4355L218.64 293.203Z" fill="url(#paint11_linear_216_1270)"/>
<path d="M143.448 271.728L143.189 272.694L142.008 272.377L142.552 271.283L143.448 271.728ZM217.458 291.559L218.456 291.621L218.38 292.841L217.2 292.525L217.458 291.559ZM229.478 98.6817L228.582 98.2365L230.476 98.7438L229.478 98.6817ZM141.602 272.561L141.343 273.527L140.162 273.21L140.707 272.116L141.602 272.561ZM231.151 92.4355L230.256 91.9904L232.149 92.4977L231.151 92.4355ZM143.707 270.762L217.717 290.593L217.2 292.525L143.189 272.694L143.707 270.762ZM216.46 291.497L228.48 98.6195L230.476 98.7438L218.456 291.621L216.46 291.497ZM230.373 99.1268L144.343 272.173L142.552 271.283L228.582 98.2365L230.373 99.1268ZM218.382 294.169L141.343 273.527L141.861 271.595L218.899 292.237L218.382 294.169ZM140.707 272.116L230.256 91.9904L232.047 92.8807L142.497 273.006L140.707 272.116ZM232.149 92.4977L219.638 293.265L217.642 293.141L230.153 92.3734L232.149 92.4977Z" fill="#A9CAB9" mask="url(#path-16-inside-5_216_1270)"/>
<path d="M138.36 273.983L137.761 273.822L138.045 273.271L229.864 95.3554L230.808 95.6083L221.367 295.597L221.338 296.217L220.738 296.056L138.36 273.983ZM137.35 274.004L221.603 296.579L231.258 92.0384L137.35 274.004Z" fill="url(#paint12_linear_216_1270)" stroke="#A9CAB9"/>
<path d="M132.911 275.722L132.302 275.558L132.6 275.002L230.716 92.1795L231.656 92.4314L225.215 299.819L225.196 300.449L224.586 300.286L132.911 275.722ZM131.884 275.738L225.467 300.814L232.041 89.1135L131.884 275.738Z" fill="url(#paint13_linear_216_1270)" stroke="#A9CAB9"/>
<path d="M126.921 277.411L126.3 277.245L126.614 276.684L231.59 88.9252L232.526 89.1761L229.559 304.268L229.55 304.91L228.93 304.744L126.921 277.411ZM125.878 277.425L229.832 305.279L232.851 86.0916L125.878 277.425Z" fill="url(#paint14_linear_216_1270)" stroke="#A9CAB9"/>
<path d="M120.332 279.044L119.699 278.875L120.029 278.309L232.486 85.5902L233.41 84.0077L233.418 85.8399L234.441 308.966L234.444 309.621L233.812 309.451L120.332 279.044ZM119.269 279.051L234.743 309.992L233.687 82.9726L119.269 279.051Z" fill="url(#paint15_linear_216_1270)" stroke="#A9CAB9"/>
<path d="M113.078 280.603L112.432 280.43L112.78 279.86L233.405 82.1701L234.291 80.7191L234.332 82.4184L239.955 313.936L239.971 314.604L239.326 314.431L113.078 280.603ZM111.996 280.605L240.258 314.973L234.55 79.7532L111.996 280.605Z" fill="url(#paint16_linear_216_1270)" stroke="#A9CAB9"/>
<mask id="path-23-inside-6_216_1270" fill="white">
<path d="M105.217 281.591L245.635 319.216L234.77 78.9295L105.217 281.591ZM247.001 320.91L103.193 282.377L235.868 74.8324L247.001 320.91Z"/>
</mask>
<path d="M105.217 281.591L245.635 319.216L234.77 78.9295L105.217 281.591ZM247.001 320.91L103.193 282.377L235.868 74.8324L247.001 320.91Z" fill="url(#paint17_linear_216_1270)"/>
<path d="M105.217 281.591L104.958 282.557L103.638 282.204L104.374 281.053L105.217 281.591ZM245.635 319.216L246.634 319.171L246.696 320.536L245.376 320.182L245.635 319.216ZM234.77 78.9295L233.927 78.3909L235.626 75.7331L235.769 78.8844L234.77 78.9295ZM103.193 282.377L102.935 283.343L101.615 282.989L102.351 281.838L103.193 282.377ZM235.868 74.8324L235.025 74.2938L236.724 71.636L236.867 74.7872L235.868 74.8324ZM105.476 280.625L245.894 318.25L245.376 320.182L104.958 282.557L105.476 280.625ZM244.636 319.261L233.771 78.9747L235.769 78.8844L246.634 319.171L244.636 319.261ZM235.612 79.4681L106.059 282.13L104.374 281.053L233.927 78.3909L235.612 79.4681ZM246.742 321.876L102.935 283.343L103.452 281.411L247.26 319.944L246.742 321.876ZM102.351 281.838L235.025 74.2938L236.71 75.371L104.036 282.915L102.351 281.838ZM236.867 74.7872L248 320.865L246.002 320.955L234.869 74.8776L236.867 74.7872Z" fill="#A9CAB9" mask="url(#path-23-inside-6_216_1270)"/>
<path d="M96.2835 283.436L95.6081 283.255L95.9977 282.675L235.318 75.0581L236.133 73.8428L236.232 75.303L253.075 324.763L253.122 325.461L252.447 325.28L96.2835 283.436ZM95.1539 283.427L253.427 325.836L236.359 73.0004L95.1539 283.427Z" fill="url(#paint18_linear_216_1270)" stroke="#A9CAB9"/>
<path d="M86.5739 284.673L85.8813 284.488L86.2948 283.902L236.313 71.3605L237.096 70.2512L237.22 71.6034L260.866 330.678L260.931 331.392L260.238 331.206L86.5739 284.673ZM85.4171 284.655L261.248 331.769L237.308 69.4619L85.4171 284.655Z" fill="url(#paint19_linear_216_1270)" stroke="#A9CAB9"/>
<path d="M75.8593 285.76L75.1481 285.57L75.5876 284.979L237.335 67.5602L238.087 66.5494L238.233 67.8008L269.597 336.964L269.682 337.695L268.971 337.504L75.8593 285.76ZM74.6751 285.735L270.008 338.074L238.285 65.8118L74.7992 285.568L74.7992 285.568L74.6751 285.735Z" fill="url(#paint20_linear_216_1270)" stroke="#A9CAB9"/>
<mask id="path-28-inside-7_216_1270" fill="white">
<path d="M64.1664 286.188L278.884 343.721L238.78 63.9652L64.1664 286.188ZM280.435 345.464L61.9595 286.923L239.624 60.8174L280.435 345.464Z"/>
</mask>
<path d="M64.1664 286.188L278.884 343.721L238.78 63.9652L64.1664 286.188ZM280.435 345.464L61.9595 286.923L239.624 60.8174L280.435 345.464Z" fill="url(#paint21_linear_216_1270)"/>
<path d="M64.1664 286.188L63.9076 287.154L62.4438 286.761L63.3801 285.57L64.1664 286.188ZM278.884 343.721L279.874 343.579L280.089 345.079L278.625 344.687L278.884 343.721ZM238.78 63.9652L237.994 63.3474L239.438 61.5091L239.77 63.8233L238.78 63.9652ZM61.9595 286.923L61.7007 287.889L60.2369 287.497L61.1732 286.305L61.9595 286.923ZM239.624 60.8174L238.837 60.1996L240.282 58.3614L240.613 60.6755L239.624 60.8174ZM64.4252 285.222L279.143 342.755L278.625 344.687L63.9076 287.154L64.4252 285.222ZM277.894 343.863L237.79 64.1071L239.77 63.8233L279.874 343.579L277.894 343.863ZM239.566 64.5831L64.9527 286.806L63.3801 285.57L237.994 63.3474L239.566 64.5831ZM280.176 346.43L61.7007 287.889L62.2183 285.957L280.694 344.498L280.176 346.43ZM61.1732 286.305L238.837 60.1996L240.41 61.4353L62.7458 287.541L61.1732 286.305ZM240.613 60.6755L281.425 345.322L279.445 345.606L238.634 60.9594L240.613 60.6755Z" fill="#A9CAB9" mask="url(#path-28-inside-7_216_1270)"/>
<mask id="path-30-inside-8_216_1270" fill="white">
<path d="M51.1101 286.897L289.838 350.864L239.851 59.9645L51.1101 286.897ZM291.436 352.619L48.8447 287.617L240.644 57.0066L291.436 352.619Z"/>
</mask>
<path d="M51.1101 286.897L289.838 350.864L239.851 59.9645L51.1101 286.897ZM291.436 352.619L48.8447 287.617L240.644 57.0066L291.436 352.619Z" fill="url(#paint22_linear_216_1270)"/>
<path d="M51.1101 286.897L50.8513 287.863L49.3424 287.458L50.3413 286.257L51.1101 286.897ZM289.838 350.864L290.824 350.694L291.089 352.234L289.58 351.83L289.838 350.864ZM239.851 59.9645L239.083 59.325L240.47 57.6574L240.837 59.7952L239.851 59.9645ZM48.8447 287.617L48.5859 288.583L47.077 288.178L48.0759 286.977L48.8447 287.617ZM240.644 57.0066L239.875 56.3672L241.262 54.6994L241.63 56.8373L240.644 57.0066ZM51.3689 285.931L290.097 349.898L289.58 351.83L50.8513 287.863L51.3689 285.931ZM288.853 351.033L238.866 60.1339L240.837 59.7952L290.824 350.694L288.853 351.033ZM240.62 60.6039L51.879 287.536L50.3413 286.257L239.083 59.325L240.62 60.6039ZM291.177 353.585L48.5859 288.583L49.1035 286.651L291.695 351.653L291.177 353.585ZM48.0759 286.977L239.875 56.3672L241.413 57.6461L49.6136 288.256L48.0759 286.977ZM241.63 56.8373L292.421 352.449L290.45 352.788L239.658 57.1759L241.63 56.8373Z" fill="#A9CAB9" mask="url(#path-30-inside-8_216_1270)"/>
<path d="M36.5588 287.85L35.7795 287.641L36.3133 287.036L240.58 55.5177L241.246 54.7631L241.445 55.7495L302.58 358.382L302.739 359.173L301.96 358.964L36.5588 287.85ZM35.2681 287.796L303.114 359.565L241.409 54.152L35.2681 287.796Z" fill="url(#paint23_linear_216_1270)" stroke="#A9CAB9"/>
<mask id="path-33-inside-9_216_1270" fill="white">
<path d="M20.7503 287.565L315.803 366.624L242.088 51.6169L20.7503 287.565ZM317.539 368.418L18.3501 288.251L242.791 48.9924L317.539 368.418Z"/>
</mask>
<path d="M20.7503 287.565L315.803 366.624L242.088 51.6169L20.7503 287.565ZM317.539 368.418L18.3501 288.251L242.791 48.9924L317.539 368.418Z" fill="url(#paint24_linear_216_1270)"/>
<path d="M20.7503 287.565L20.4915 288.531L18.8785 288.099L20.021 286.881L20.7503 287.565ZM315.803 366.624L316.777 366.396L317.157 368.022L315.544 367.59L315.803 366.624ZM242.088 51.6169L241.359 50.9327L242.636 49.5708L243.062 51.389L242.088 51.6169ZM18.3501 288.251L18.0913 289.217L16.4783 288.784L17.6208 287.567L18.3501 288.251ZM242.791 48.9924L242.062 48.3083L243.34 46.9464L243.765 48.7646L242.791 48.9924ZM21.0091 286.599L316.062 365.658L315.544 367.59L20.4915 288.531L21.0091 286.599ZM314.829 366.852L241.114 51.8447L243.062 51.389L316.777 366.396L314.829 366.852ZM242.818 52.301L21.4796 288.249L20.021 286.881L241.359 50.9327L242.818 52.301ZM317.28 369.384L18.0913 289.217L18.6089 287.285L317.798 367.452L317.28 369.384ZM17.6208 287.567L242.062 48.3083L243.521 49.6766L19.0794 288.935L17.6208 287.567ZM243.765 48.7646L318.512 368.19L316.565 368.646L241.818 49.2203L243.765 48.7646Z" fill="#A9CAB9" mask="url(#path-33-inside-9_216_1270)"/>
<path d="M3.0012 287.935L2.16481 287.711L2.77701 287.098L242.902 46.9098L243.514 46.2972L243.739 47.134L331.602 375.207L331.826 376.043L330.989 375.819L3.0012 287.935ZM1.61961 287.856L332.225 376.442L243.661 45.7517L1.61961 287.856Z" fill="url(#paint25_linear_216_1270)" stroke="#A9CAB9"/>
</g>
<defs>
<linearGradient id="paint0_linear_216_1270" x1="192.713" y1="185.78" x2="217.766" y2="192.493" gradientUnits="userSpaceOnUse">
<stop stop-color="#A9CAB9"/>
<stop offset="0.95426" stop-color="#B4F7FD"/>
<stop offset="0.999362" stop-color="#B6FBFF"/>
<stop offset="1" stop-color="#B6FBFF"/>
</linearGradient>
<linearGradient id="paint1_linear_216_1270" x1="191.391" y1="185.427" x2="219.087" y2="192.849" gradientUnits="userSpaceOnUse">
<stop stop-color="#A9CAB9"/>
<stop offset="0.95426" stop-color="#B4F7FD"/>
<stop offset="0.999362" stop-color="#B6FBFF"/>
<stop offset="1" stop-color="#B6FBFF"/>
</linearGradient>
<linearGradient id="paint2_linear_216_1270" x1="190.724" y1="182.05" x2="221.355" y2="190.258" gradientUnits="userSpaceOnUse">
<stop stop-color="#A9CAB9"/>
<stop offset="0.95426" stop-color="#B4F7FD"/>
<stop offset="0.999362" stop-color="#B6FBFF"/>
<stop offset="1" stop-color="#B6FBFF"/>
</linearGradient>
<linearGradient id="paint3_linear_216_1270" x1="189.034" y1="181.832" x2="222.928" y2="190.913" gradientUnits="userSpaceOnUse">
<stop stop-color="#A9CAB9"/>
<stop offset="0.95426" stop-color="#B4F7FD"/>
<stop offset="0.999362" stop-color="#B6FBFF"/>
<stop offset="1" stop-color="#B6FBFF"/>
</linearGradient>
<linearGradient id="paint4_linear_216_1270" x1="187.168" y1="181.55" x2="224.686" y2="191.603" gradientUnits="userSpaceOnUse">
<stop stop-color="#A9CAB9"/>
<stop offset="0.95426" stop-color="#B4F7FD"/>
<stop offset="0.999362" stop-color="#B6FBFF"/>
<stop offset="1" stop-color="#B6FBFF"/>
</linearGradient>
<linearGradient id="paint5_linear_216_1270" x1="185.103" y1="181.203" x2="226.647" y2="192.334" gradientUnits="userSpaceOnUse">
<stop stop-color="#A9CAB9"/>
<stop offset="0.95426" stop-color="#B4F7FD"/>
<stop offset="0.999362" stop-color="#B6FBFF"/>
<stop offset="1" stop-color="#B6FBFF"/>
</linearGradient>
<linearGradient id="paint6_linear_216_1270" x1="182.819" y1="180.779" x2="228.836" y2="193.109" gradientUnits="userSpaceOnUse">
<stop stop-color="#A9CAB9"/>
<stop offset="0.95426" stop-color="#B4F7FD"/>
<stop offset="0.999362" stop-color="#B6FBFF"/>
<stop offset="1" stop-color="#B6FBFF"/>
</linearGradient>
<linearGradient id="paint7_linear_216_1270" x1="180.289" y1="180.278" x2="231.277" y2="193.94" gradientUnits="userSpaceOnUse">
<stop stop-color="#A9CAB9"/>
<stop offset="0.95426" stop-color="#B4F7FD"/>
<stop offset="0.999362" stop-color="#B6FBFF"/>
<stop offset="1" stop-color="#B6FBFF"/>
</linearGradient>
<linearGradient id="paint8_linear_216_1270" x1="177.488" y1="179.691" x2="233.998" y2="194.833" gradientUnits="userSpaceOnUse">
<stop stop-color="#A9CAB9"/>
<stop offset="0.95426" stop-color="#B4F7FD"/>
<stop offset="0.999362" stop-color="#B6FBFF"/>
<stop offset="1" stop-color="#B6FBFF"/>
</linearGradient>
<linearGradient id="paint9_linear_216_1270" x1="174.381" y1="179.012" x2="237.028" y2="195.798" gradientUnits="userSpaceOnUse">
<stop stop-color="#A9CAB9"/>
<stop offset="0.95426" stop-color="#B4F7FD"/>
<stop offset="0.999362" stop-color="#B6FBFF"/>
<stop offset="1" stop-color="#B6FBFF"/>
</linearGradient>
<linearGradient id="paint10_linear_216_1270" x1="170.938" y1="178.231" x2="240.4" y2="196.843" gradientUnits="userSpaceOnUse">
<stop stop-color="#A9CAB9"/>
<stop offset="0.95426" stop-color="#B4F7FD"/>
<stop offset="0.999362" stop-color="#B6FBFF"/>
<stop offset="1" stop-color="#B6FBFF"/>
</linearGradient>
<linearGradient id="paint11_linear_216_1270" x1="167.119" y1="177.338" x2="244.156" y2="197.98" gradientUnits="userSpaceOnUse">
<stop stop-color="#A9CAB9"/>
<stop offset="0.95426" stop-color="#B4F7FD"/>
<stop offset="0.999362" stop-color="#B6FBFF"/>
<stop offset="1" stop-color="#B6FBFF"/>
</linearGradient>
<linearGradient id="paint12_linear_216_1270" x1="162.88" y1="176.324" x2="248.332" y2="199.221" gradientUnits="userSpaceOnUse">
<stop stop-color="#A9CAB9"/>
<stop offset="0.95426" stop-color="#B4F7FD"/>
<stop offset="0.999362" stop-color="#B6FBFF"/>
<stop offset="1" stop-color="#B6FBFF"/>
</linearGradient>
<linearGradient id="paint13_linear_216_1270" x1="158.176" y1="175.179" x2="252.977" y2="200.581" gradientUnits="userSpaceOnUse">
<stop stop-color="#A9CAB9"/>
<stop offset="0.95426" stop-color="#B4F7FD"/>
<stop offset="0.999362" stop-color="#B6FBFF"/>
<stop offset="1" stop-color="#B6FBFF"/>
</linearGradient>
<linearGradient id="paint14_linear_216_1270" x1="152.955" y1="173.886" x2="258.145" y2="202.071" gradientUnits="userSpaceOnUse">
<stop stop-color="#A9CAB9"/>
<stop offset="0.95426" stop-color="#B4F7FD"/>
<stop offset="0.999362" stop-color="#B6FBFF"/>
<stop offset="1" stop-color="#B6FBFF"/>
</linearGradient>
<linearGradient id="paint15_linear_216_1270" x1="147.16" y1="172.432" x2="263.891" y2="203.71" gradientUnits="userSpaceOnUse">
<stop stop-color="#A9CAB9"/>
<stop offset="0.95426" stop-color="#B4F7FD"/>
<stop offset="0.999362" stop-color="#B6FBFF"/>
<stop offset="1" stop-color="#B6FBFF"/>
</linearGradient>
<linearGradient id="paint16_linear_216_1270" x1="140.726" y1="170.799" x2="270.28" y2="205.513" gradientUnits="userSpaceOnUse">
<stop stop-color="#A9CAB9"/>
<stop offset="0.95426" stop-color="#B4F7FD"/>
<stop offset="0.999362" stop-color="#B6FBFF"/>
<stop offset="1" stop-color="#B6FBFF"/>
</linearGradient>
<linearGradient id="paint17_linear_216_1270" x1="133.58" y1="168.971" x2="277.382" y2="207.502" gradientUnits="userSpaceOnUse">
<stop stop-color="#A9CAB9"/>
<stop offset="0.95426" stop-color="#B4F7FD"/>
<stop offset="0.999362" stop-color="#B6FBFF"/>
<stop offset="1" stop-color="#B6FBFF"/>
</linearGradient>
<linearGradient id="paint18_linear_216_1270" x1="125.647" y1="166.924" x2="285.278" y2="209.697" gradientUnits="userSpaceOnUse">
<stop stop-color="#A9CAB9"/>
<stop offset="0.95426" stop-color="#B4F7FD"/>
<stop offset="0.999362" stop-color="#B6FBFF"/>
<stop offset="1" stop-color="#B6FBFF"/>
</linearGradient>
<linearGradient id="paint19_linear_216_1270" x1="116.834" y1="164.637" x2="294.054" y2="212.123" gradientUnits="userSpaceOnUse">
<stop stop-color="#A9CAB9"/>
<stop offset="0.95426" stop-color="#B4F7FD"/>
<stop offset="0.999362" stop-color="#B6FBFF"/>
<stop offset="1" stop-color="#B6FBFF"/>
</linearGradient>
<linearGradient id="paint20_linear_216_1270" x1="107.045" y1="162.083" x2="303.806" y2="214.805" gradientUnits="userSpaceOnUse">
<stop stop-color="#A9CAB9"/>
<stop offset="0.95426" stop-color="#B4F7FD"/>
<stop offset="0.999362" stop-color="#B6FBFF"/>
<stop offset="1" stop-color="#B6FBFF"/>
</linearGradient>
<linearGradient id="paint21_linear_216_1270" x1="96.172" y1="159.234" x2="314.646" y2="217.774" gradientUnits="userSpaceOnUse">
<stop stop-color="#A9CAB9"/>
<stop offset="0.95426" stop-color="#B4F7FD"/>
<stop offset="0.999362" stop-color="#B6FBFF"/>
<stop offset="1" stop-color="#B6FBFF"/>
</linearGradient>
<linearGradient id="paint22_linear_216_1270" x1="84.0935" y1="156.06" x2="326.692" y2="221.064" gradientUnits="userSpaceOnUse">
<stop stop-color="#A9CAB9"/>
<stop offset="0.95426" stop-color="#B4F7FD"/>
<stop offset="0.999362" stop-color="#B6FBFF"/>
<stop offset="1" stop-color="#B6FBFF"/>
</linearGradient>
<linearGradient id="paint23_linear_216_1270" x1="70.6794" y1="152.522" x2="340.082" y2="224.708" gradientUnits="userSpaceOnUse">
<stop stop-color="#A9CAB9"/>
<stop offset="0.95426" stop-color="#B4F7FD"/>
<stop offset="0.999362" stop-color="#B6FBFF"/>
<stop offset="1" stop-color="#B6FBFF"/>
</linearGradient>
<linearGradient id="paint24_linear_216_1270" x1="55.7745" y1="148.581" x2="354.959" y2="228.747" gradientUnits="userSpaceOnUse">
<stop stop-color="#A9CAB9"/>
<stop offset="0.95426" stop-color="#B4F7FD"/>
<stop offset="0.999362" stop-color="#B6FBFF"/>
<stop offset="1" stop-color="#B6FBFF"/>
</linearGradient>
<linearGradient id="paint25_linear_216_1270" x1="39.2178" y1="144.192" x2="371.492" y2="233.225" gradientUnits="userSpaceOnUse">
<stop stop-color="#A9CAB9"/>
<stop offset="0.95426" stop-color="#B4F7FD"/>
<stop offset="0.999362" stop-color="#B6FBFF"/>
<stop offset="1" stop-color="#B6FBFF"/>
</linearGradient>
</defs>
</svg>
