<svg width="256" height="276" viewBox="0 0 256 276" fill="none" xmlns="http://www.w3.org/2000/svg">
<path d="M4.28298 70.8424C-15.3657 -0.358283 57.4204 -7.60565 109.948 13.8932C140.595 24.9498 160.722 -9.43536 198.688 4.28734C236.654 18.01 191.141 61.2366 249.233 83.4216C307.326 105.607 278.966 204.867 228.192 206.011C177.418 207.155 191.369 223.851 140.595 262.045C89.8212 300.24 4.2831 247.179 25.5533 191.145C46.8234 135.11 25.553 147.918 4.28298 70.8424Z" stroke="#C85A16" stroke-width="0.8"/>
<path d="M113.561 126.254C111.294 119.473 121.913 108.532 130.451 113.201C138.27 117.477 146.232 114.593 151.493 116.499C165.341 121.517 160.247 124.173 166.438 130.133C173.971 137.385 177.566 156.375 160.247 156.375C146.004 156.375 150.266 163.293 139.6 166.358C128.934 169.424 116.838 164.206 116.838 150.469C116.838 145.31 117.337 137.549 113.561 126.254Z" stroke="#C85A16" stroke-width="0.8"/>
<path d="M14.2157 75.534C-3.85287 10.1896 63.2817 2.60652 111.81 22.5754C140.382 33.0156 159.403 1.49414 194.396 14.1426C230.169 27.074 188.33 66.6123 241.705 87.3223C295.201 108.15 269.746 200.113 222.013 201.153C174.56 202.192 187.631 217.999 140.503 253.001C93.3753 288.002 14.5137 239.29 33.8502 187.101C53.1867 135.692 33.8954 146.63 14.2157 75.534Z" stroke="#C85A16" stroke-width="0.8"/>
<path d="M24.1482 80.2256C7.65979 20.7375 69.1428 12.8187 113.672 31.2577C140.169 41.0813 158.084 12.4237 190.104 23.9979C223.685 36.1379 185.52 71.988 234.176 91.223C283.076 110.693 260.526 195.359 215.835 196.295C171.703 197.23 183.892 212.148 140.411 243.956C96.9291 275.764 24.7441 231.401 42.147 183.058C59.5499 136.273 42.2375 145.341 24.1482 80.2256Z" stroke="#C85A16" stroke-width="0.8"/>
<path d="M34.0818 84.9175C19.1735 31.2857 75.0049 23.0312 115.535 39.9402C139.957 49.1474 156.766 23.3535 185.812 33.8535C217.201 45.2022 182.711 77.3641 226.648 95.124C270.952 113.236 251.307 190.605 209.657 191.437C168.846 192.269 180.155 206.298 140.319 234.912C100.484 263.526 34.9756 223.513 50.4448 179.014C65.914 136.855 50.5807 144.053 34.0818 84.9175Z" stroke="#C85A16" stroke-width="0.8"/>
<path d="M44.0154 89.6099C30.6873 41.8344 80.8671 33.2442 117.399 48.6231C139.745 57.2139 155.448 34.2838 181.521 43.7096C210.717 54.2669 179.902 82.7406 219.121 99.0254C258.828 115.78 242.088 185.852 203.48 186.579C165.989 187.307 176.417 200.447 140.228 225.868C104.039 251.288 45.2071 215.625 58.7427 174.971C72.2782 137.437 58.9239 142.765 44.0154 89.6099Z" stroke="#C85A16" stroke-width="0.8"/>
<path d="M53.9489 94.54C42.2009 52.6208 86.7292 43.6949 119.262 57.5438C139.532 65.5181 154.13 45.4518 177.23 53.8033C204.233 63.5693 177.092 88.3548 211.593 103.165C246.704 118.562 232.869 181.336 197.302 181.96C163.133 182.583 172.68 194.835 140.137 217.062C107.594 239.289 55.4385 207.975 67.0404 171.166C78.6423 138.257 67.267 141.715 53.9489 94.54Z" stroke="#C85A16" stroke-width="0.8"/>
<path d="M63.8823 99.7512C53.7145 63.6883 92.5911 54.4267 121.125 66.7456C139.32 74.1034 152.812 56.9009 172.938 64.1782C197.749 73.1528 174.283 94.2501 204.065 107.585C234.58 121.625 223.65 177.101 191.124 177.621C160.276 178.141 168.942 189.504 140.045 208.537C111.149 227.57 65.6699 200.605 75.3381 167.642C85.0064 139.358 75.6101 140.946 63.8823 99.7512Z" stroke="#C85A16" stroke-width="0.8"/>
<path d="M73.8157 104.978C65.228 74.7714 98.4531 65.1741 122.988 75.963C139.108 82.7043 151.493 68.3657 168.647 74.5687C191.265 82.752 171.473 100.161 196.538 112.021C222.456 124.703 214.431 172.882 184.947 173.298C157.419 173.714 165.204 184.188 139.954 200.027C114.703 215.867 75.9012 193.252 83.6358 164.134C91.3704 140.475 83.9531 140.193 73.8157 104.978Z" stroke="#C85A16" stroke-width="0.8"/>
<path d="M83.7493 110.228C76.7418 85.8772 104.315 75.9441 124.851 85.2031C138.896 91.3279 150.175 79.853 164.355 84.9818C184.782 92.3738 168.664 106.095 189.01 116.479C210.332 127.804 205.212 168.686 178.769 168.998C154.562 169.31 161.467 178.895 139.863 191.541C118.258 204.187 86.1327 185.921 91.9336 160.648C97.7346 141.614 92.2963 139.463 83.7493 110.228Z" stroke="#C85A16" stroke-width="0.8"/>
<path d="M93.6838 115.51C88.2564 97.0161 110.178 86.7473 126.715 94.4763C138.684 99.9847 148.858 91.3736 160.065 95.4281C178.299 102.029 165.856 112.061 181.483 120.971C198.209 130.938 195.994 164.523 172.592 164.731C151.707 164.939 157.73 173.634 139.772 183.087C121.814 192.539 96.3651 178.623 100.232 157.195C104.1 142.787 100.64 138.765 93.6838 115.51Z" stroke="#C85A16" stroke-width="0.8"/>
<path d="M103.621 120.843C99.7733 108.205 116.044 97.6007 128.581 103.8C138.475 108.692 147.543 102.944 155.777 105.925C171.818 111.734 163.05 118.078 173.959 125.513C186.088 134.123 186.778 160.41 166.418 160.514C148.853 160.618 153.996 168.425 139.684 174.684C125.372 180.942 106.6 171.375 108.533 153.793C110.467 144.009 108.987 138.118 103.621 120.843Z" stroke="#C85A16" stroke-width="0.8"/>
</svg>
