<svg width="187" height="366" viewBox="0 0 187 366" fill="none" xmlns="http://www.w3.org/2000/svg">
<g opacity="0.15">
<path d="M5.35307 93.6073C-20.7001 -0.801012 75.8105 -10.4106 145.459 18.0958C186.096 32.7562 212.783 -12.8367 263.124 5.35885C313.465 23.5544 253.117 80.8706 330.144 110.287C407.172 139.703 369.568 271.318 302.244 272.834C234.921 274.35 253.42 296.488 186.096 347.133C118.772 397.777 5.35322 327.421 33.5563 253.122C61.7595 178.823 33.556 195.806 5.35307 93.6073Z" stroke="#A9CAB9" stroke-width="1.46"/>
<path d="M150.25 167.08C147.244 158.088 161.324 143.582 172.645 149.773C183.013 155.442 193.57 151.619 200.545 154.146C218.908 160.8 212.153 164.321 220.362 172.224C230.35 181.839 235.117 207.019 212.153 207.019C193.267 207.019 198.918 216.192 184.776 220.256C170.633 224.321 154.595 217.402 154.595 199.188C154.595 192.348 155.256 182.056 150.25 167.08Z" stroke="#A9CAB9" stroke-width="1.46"/>
<path d="M18.5239 99.8282C-5.43407 13.1849 83.5829 3.13018 147.929 29.6079C185.814 43.451 211.035 1.65522 257.433 18.4264C304.867 35.5727 249.391 87.9985 320.163 115.459C391.096 143.075 357.344 265.014 294.053 266.392C231.132 267.771 248.463 288.73 185.974 335.14C123.485 381.55 18.9191 316.96 44.5583 247.76C70.1975 179.594 44.6181 194.097 18.5239 99.8282Z" stroke="#A9CAB9" stroke-width="1.46"/>
<path d="M31.6941 106.049C9.83128 27.1709 91.3545 16.671 150.398 41.12C185.532 54.1457 209.286 16.1472 251.742 31.494C296.269 47.591 245.665 95.1264 310.18 120.631C375.019 146.447 345.118 258.71 285.86 259.951C227.343 261.191 243.506 280.972 185.852 323.147C128.198 365.322 32.4842 306.5 55.5595 242.399C78.6348 180.365 55.6795 192.389 31.6941 106.049Z" stroke="#A9CAB9" stroke-width="1.46"/>
<path d="M44.865 112.27C25.0975 41.1573 99.127 30.2123 152.868 52.6326C185.25 64.8409 207.538 30.6396 246.052 44.562C287.671 59.6098 241.939 102.255 300.198 125.803C358.943 149.82 332.894 252.407 277.669 253.509C223.555 254.612 238.55 273.214 185.731 311.155C132.911 349.096 46.0502 296.041 66.5616 237.038C87.0729 181.137 66.7417 190.681 44.865 112.27Z" stroke="#A9CAB9" stroke-width="1.46"/>
<path d="M58.0359 118.492C40.3635 55.1444 106.899 43.7542 155.338 64.1458C184.968 75.5367 205.789 45.1326 240.361 57.6307C279.074 71.6292 238.214 109.384 290.217 130.977C342.867 153.193 320.67 246.104 269.477 247.069C219.767 248.034 233.594 265.457 185.609 299.163C137.624 332.869 59.616 285.581 77.5635 231.677C95.5109 181.909 77.8038 188.974 58.0359 118.492Z" stroke="#A9CAB9" stroke-width="1.46"/>
<path d="M71.2071 125.029C55.6299 69.4466 114.672 57.6113 157.808 75.9742C184.686 86.5477 204.042 59.9409 234.671 71.0145C270.476 83.9637 234.489 116.828 280.235 136.465C326.791 156.881 308.446 240.116 261.286 240.943C215.979 241.77 228.638 258.015 185.488 287.487C142.337 316.958 73.1823 275.437 88.5658 226.632C103.949 182.996 88.8663 187.581 71.2071 125.029Z" stroke="#A9CAB9" stroke-width="1.46"/>
<path d="M84.3778 131.939C70.8958 84.1214 122.444 71.8409 160.278 88.1752C184.404 97.9312 202.293 75.1216 228.98 84.7709C261.878 96.6708 230.763 124.645 270.253 142.326C310.714 160.942 296.221 234.501 253.094 235.19C212.191 235.88 223.682 250.946 185.366 276.183C147.05 301.42 86.748 265.666 99.5676 221.959C112.387 184.456 99.9282 186.562 84.3778 131.939Z" stroke="#A9CAB9" stroke-width="1.46"/>
<path d="M97.5496 138.869C86.1628 98.8171 130.217 86.0915 162.749 100.397C184.123 109.336 200.546 90.3234 223.291 98.5482C253.282 109.399 227.038 132.482 260.272 148.208C294.639 165.024 283.998 228.907 244.903 229.458C208.403 230.01 218.726 243.897 185.245 264.9C151.764 285.902 100.315 255.916 110.57 217.307C120.826 185.936 110.991 185.563 97.5496 138.869Z" stroke="#A9CAB9" stroke-width="1.46"/>
<path d="M110.722 145.83C101.43 113.543 137.991 100.372 165.22 112.649C183.843 120.77 198.799 105.555 217.601 112.356C244.685 122.157 223.314 140.35 250.292 154.12C278.564 169.135 271.775 223.343 236.713 223.756C204.616 224.17 213.771 236.879 185.125 253.647C156.479 270.415 113.882 246.195 121.574 212.685C129.266 187.447 122.055 184.594 110.722 145.83Z" stroke="#A9CAB9" stroke-width="1.46"/>
<path d="M123.894 152.835C116.698 128.312 145.765 114.697 167.692 124.945C183.563 132.248 197.053 120.831 211.912 126.207C236.089 134.959 219.59 148.262 240.311 160.075C262.489 173.291 259.552 217.823 228.523 218.098C200.83 218.374 208.817 229.904 185.005 242.438C161.193 254.971 127.449 236.519 132.577 208.107C137.705 189.002 133.118 183.669 123.894 152.835Z" stroke="#A9CAB9" stroke-width="1.46"/>
<path d="M137.069 159.906C131.968 143.149 153.542 129.088 170.166 137.307C183.285 143.793 195.309 136.173 206.226 140.125C227.496 147.827 215.869 156.24 230.334 166.098C246.417 177.514 247.332 212.369 220.335 212.507C197.046 212.645 203.865 222.996 184.888 231.295C165.911 239.594 141.02 226.909 143.583 203.595C146.147 190.623 144.185 182.811 137.069 159.906Z" stroke="#A9CAB9" stroke-width="1.46"/>
</g>
</svg>
