<svg width="286" height="445" viewBox="0 0 286 445" fill="none" xmlns="http://www.w3.org/2000/svg">
<g opacity="0.1">
<path d="M8.29227 271.535L7.85017 271.214L8.20901 270.802L94.3696 171.878L95.1756 172.464L27.7852 285.016L27.5045 285.485L27.0624 285.164L8.29227 271.535ZM7.43154 271.262L27.59 285.899L98.9053 166.791L98.6088 166.576L7.43154 271.262Z" fill="url(#paint0_linear_166:2723)" stroke="#A9CAB9"/>
<path d="M5.92893 272.472L5.48378 272.148L5.84792 271.736L95.9331 169.725L96.7386 170.31L27.6273 287.55L27.3479 288.024L26.9028 287.701L5.92893 272.472ZM5.06119 272.195L27.434 288.44L100.166 165.06L99.8657 164.842L5.06119 272.195Z" fill="url(#paint1_linear_166:2723)" stroke="#A9CAB9"/>
<path d="M3.40237 273.375L2.95392 273.05L3.32382 272.637L97.5151 167.547L98.32 168.132L27.5514 290.228L27.2735 290.708L26.825 290.382L3.40237 273.375ZM2.53117 273.094L27.363 291.125L102.386 161.685L2.53117 273.094Z" fill="url(#paint2_linear_166:2723)" stroke="#A9CAB9"/>
<mask id="path-4-inside-1_166:2723" fill="white">
<path d="M0.99372 273.829L27.1385 292.813L99.4856 165.68L0.99372 273.829ZM27.5464 294.697L-0.922607 274.026L106.323 156.264L27.5464 294.697Z"/>
</mask>
<path d="M0.99372 273.829L27.1385 292.813L99.4856 165.68L0.99372 273.829ZM27.5464 294.697L-0.922607 274.026L106.323 156.264L27.5464 294.697Z" fill="url(#paint3_linear_166:2723)"/>
<path d="M0.99372 273.829L0.406174 274.639L-0.49792 273.982L0.254373 273.156L0.99372 273.829ZM27.1385 292.813L28.0077 293.308L27.4551 294.279L26.551 293.622L27.1385 292.813ZM99.4856 165.68L98.7462 165.007L100.355 166.174L99.4856 165.68ZM-0.922607 274.026L-1.51015 274.835L-2.41424 274.178L-1.66196 273.352L-0.922607 274.026ZM106.323 156.264L105.583 155.59L107.192 156.758L106.323 156.264ZM1.58127 273.02L27.7261 292.004L26.551 293.622L0.406174 274.639L1.58127 273.02ZM26.2694 292.318L98.6165 165.185L100.355 166.174L28.0077 293.308L26.2694 292.318ZM100.225 166.353L1.73307 274.503L0.254373 273.156L98.7462 165.007L100.225 166.353ZM26.9589 295.506L-1.51015 274.835L-0.335061 273.217L28.134 293.888L26.9589 295.506ZM-1.66196 273.352L105.583 155.59L107.062 156.937L-0.183258 274.699L-1.66196 273.352ZM107.192 156.758L28.4155 295.191L26.6773 294.202L105.453 155.769L107.192 156.758Z" fill="#A9CAB9" mask="url(#path-4-inside-1_166:2723)"/>
<path d="M-2.19295 275.04L-2.64889 274.709L-2.26597 274.295L100.739 163.109L101.542 163.693L27.7064 296.058L27.4319 296.55L26.976 296.219L-2.19295 275.04ZM-3.07682 274.751L27.5239 296.97L104.986 158.106L-3.07682 274.751Z" fill="url(#paint4_linear_166:2723)" stroke="#A9CAB9"/>
<mask id="path-7-inside-2_166:2723" fill="white">
<path d="M-5.00537 275.379L27.5235 298.998L102.75 161.183L-5.00537 275.379ZM27.9509 300.896L-6.94385 275.559L108.649 153.059L27.9509 300.896Z"/>
</mask>
<path d="M-5.00537 275.379L27.5235 298.998L102.75 161.183L-5.00537 275.379ZM27.9509 300.896L-6.94385 275.559L108.649 153.059L27.9509 300.896Z" fill="url(#paint5_linear_166:2723)"/>
<path d="M-5.00537 275.379L-5.59291 276.188L-6.51327 275.52L-5.73268 274.693L-5.00537 275.379ZM27.5235 298.998L28.4013 299.477L27.8563 300.475L26.936 299.807L27.5235 298.998ZM102.75 161.183L102.023 160.497L103.628 161.662L102.75 161.183ZM-6.94385 275.559L-7.53139 276.368L-8.45175 275.7L-7.67116 274.873L-6.94385 275.559ZM108.649 153.059L107.922 152.373L109.527 153.538L108.649 153.059ZM-4.41782 274.57L28.1111 298.189L26.936 299.807L-5.59291 276.188L-4.41782 274.57ZM26.6458 298.519L101.873 160.704L103.628 161.662L28.4013 299.477L26.6458 298.519ZM103.478 161.869L-4.27805 276.065L-5.73268 274.693L102.023 160.497L103.478 161.869ZM27.3633 301.705L-7.53139 276.368L-6.3563 274.75L28.5384 300.087L27.3633 301.705ZM-7.67116 274.873L107.922 152.373L109.376 153.746L-6.21653 276.245L-7.67116 274.873ZM109.527 153.538L28.8286 301.375L27.0731 300.417L107.771 152.58L109.527 153.538Z" fill="#A9CAB9" mask="url(#path-7-inside-2_166:2723)"/>
<path d="M-8.63464 276.452L-9.09942 276.114L-8.70113 275.7L104.063 158.533L104.865 159.115L28.3626 302.612L28.0924 303.119L27.6277 302.781L-8.63464 276.452ZM-9.53222 276.152L28.1908 303.542L107.771 154.269L-9.53222 276.152Z" fill="url(#paint6_linear_166:2723)" stroke="#A9CAB9"/>
<mask id="path-10-inside-3_166:2723" fill="white">
<path d="M-11.9307 276.626L28.4822 305.969L106.125 156.536L-11.9307 276.626ZM28.9331 307.886L-13.8936 276.79L111.218 149.522L28.9331 307.886Z"/>
</mask>
<path d="M-11.9307 276.626L28.4822 305.969L106.125 156.536L-11.9307 276.626ZM28.9331 307.886L-13.8936 276.79L111.218 149.522L28.9331 307.886Z" fill="url(#paint7_linear_166:2723)"/>
<path d="M-11.9307 276.626L-12.5183 277.435L-13.4579 276.753L-12.6439 275.925L-11.9307 276.626ZM28.4822 305.969L29.3696 306.43L28.8342 307.461L27.8946 306.778L28.4822 305.969ZM106.125 156.536L105.412 155.835L107.012 156.997L106.125 156.536ZM-13.8936 276.79L-14.4811 277.6L-15.4207 276.917L-14.6067 276.089L-13.8936 276.79ZM111.218 149.522L110.505 148.821L112.105 149.983L111.218 149.522ZM-11.3432 275.816L29.0697 305.16L27.8946 306.778L-12.5183 277.435L-11.3432 275.816ZM27.5948 305.508L105.238 156.075L107.012 156.997L29.3696 306.43L27.5948 305.508ZM106.838 157.237L-11.2176 277.327L-12.6439 275.925L105.412 155.835L106.838 157.237ZM28.3455 308.696L-14.4811 277.6L-13.306 275.981L29.5206 307.077L28.3455 308.696ZM-14.6067 276.089L110.505 148.821L111.931 150.223L-13.1804 277.491L-14.6067 276.089ZM112.105 149.983L29.8205 308.348L28.0457 307.425L110.331 149.061L112.105 149.983Z" fill="#A9CAB9" mask="url(#path-10-inside-3_166:2723)"/>
<mask id="path-12-inside-4_166:2723" fill="white">
<path d="M-15.798 277.104L29.2246 309.795L107.86 154.147L-15.798 277.104ZM29.6909 311.721L-17.7739 277.257L112.593 147.628L29.6909 311.721Z"/>
</mask>
<path d="M-15.798 277.104L29.2246 309.795L107.86 154.147L-15.798 277.104ZM29.6909 311.721L-17.7739 277.257L112.593 147.628L29.6909 311.721Z" fill="url(#paint8_linear_166:2723)"/>
<path d="M-15.798 277.104L-16.3855 277.914L-17.336 277.224L-16.5031 276.395L-15.798 277.104ZM29.2246 309.795L30.1172 310.246L29.5875 311.294L28.6371 310.604L29.2246 309.795ZM107.86 154.147L107.155 153.438L108.752 154.598L107.86 154.147ZM-17.7739 277.257L-18.3615 278.067L-19.3119 277.377L-18.479 276.548L-17.7739 277.257ZM112.593 147.628L111.888 146.919L113.486 148.079L112.593 147.628ZM-15.2104 276.295L29.8122 308.986L28.6371 310.604L-16.3855 277.914L-15.2104 276.295ZM28.3321 309.344L106.967 153.696L108.752 154.598L30.1172 310.246L28.3321 309.344ZM108.565 154.856L-15.0929 277.814L-16.5031 276.395L107.155 153.438L108.565 154.856ZM29.1033 312.53L-18.3615 278.067L-17.1864 276.448L30.2784 310.912L29.1033 312.53ZM-18.479 276.548L111.888 146.919L113.298 148.337L-17.0688 277.967L-18.479 276.548ZM113.486 148.079L30.5834 312.172L28.7983 311.27L111.701 147.177L113.486 148.079Z" fill="#A9CAB9" mask="url(#path-12-inside-4_166:2723)"/>
<path d="M-20.2628 277.866L-20.7439 277.516L-20.3172 277.102L109.281 151.351L110.078 151.93L30.6255 314.091L30.3638 314.625L29.8827 314.276L-20.2628 277.866ZM-21.1866 277.549L30.4699 315.056L112.318 148.007L-21.1866 277.549Z" fill="url(#paint9_linear_166:2723)" stroke="#A9CAB9"/>
<path d="M-24.7695 278.085L-25.2572 277.731L-24.8192 277.317L111.092 148.859L111.887 149.437L31.8148 318.439L31.5568 318.983L31.0692 318.629L-24.7695 278.085ZM-25.7027 277.76L31.6678 319.416L113.936 145.778L-25.7027 277.76Z" fill="url(#paint10_linear_166:2723)" stroke="#A9CAB9"/>
<mask id="path-16-inside-5_166:2723" fill="white">
<path d="M-29.3499 277.74L32.8148 322.878L113.282 146.679L-29.3499 277.74ZM33.3312 324.841L-31.3767 277.857L117.09 141.434L33.3312 324.841Z"/>
</mask>
<path d="M-29.3499 277.74L32.8148 322.878L113.282 146.679L-29.3499 277.74ZM33.3312 324.841L-31.3767 277.857L117.09 141.434L33.3312 324.841Z" fill="url(#paint11_linear_166:2723)"/>
<path d="M-29.3499 277.74L-29.9374 278.55L-30.9267 277.831L-30.0265 277.004L-29.3499 277.74ZM32.8148 322.878L33.7245 323.293L33.2166 324.405L32.2273 323.687L32.8148 322.878ZM113.282 146.679L112.605 145.942L114.192 147.094L113.282 146.679ZM-31.3767 277.857L-31.9643 278.666L-32.9536 277.948L-32.0533 277.121L-31.3767 277.857ZM117.09 141.434L116.414 140.698L118 141.849L117.09 141.434ZM-28.7623 276.931L33.4024 322.069L32.2273 323.687L-29.9374 278.55L-28.7623 276.931ZM31.9052 322.462L112.372 146.263L114.192 147.094L33.7245 323.293L31.9052 322.462ZM113.959 147.415L-28.6733 278.477L-30.0265 277.004L112.605 145.942L113.959 147.415ZM32.7436 325.65L-31.9643 278.666L-30.7892 277.048L33.9187 324.032L32.7436 325.65ZM-32.0533 277.121L116.414 140.698L117.767 142.17L-30.7001 278.594L-32.0533 277.121ZM118 141.849L34.2408 325.257L32.4216 324.426L116.181 141.019L118 141.849Z" fill="#A9CAB9" mask="url(#path-16-inside-5_166:2723)"/>
<path d="M-34.9218 278.023L-35.4241 277.658L-34.9607 277.245L114.837 143.705L115.628 144.279L35.0229 328.06L34.7736 328.628L34.2712 328.263L-34.9218 278.023ZM-35.878 277.681L34.8927 329.067L117.336 141.096L-35.878 277.681Z" fill="url(#paint12_linear_166:2723)" stroke="#A9CAB9"/>
<path d="M-40.6453 277.694L-41.156 277.323L-40.6782 276.91L116.776 141.039L117.564 141.611L37.1113 333.393L36.8672 333.975L36.3565 333.604L-40.6453 277.694ZM-41.6151 277.341L36.9916 334.417L119.119 138.64L-41.6151 277.341Z" fill="url(#paint13_linear_166:2723)" stroke="#A9CAB9"/>
<path d="M-46.8597 277.123L-47.3796 276.746L-46.886 276.335L118.762 138.307L119.546 138.877L39.5803 339.117L39.342 339.714L38.8222 339.336L-46.8597 277.123ZM-47.8434 276.763L39.4743 340.164L120.961 136.103L-47.8434 276.763Z" fill="url(#paint14_linear_166:2723)" stroke="#A9CAB9"/>
<path d="M-53.6137 276.286L-54.1435 275.901L-53.6328 275.491L120.798 135.508L122.226 134.361L121.578 136.075L42.4649 345.267L42.2333 345.88L41.7034 345.495L-53.6137 276.286ZM-54.6135 275.912L42.3803 346.338L122.863 133.484L-54.6135 275.912Z" fill="url(#paint15_linear_166:2723)" stroke="#A9CAB9"/>
<path d="M-60.9641 275.14L-61.5049 274.747L-60.9756 274.339L122.885 132.637L124.231 131.6L123.661 133.201L45.842 351.899L45.6179 352.528L45.0772 352.136L-60.9641 275.14ZM-61.9803 274.754L45.7561 352.98L124.825 130.781L-61.9803 274.754Z" fill="url(#paint16_linear_166:2723)" stroke="#A9CAB9"/>
<mask id="path-23-inside-6_166:2723" fill="white">
<path d="M-68.6773 273.243L49.2664 358.881L125.325 130.093L-68.6773 273.243ZM49.9372 360.956L-70.8531 273.251L127.823 126.653L49.9372 360.956Z"/>
</mask>
<path d="M-68.6773 273.243L49.2664 358.881L125.325 130.093L-68.6773 273.243ZM49.9372 360.956L-70.8531 273.251L127.823 126.653L49.9372 360.956Z" fill="url(#paint17_linear_166:2723)"/>
<path d="M-68.6773 273.243L-69.2648 274.052L-70.3703 273.249L-69.271 272.438L-68.6773 273.243ZM49.2664 358.881L50.2153 359.196L49.7843 360.493L48.6788 359.69L49.2664 358.881ZM125.325 130.093L124.731 129.288L127.269 127.416L126.274 130.409L125.325 130.093ZM-70.8531 273.251L-71.4407 274.06L-72.5462 273.258L-71.4469 272.447L-70.8531 273.251ZM127.823 126.653L127.229 125.848L129.766 123.976L128.772 126.968L127.823 126.653ZM-68.0897 272.434L49.8539 358.071L48.6788 359.69L-69.2648 274.052L-68.0897 272.434ZM48.3174 358.565L124.376 129.778L126.274 130.409L50.2153 359.196L48.3174 358.565ZM125.919 130.898L-68.0836 274.047L-69.271 272.438L124.731 129.288L125.919 130.898ZM49.3496 361.765L-71.4407 274.06L-70.2656 272.442L50.5247 360.147L49.3496 361.765ZM-71.4469 272.447L127.229 125.848L128.417 127.457L-70.2594 274.056L-71.4469 272.447ZM128.772 126.968L50.8861 361.271L48.9882 360.641L126.874 126.337L128.772 126.968Z" fill="#A9CAB9" mask="url(#path-23-inside-6_166:2723)"/>
<path d="M-77.7017 271.76L-78.2675 271.35L-77.6957 270.947L127.227 126.667L128.424 125.825L127.993 127.223L54.2384 366.743L54.0326 367.412L53.4668 367.001L-77.7017 271.76ZM-78.7585 271.347L54.1845 367.876L128.942 125.111L-78.7585 271.347Z" fill="url(#paint18_linear_166:2723)" stroke="#A9CAB9"/>
<path d="M-87.235 269.431L-87.8152 269.01L-87.2194 268.611L129.486 123.564L130.614 122.809L130.245 124.116L59.4083 375.076L59.2135 375.766L58.6333 375.345L-87.235 269.431ZM-88.3141 269L59.3766 376.237L131.099 122.141L-88.3141 269Z" fill="url(#paint19_linear_166:2723)" stroke="#A9CAB9"/>
<path d="M-97.6545 266.601L-98.2505 266.169L-97.6284 265.774L131.807 120.375L132.871 119.701L132.559 120.921L65.3265 384.095L65.1442 384.808L64.5483 384.375L-97.6545 266.601ZM-98.7567 266.153L65.3147 385.284L133.325 119.076L-98.5792 266.04L-98.5792 266.04L-98.7567 266.153Z" fill="url(#paint20_linear_166:2723)" stroke="#A9CAB9"/>
<mask id="path-28-inside-7_166:2723" fill="white">
<path d="M-108.755 262.803L71.5958 393.755L134.448 117.528L-108.755 262.803ZM72.4225 395.943L-111.085 262.699L136.367 114.885L72.4225 395.943Z"/>
</mask>
<path d="M-108.755 262.803L71.5958 393.755L134.448 117.528L-108.755 262.803ZM72.4225 395.943L-111.085 262.699L136.367 114.885L72.4225 395.943Z" fill="url(#paint21_linear_166:2723)"/>
<path d="M-108.755 262.803L-109.342 263.613L-110.569 262.722L-109.268 261.945L-108.755 262.803ZM71.5958 393.755L72.5709 393.977L72.2347 395.454L71.0083 394.564L71.5958 393.755ZM134.448 117.528L133.935 116.67L135.942 115.471L135.423 117.75L134.448 117.528ZM-111.085 262.699L-111.672 263.509L-112.899 262.618L-111.598 261.841L-111.085 262.699ZM136.367 114.885L135.854 114.026L137.861 112.828L137.342 115.107L136.367 114.885ZM-108.167 261.994L72.1834 392.945L71.0083 394.564L-109.342 263.613L-108.167 261.994ZM70.6208 393.533L133.473 117.306L135.423 117.75L72.5709 393.977L70.6208 393.533ZM134.961 118.387L-108.242 263.662L-109.268 261.945L133.935 116.67L134.961 118.387ZM71.8349 396.752L-111.672 263.509L-110.497 261.89L73.01 395.133L71.8349 396.752ZM-111.598 261.841L135.854 114.026L136.88 115.743L-110.572 263.558L-111.598 261.841ZM137.342 115.107L73.3976 396.164L71.4474 395.721L135.392 114.663L137.342 115.107Z" fill="#A9CAB9" mask="url(#path-28-inside-7_166:2723)"/>
<mask id="path-30-inside-8_166:2723" fill="white">
<path d="M-121.23 258.778L79.2883 404.373L136.888 114.168L-121.23 258.778ZM80.1538 406.589L-123.609 258.639L138.691 111.685L80.1538 406.589Z"/>
</mask>
<path d="M-121.23 258.778L79.2883 404.373L136.888 114.168L-121.23 258.778ZM80.1538 406.589L-123.609 258.639L138.691 111.685L80.1538 406.589Z" fill="url(#paint22_linear_166:2723)"/>
<path d="M-121.23 258.778L-121.818 259.588L-123.082 258.67L-121.719 257.906L-121.23 258.778ZM79.2883 404.373L80.2692 404.568L79.965 406.1L78.7008 405.182L79.2883 404.373ZM136.888 114.168L136.399 113.296L138.291 112.236L137.869 114.363L136.888 114.168ZM-123.609 258.639L-124.197 259.448L-125.461 258.53L-124.098 257.766L-123.609 258.639ZM138.691 111.685L138.202 110.812L140.094 109.752L139.672 111.879L138.691 111.685ZM-120.643 257.969L79.8758 403.564L78.7008 405.182L-121.818 259.588L-120.643 257.969ZM78.3074 404.178L135.907 113.974L137.869 114.363L80.2692 404.568L78.3074 404.178ZM137.377 115.041L-120.741 259.651L-121.719 257.906L136.399 113.296L137.377 115.041ZM79.5662 407.398L-124.197 259.448L-123.022 257.829L80.7413 405.78L79.5662 407.398ZM-124.098 257.766L138.202 110.812L139.18 112.557L-123.12 259.511L-124.098 257.766ZM139.672 111.879L81.1347 406.784L79.1729 406.394L137.71 111.49L139.672 111.879Z" fill="#A9CAB9" mask="url(#path-30-inside-8_166:2723)"/>
<path d="M-135.194 254.444L-135.847 253.97L-135.131 253.596L139.165 110.269L140.057 109.803L139.89 110.795L88.5153 415.984L88.3814 416.78L87.7285 416.306L-135.194 254.444ZM-136.385 253.931L88.5934 417.286L140.433 109.286L-136.385 253.931Z" fill="url(#paint23_linear_166:2723)" stroke="#A9CAB9"/>
<mask id="path-33-inside-9_166:2723" fill="white">
<path d="M-149.89 248.502L97.9375 428.447L141.977 107.159L-149.89 248.502ZM98.9186 430.75L-152.383 248.282L143.577 104.955L98.9186 430.75Z"/>
</mask>
<path d="M-149.89 248.502L97.9375 428.447L141.977 107.159L-149.89 248.502ZM98.9186 430.75L-152.383 248.282L143.577 104.955L98.9186 430.75Z" fill="url(#paint24_linear_166:2723)"/>
<path d="M-149.89 248.502L-150.478 249.311L-151.829 248.33L-150.326 247.602L-149.89 248.502ZM97.9375 428.447L98.9283 428.583L98.7014 430.238L97.35 429.256L97.9375 428.447ZM141.977 107.159L141.541 106.259L143.221 105.445L142.968 107.295L141.977 107.159ZM-152.383 248.282L-152.971 249.091L-154.322 248.11L-152.819 247.382L-152.383 248.282ZM143.577 104.955L143.141 104.055L144.821 103.242L144.568 105.091L143.577 104.955ZM-149.303 247.692L98.5251 427.638L97.35 429.256L-150.478 249.311L-149.303 247.692ZM96.9468 428.311L140.986 107.023L142.968 107.295L98.9283 428.583L96.9468 428.311ZM142.413 108.059L-149.454 249.402L-150.326 247.602L141.541 106.259L142.413 108.059ZM98.3311 431.559L-152.971 249.091L-151.796 247.472L99.5061 429.94L98.3311 431.559ZM-152.819 247.382L143.141 104.055L144.013 105.855L-151.947 249.182L-152.819 247.382ZM144.568 105.091L99.9093 430.885L97.9279 430.614L142.586 104.82L144.568 105.091Z" fill="#A9CAB9" mask="url(#path-33-inside-9_166:2723)"/>
<path d="M-166.638 242.473L-167.339 241.964L-166.548 241.612L144.428 103.047L145.219 102.694L145.128 103.556L109.645 442.153L109.554 443.014L108.854 442.505L-166.638 242.473ZM-167.906 241.904L109.787 443.535L145.554 102.232L-167.906 241.904Z" fill="url(#paint25_linear_166:2723)" stroke="#A9CAB9"/>
</g>
<defs>
<linearGradient id="paint0_linear_166:2723" x1="47.6111" y1="214.992" x2="68.654" y2="230.271" gradientUnits="userSpaceOnUse">
<stop stop-color="#A9CAB9"/>
<stop offset="0.95426" stop-color="#B4F7FD"/>
<stop offset="0.999362" stop-color="#B6FBFF"/>
<stop offset="1" stop-color="#B6FBFF"/>
</linearGradient>
<linearGradient id="paint1_linear_166:2723" x1="46.5003" y1="214.188" x2="69.7633" y2="231.079" gradientUnits="userSpaceOnUse">
<stop stop-color="#A9CAB9"/>
<stop offset="0.95426" stop-color="#B4F7FD"/>
<stop offset="0.999362" stop-color="#B6FBFF"/>
<stop offset="1" stop-color="#B6FBFF"/>
</linearGradient>
<linearGradient id="paint2_linear_166:2723" x1="47.0871" y1="210.787" x2="72.8158" y2="229.469" gradientUnits="userSpaceOnUse">
<stop stop-color="#A9CAB9"/>
<stop offset="0.95426" stop-color="#B4F7FD"/>
<stop offset="0.999362" stop-color="#B6FBFF"/>
<stop offset="1" stop-color="#B6FBFF"/>
</linearGradient>
<linearGradient id="paint3_linear_166:2723" x1="45.5832" y1="209.976" x2="74.0517" y2="230.647" gradientUnits="userSpaceOnUse">
<stop stop-color="#A9CAB9"/>
<stop offset="0.95426" stop-color="#B4F7FD"/>
<stop offset="0.999362" stop-color="#B6FBFF"/>
<stop offset="1" stop-color="#B6FBFF"/>
</linearGradient>
<linearGradient id="paint4_linear_166:2723" x1="43.9374" y1="209.043" x2="75.4501" y2="231.924" gradientUnits="userSpaceOnUse">
<stop stop-color="#A9CAB9"/>
<stop offset="0.95426" stop-color="#B4F7FD"/>
<stop offset="0.999362" stop-color="#B6FBFF"/>
<stop offset="1" stop-color="#B6FBFF"/>
</linearGradient>
<linearGradient id="paint5_linear_166:2723" x1="42.1298" y1="207.976" x2="77.0245" y2="233.313" gradientUnits="userSpaceOnUse">
<stop stop-color="#A9CAB9"/>
<stop offset="0.95426" stop-color="#B4F7FD"/>
<stop offset="0.999362" stop-color="#B6FBFF"/>
<stop offset="1" stop-color="#B6FBFF"/>
</linearGradient>
<linearGradient id="paint6_linear_166:2723" x1="40.1434" y1="206.759" x2="78.7955" y2="234.824" gradientUnits="userSpaceOnUse">
<stop stop-color="#A9CAB9"/>
<stop offset="0.95426" stop-color="#B4F7FD"/>
<stop offset="0.999362" stop-color="#B6FBFF"/>
<stop offset="1" stop-color="#B6FBFF"/>
</linearGradient>
<linearGradient id="paint7_linear_166:2723" x1="37.9555" y1="205.382" x2="80.7823" y2="236.478" gradientUnits="userSpaceOnUse">
<stop stop-color="#A9CAB9"/>
<stop offset="0.95426" stop-color="#B4F7FD"/>
<stop offset="0.999362" stop-color="#B6FBFF"/>
<stop offset="1" stop-color="#B6FBFF"/>
</linearGradient>
<linearGradient id="paint8_linear_166:2723" x1="35.5434" y1="203.827" x2="83.0089" y2="238.291" gradientUnits="userSpaceOnUse">
<stop stop-color="#A9CAB9"/>
<stop offset="0.95426" stop-color="#B4F7FD"/>
<stop offset="0.999362" stop-color="#B6FBFF"/>
<stop offset="1" stop-color="#B6FBFF"/>
</linearGradient>
<linearGradient id="paint9_linear_166:2723" x1="32.8796" y1="202.075" x2="85.499" y2="240.281" gradientUnits="userSpaceOnUse">
<stop stop-color="#A9CAB9"/>
<stop offset="0.95426" stop-color="#B4F7FD"/>
<stop offset="0.999362" stop-color="#B6FBFF"/>
<stop offset="1" stop-color="#B6FBFF"/>
</linearGradient>
<linearGradient id="paint10_linear_166:2723" x1="29.9353" y1="200.107" x2="88.2801" y2="242.471" gradientUnits="userSpaceOnUse">
<stop stop-color="#A9CAB9"/>
<stop offset="0.95426" stop-color="#B4F7FD"/>
<stop offset="0.999362" stop-color="#B6FBFF"/>
<stop offset="1" stop-color="#B6FBFF"/>
</linearGradient>
<linearGradient id="paint11_linear_166:2723" x1="26.6812" y1="197.901" x2="91.3879" y2="244.884" gradientUnits="userSpaceOnUse">
<stop stop-color="#A9CAB9"/>
<stop offset="0.95426" stop-color="#B4F7FD"/>
<stop offset="0.999362" stop-color="#B6FBFF"/>
<stop offset="1" stop-color="#B6FBFF"/>
</linearGradient>
<linearGradient id="paint12_linear_166:2723" x1="23.0765" y1="195.43" x2="94.8515" y2="247.545" gradientUnits="userSpaceOnUse">
<stop stop-color="#A9CAB9"/>
<stop offset="0.95426" stop-color="#B4F7FD"/>
<stop offset="0.999362" stop-color="#B6FBFF"/>
<stop offset="1" stop-color="#B6FBFF"/>
</linearGradient>
<linearGradient id="paint13_linear_166:2723" x1="19.0853" y1="192.668" x2="98.713" y2="250.485" gradientUnits="userSpaceOnUse">
<stop stop-color="#A9CAB9"/>
<stop offset="0.95426" stop-color="#B4F7FD"/>
<stop offset="0.999362" stop-color="#B6FBFF"/>
<stop offset="1" stop-color="#B6FBFF"/>
</linearGradient>
<linearGradient id="paint14_linear_166:2723" x1="14.6614" y1="189.583" x2="103.015" y2="253.736" gradientUnits="userSpaceOnUse">
<stop stop-color="#A9CAB9"/>
<stop offset="0.95426" stop-color="#B4F7FD"/>
<stop offset="0.999362" stop-color="#B6FBFF"/>
<stop offset="1" stop-color="#B6FBFF"/>
</linearGradient>
<linearGradient id="paint15_linear_166:2723" x1="9.75853" y1="186.142" x2="107.806" y2="257.333" gradientUnits="userSpaceOnUse">
<stop stop-color="#A9CAB9"/>
<stop offset="0.95426" stop-color="#B4F7FD"/>
<stop offset="0.999362" stop-color="#B6FBFF"/>
<stop offset="1" stop-color="#B6FBFF"/>
</linearGradient>
<linearGradient id="paint16_linear_166:2723" x1="4.32147" y1="182.303" x2="113.139" y2="261.315" gradientUnits="userSpaceOnUse">
<stop stop-color="#A9CAB9"/>
<stop offset="0.95426" stop-color="#B4F7FD"/>
<stop offset="0.999362" stop-color="#B6FBFF"/>
<stop offset="1" stop-color="#B6FBFF"/>
</linearGradient>
<linearGradient id="paint17_linear_166:2723" x1="-1.71095" y1="178.026" x2="119.074" y2="265.727" gradientUnits="userSpaceOnUse">
<stop stop-color="#A9CAB9"/>
<stop offset="0.95426" stop-color="#B4F7FD"/>
<stop offset="0.999362" stop-color="#B6FBFF"/>
<stop offset="1" stop-color="#B6FBFF"/>
</linearGradient>
<linearGradient id="paint18_linear_166:2723" x1="-8.40339" y1="173.261" x2="125.678" y2="270.616" gradientUnits="userSpaceOnUse">
<stop stop-color="#A9CAB9"/>
<stop offset="0.95426" stop-color="#B4F7FD"/>
<stop offset="0.999362" stop-color="#B6FBFF"/>
<stop offset="1" stop-color="#B6FBFF"/>
</linearGradient>
<linearGradient id="paint19_linear_166:2723" x1="-15.8332" y1="167.956" x2="133.022" y2="276.038" gradientUnits="userSpaceOnUse">
<stop stop-color="#A9CAB9"/>
<stop offset="0.95426" stop-color="#B4F7FD"/>
<stop offset="0.999362" stop-color="#B6FBFF"/>
<stop offset="1" stop-color="#B6FBFF"/>
</linearGradient>
<linearGradient id="paint20_linear_166:2723" x1="-24.0795" y1="162.051" x2="141.189" y2="282.051" gradientUnits="userSpaceOnUse">
<stop stop-color="#A9CAB9"/>
<stop offset="0.95426" stop-color="#B4F7FD"/>
<stop offset="0.999362" stop-color="#B6FBFF"/>
<stop offset="1" stop-color="#B6FBFF"/>
</linearGradient>
<linearGradient id="paint21_linear_166:2723" x1="-33.2359" y1="155.48" x2="150.27" y2="288.723" gradientUnits="userSpaceOnUse">
<stop stop-color="#A9CAB9"/>
<stop offset="0.95426" stop-color="#B4F7FD"/>
<stop offset="0.999362" stop-color="#B6FBFF"/>
<stop offset="1" stop-color="#B6FBFF"/>
</linearGradient>
<linearGradient id="paint22_linear_166:2723" x1="-43.4023" y1="148.172" x2="160.367" y2="296.127" gradientUnits="userSpaceOnUse">
<stop stop-color="#A9CAB9"/>
<stop offset="0.95426" stop-color="#B4F7FD"/>
<stop offset="0.999362" stop-color="#B6FBFF"/>
<stop offset="1" stop-color="#B6FBFF"/>
</linearGradient>
<linearGradient id="paint23_linear_166:2723" x1="-54.6901" y1="140.043" x2="171.593" y2="304.346" gradientUnits="userSpaceOnUse">
<stop stop-color="#A9CAB9"/>
<stop offset="0.95426" stop-color="#B4F7FD"/>
<stop offset="0.999362" stop-color="#B6FBFF"/>
<stop offset="1" stop-color="#B6FBFF"/>
</linearGradient>
<linearGradient id="paint24_linear_166:2723" x1="-67.2279" y1="131.003" x2="184.07" y2="313.468" gradientUnits="userSpaceOnUse">
<stop stop-color="#A9CAB9"/>
<stop offset="0.95426" stop-color="#B4F7FD"/>
<stop offset="0.999362" stop-color="#B6FBFF"/>
<stop offset="1" stop-color="#B6FBFF"/>
</linearGradient>
<linearGradient id="paint25_linear_166:2723" x1="-81.1527" y1="120.95" x2="197.939" y2="323.596" gradientUnits="userSpaceOnUse">
<stop stop-color="#A9CAB9"/>
<stop offset="0.95426" stop-color="#B4F7FD"/>
<stop offset="0.999362" stop-color="#B6FBFF"/>
<stop offset="1" stop-color="#B6FBFF"/>
</linearGradient>
</defs>
</svg>
