<svg width="92" height="92" viewBox="0 0 92 92" fill="none" xmlns="http://www.w3.org/2000/svg">
<path d="M36.4165 6.32683C34.0315 0.225257 22.2323 -2.78782 24.1794 9.36096C24.4987 11.3529 24.5308 14.783 24.1794 18.958C23.8575 22.7826 17.5563 24.8753 15.622 29.8171C12.5885 37.5673 23.9306 42.9692 22.1256 47.0433C19.7616 52.3794 12.5232 54.6946 8.51941 57.614C4.75028 60.3623 2.34945 64.772 1.42762 69.3057C-0.189608 77.2594 2.74527 85.5947 10.8299 86.0094C14.877 86.217 20.2147 84.4397 26.9178 79.6362C29.9147 77.4885 32.5574 75.7185 34.9061 74.2874C40.9512 70.6038 39.326 79.3169 46.5142 79.6362C50.61 79.8181 54.8878 72.296 58.1261 76.3083C60.4288 79.1613 63.0712 82.623 66.8448 86.1819C73.4718 92.4319 81.7575 93.3521 82.9294 84.4321C83.4826 80.2213 82.4506 73.8178 78.9107 64.7469C76.6453 58.9422 82.2802 59.1468 82.9294 51.7082C83.5787 44.2696 78.2696 40.8391 82.1128 37.7604L82.1898 37.6988C85.1192 35.3524 88.2435 32.8499 89.9497 28.0434C91.4194 23.903 91.279 19.8022 89.9497 16.6512C88.527 13.2789 85.7426 10.9944 82.1128 10.9134C78.4708 10.8321 73.9778 12.9691 69.1553 18.4515C65.9757 22.0661 63.8225 13.6554 58.1261 14.5152C52.4298 15.375 51.6381 23.4902 48.2256 21.1365C42.2979 17.0478 39.2097 13.4729 36.4165 6.32683Z" stroke="#C85A16" stroke-width="0.4"/>
<path d="M47.9224 39.6095C47.5594 38.6728 45.8679 38.9187 45.7823 39.9338C45.6848 41.0897 46.279 42.5959 46.2103 43.7545C46.0777 45.9915 45.274 46.6282 43.6736 47.8073C43.1 48.2292 42.7347 48.9062 42.5944 49.6022C42.3483 50.8232 42.7949 52.1028 44.0253 52.1665C44.6412 52.1983 45.4535 51.9255 46.4736 51.1881C46.9297 50.8584 47.3319 50.5866 47.6893 50.3669C49.2453 49.3339 50.6935 50.1433 51.2231 50.6772C51.5735 51.1152 51.9756 51.6466 52.5499 52.1929C53.5585 53.1524 55.0857 53.0267 54.9978 51.9243C54.8735 50.3669 52.1694 44.5537 54.9978 43.54C56.3116 43.0691 56.2685 42.0025 56.0662 41.5188C55.8496 41.0011 55.4259 40.6504 54.8735 40.638C54.3192 40.6255 53.4011 41.5188 52.9015 41.7952C51.0576 42.8154 49.4122 43.3428 47.9224 39.6095Z" stroke="#C85A16" stroke-width="0.4"/>
<path d="M26.1521 12.0189C24.424 0.959331 35.2065 3.71626 37.3931 9.30985C40.0701 16.1483 43.0297 19.3533 48.5909 22.9811C51.7185 25.1102 52.4711 17.7004 57.6869 16.895C62.9027 16.0896 64.8954 23.722 67.8136 20.4339C72.2517 15.447 76.3784 13.5344 79.7118 13.655C83.0237 13.7506 85.5627 15.864 86.8455 18.967C88.0434 21.8687 88.1423 25.6344 86.7452 29.4226C84.9219 33.9255 82.2888 36.7283 79.6147 39.0199C76.1218 41.8707 80.9197 45.0195 80.2837 51.7917C79.6478 58.5639 74.4631 58.359 76.4785 63.597C79.6472 71.8005 80.5496 77.5786 80.0143 81.3701C78.9239 89.4616 71.34 88.5941 65.2536 82.8951C61.7635 79.6445 59.2909 76.5001 57.125 73.951C54.146 70.3203 50.2171 77.1886 46.449 77.0528C39.8622 76.7956 41.2993 68.891 35.762 72.2565C33.5879 73.5727 31.1509 75.1885 28.396 77.1411C22.1851 81.5057 17.2879 83.0072 13.6279 82.7082C6.27825 82.2995 3.61937 74.6849 5.10728 67.4205C5.96245 63.2678 8.16826 59.231 11.6238 56.7116C15.4123 53.9491 22.0715 51.7852 24.2345 46.7285C25.8799 42.9695 15.5481 37.9946 18.2966 30.8833C20.0449 26.3271 25.7669 24.363 26.0642 20.8312C26.3878 16.9869 26.399 13.8377 26.1521 12.0189Z" stroke="#C85A16" stroke-width="0.4"/>
<path d="M28.2137 14.7889C26.7073 4.85476 36.4573 7.34649 38.4422 12.4137C40.9991 18.9214 43.8257 21.746 49.0123 24.9014C51.8506 26.7987 52.563 20.1187 57.2906 19.3705C62.0183 18.6222 63.8475 25.4512 66.5001 22.5004C70.5473 18.0254 74.3016 16.3433 77.3216 16.5029C80.3107 16.6126 82.6007 18.548 83.7417 21.3715C84.8064 24.0142 84.8635 27.4323 83.5412 30.856C81.6183 34.9981 79.5203 38.0893 77.1274 40.3005C73.99 42.9139 78.2696 45.7707 77.6479 51.8543C77.0262 57.9379 72.2993 57.7333 74.0616 62.3875C76.8544 69.6969 77.6259 74.8307 77.1094 78.1906C76.1021 85.4271 69.2311 84.6152 63.6942 79.4859C60.4926 76.5543 58.1935 73.7374 56.1675 71.5005C53.4522 68.2634 49.878 74.4552 46.443 74.366C40.4673 74.1716 41.7141 67.1014 36.6926 70.1378C34.6963 71.3347 32.4686 72.791 29.9598 74.5421C24.2501 78.4534 19.8005 79.6745 16.533 79.2852C9.92914 78.8839 7.55016 72.0151 8.90657 65.4641C9.69384 61.706 11.7014 58.0553 14.8383 55.773C18.406 53.1767 24.4762 51.1713 26.4351 46.411C27.9185 42.9796 18.6121 38.4481 21.0715 31.9991C22.6313 27.8435 27.7658 26.0147 28.0381 22.7873C28.3334 19.2864 28.3879 16.4285 28.2137 14.7889Z" stroke="#C85A16" stroke-width="0.4"/>
<path d="M30.1858 17.4471C28.8987 8.60208 37.6313 10.8376 39.4177 15.3968C41.8585 21.5969 44.5565 24.0515 49.3766 26.7461C51.9298 28.4187 52.6031 22.4442 56.85 21.7503C61.0968 21.0565 62.7653 27.1071 65.1564 24.4829C68.819 20.5034 72.2067 19.0457 74.918 19.2446C77.5889 19.3689 79.6333 21.1332 80.6343 23.6874C81.5674 26.0808 81.5829 29.1637 80.3333 32.2352C78.3078 36.0315 76.7417 39.4212 74.6263 41.5596C71.8396 43.9451 75.6076 46.5202 74.9991 51.9375C74.3907 57.3547 70.1142 57.1497 71.6262 61.2371C74.0473 67.6792 74.6891 72.1876 74.1905 75.1283C73.2648 81.5363 67.096 80.777 62.1001 76.1988C59.182 73.5755 57.0528 71.0758 55.1635 69.1428C52.7077 66.2873 49.4827 71.8253 46.3755 71.7822C41.0017 71.6499 42.0602 65.3883 37.5467 68.1066C35.7251 69.1885 33.7032 70.4906 31.4366 72.0465C26.2194 75.519 22.2105 76.4644 19.3304 75.9837C13.4622 75.5884 11.3594 69.4403 12.5864 63.5787C13.307 60.2016 15.1194 56.9238 17.9425 54.8703C21.295 52.4309 26.7856 50.5769 28.5434 46.096C29.8671 42.9798 21.5717 38.8755 23.7459 33.0653C25.1196 29.2953 29.6744 27.5952 29.9221 24.6606C30.1897 21.4904 30.2876 18.9134 30.1858 17.4471Z" stroke="#C85A16" stroke-width="0.4"/>
<path d="M32.2465 20.105C31.1809 12.3496 38.8806 14.329 40.4652 18.38C42.7857 24.2729 45.3505 26.3573 49.7955 28.5909C52.0592 30.0386 52.6922 24.7698 56.4507 24.1303C60.2091 23.4909 61.714 28.7628 63.8393 26.4652C67.1109 22.9815 70.1259 21.7483 72.5236 21.9867C74.8716 22.1255 76.6669 23.7187 77.5261 26.0036C78.3259 28.1476 78.2998 30.8953 77.125 33.6146C75.0004 37.0651 73.9691 40.7545 72.1351 42.8204C69.7039 44.978 72.9535 47.2713 72.3594 52.022C71.7653 56.7726 67.9468 56.5672 69.2058 60.0876C71.251 65.662 71.7618 69.5447 71.2821 72.0659C70.4396 77.6451 64.984 76.9385 60.5378 72.9114C57.9085 70.5965 55.9529 68.4142 54.2037 66.7852C52.0118 64.3116 49.1417 69.1955 46.3678 69.1986C41.6054 69.1284 42.4736 63.6757 38.4762 66.0758C36.8325 67.0428 35.02 68.1907 32.9997 69.5514C28.2841 72.5848 24.723 73.2542 22.2356 72.6818C17.1133 72.2925 15.2906 66.8653 16.386 61.6933C17.0386 58.6973 18.6527 55.7925 21.157 53.9678C24.2884 51.6852 29.1896 49.9825 30.7431 45.7808C31.9048 42.9797 24.6352 39.3025 26.5203 34.1313C27.7054 30.7469 31.6724 29.1755 31.8951 26.5337C32.1344 23.6942 32.2756 21.3982 32.2465 20.105Z" stroke="#C85A16" stroke-width="0.4"/>
<path d="M34.3058 22.8881C33.4617 16.2395 40.1284 17.9582 41.5112 21.4921C43.7108 27.0644 46.142 28.7741 50.2115 30.5416C52.1855 31.7613 52.7782 27.2099 56.0481 26.6263C59.3181 26.0427 60.6593 30.5242 62.5188 28.5584C65.399 25.5782 68.0413 24.5722 70.1254 24.8495C72.1504 25.0025 73.6964 26.4211 74.4139 28.4315C75.0805 30.3213 75.0128 32.7277 73.9131 35.0886C71.6899 38.1856 71.1929 42.166 69.6401 44.1547C67.5646 46.0796 70.2959 48.0861 69.7162 52.1595C69.1365 56.2329 65.7763 56.0277 66.7824 58.9732C68.4517 63.6674 68.8317 66.9158 68.3709 69.0119C67.6116 73.7498 62.8694 73.0975 58.9733 69.6306C56.6329 67.6293 54.8511 65.7692 53.2422 64.4479C51.3142 62.3616 48.7991 66.5806 46.3588 66.6299C42.2078 66.622 42.8859 61.9903 39.4048 64.0668C37.9391 64.9167 36.336 65.9078 34.5621 67.0703C30.3485 69.6578 27.2353 70.0497 25.1405 69.3871C20.7643 69.0046 19.2215 64.3105 20.1853 59.8396C20.77 57.2314 22.1856 54.7061 24.3709 53.1143C27.2808 50.9937 31.5925 49.4461 32.9417 45.5331C33.9414 43.0534 27.6976 39.8115 29.2936 35.2909C30.2902 32.2998 33.6694 30.8605 33.8671 28.5174C34.0781 26.0151 34.2624 24.0051 34.3058 22.8881Z" stroke="#C85A16" stroke-width="0.4"/>
<path d="M36.276 25.5462C35.6516 19.9877 41.299 21.4502 42.4829 24.4757C44.5664 29.7414 46.8689 31.0806 50.5715 32.3866C52.26 33.3814 52.8135 29.5359 55.6017 29.0067C58.3899 28.4774 59.5703 32.1799 61.1678 30.5409C63.6628 28.0566 65.9378 27.2753 67.7126 27.5922C69.4188 27.7598 70.7189 29.0073 71.2961 30.7483C71.8308 32.3887 71.7214 34.4598 70.6944 36.4684C68.3681 39.2196 68.4043 43.5008 67.1296 45.4173C65.4054 47.1142 67.624 48.8389 67.0576 52.2454C66.4911 55.6519 63.5821 55.4462 64.3374 57.8242C65.6342 61.6503 65.8842 64.2724 65.4414 65.9488C64.7638 69.8574 60.7251 69.2577 57.3708 66.3423C55.3145 64.6496 53.7028 63.1069 52.2309 62.0899C50.5628 60.3857 48.3975 63.9504 46.2855 64.046C42.7375 64.1003 43.2268 60.278 40.2547 62.0362C38.9639 62.7711 37.567 63.6078 36.0358 64.5751C32.3153 66.7232 29.6437 66.8388 27.9371 66.0842C24.2979 65.7076 23.0319 61.7347 23.866 57.9537C24.3839 55.7267 25.604 53.5745 27.475 52.2118C30.1694 50.2477 33.9005 48.8515 35.0482 45.2173C35.888 43.0529 30.6571 40.2382 31.9672 36.3567C32.7774 33.7513 35.5759 32.4406 35.7489 30.3903C35.932 28.2188 36.1599 26.4899 36.276 25.5462Z" stroke="#C85A16" stroke-width="0.4"/>
<path d="M38.3328 28.2041C37.9298 23.7365 42.543 24.9425 43.5249 27.4595C45.4866 32.4197 47.6543 33.3878 50.9799 34.2316C52.3784 35.0012 52.8913 31.8622 55.1904 31.3873C57.4896 30.9123 58.5058 33.835 59.8372 32.5231C61.9403 30.5352 63.842 29.9788 65.3028 30.3355C66.6858 30.5178 67.7364 31.5943 68.1718 33.0658C68.5734 34.4567 68.4225 36.1924 67.471 37.8484C65.048 40.2539 65.6171 44.8383 64.6238 46.683C63.2554 48.152 64.9556 49.5947 64.4039 52.3338C63.8522 55.0728 61.4021 54.8666 61.9046 56.6766C62.8257 59.6335 62.9451 61.6289 62.5214 62.885C61.9273 65.9635 58.6028 65.4164 55.7993 63.0527C54.0325 61.6688 52.5952 60.4439 51.2641 59.7317C49.8604 58.4099 48.0506 61.3198 46.2727 61.4619C43.337 61.5786 43.6363 58.5664 41.181 60.0061C40.0686 60.6259 38.8816 61.3083 37.597 62.0801C34.3797 63.7885 32.1566 63.627 30.8427 62.78C27.95 62.4091 26.9641 59.158 27.6664 56.0673C28.1161 54.2217 29.1375 52.4429 30.6892 51.3091C33.1609 49.5015 36.3016 48.2563 37.2447 44.9005C37.9223 43.0514 33.7181 40.664 34.739 37.422C35.3605 35.2023 37.5709 34.02 37.7188 32.2626C37.8737 30.4221 38.1444 28.9742 38.3328 28.2041Z" stroke="#C85A16" stroke-width="0.4"/>
<path d="M40.3325 30.8617C40.149 27.4865 43.753 28.4357 44.5381 30.4439C46.3895 35.1 48.435 35.6965 51.4026 36.0768C52.5188 36.6208 52.994 34.1891 54.8166 33.7684C56.6391 33.3477 57.497 35.4894 58.5693 34.505C60.2922 33.0141 61.831 32.6832 62.9857 33.0801C64.0529 33.2772 64.8597 34.1826 65.1556 35.3845C65.4259 36.5258 65.2325 37.9258 64.351 39.2288C61.8165 41.2888 62.9233 46.1799 62.2062 47.9535C61.1865 49.1946 62.377 50.3553 61.8368 52.426C61.2966 54.4967 59.2919 54.2899 59.544 55.5308C60.0939 57.6171 60.0829 58.9845 59.6759 59.8196C59.1619 62.0668 56.5336 61.572 54.2656 59.7609C52.7785 58.686 51.5074 57.7794 50.3096 57.3726C49.1625 56.4339 47.6984 58.6884 46.2447 58.8771C43.9053 59.0566 44.0159 56.8556 42.0641 57.9765L42.0104 58.0053C41.0865 58.5013 40.1203 59.02 39.0953 59.585C36.3632 60.8531 34.5765 60.4135 33.6484 59.4733C31.487 59.108 30.776 56.5793 31.3503 54.1798C31.7344 52.7159 32.5627 51.3107 33.8035 50.4062C36.0668 48.7545 38.6342 47.6604 39.3779 44.582C39.8969 43.0483 36.697 41.0884 37.434 38.4864C37.8701 36.6526 39.504 35.5986 39.6277 34.1341C39.7551 32.6247 40.0704 31.4582 40.3325 30.8617Z" stroke="#C85A16" stroke-width="0.4"/>
<path d="M42.3843 33.6483C42.4221 31.3803 44.9886 32.0686 45.5709 33.5589C47.2981 37.8901 49.2062 38.1122 51.7933 38.0277C52.6183 38.3437 53.0524 36.6299 54.3841 36.2654C55.7159 35.9009 56.4088 37.2522 57.2139 36.5997C58.5431 35.6124 59.7071 35.5084 60.5468 35.9435C61.2898 36.1546 61.8465 36.8849 62.0004 37.8118C62.1374 38.6984 61.903 39.7565 61.0981 40.7008C58.4707 42.4059 60.1078 47.5813 59.6726 49.2759C59.0095 50.2835 59.6808 51.1569 59.1561 52.5502C58.6314 53.9434 57.0877 53.737 57.0871 54.4035C57.2611 55.6101 57.1198 56.3436 56.7324 56.754C56.3026 58.1601 54.3909 57.72 52.6758 56.4693C51.4799 55.7083 50.3847 55.1239 49.3292 55.0242C48.4477 54.4727 47.3405 56.0617 46.2222 56.2963C44.4974 56.5376 44.4181 55.1575 42.985 55.9546C42.2243 56.342 41.4514 56.7129 40.6543 57.0907C38.4283 57.9129 37.0919 57.1973 36.5571 56.1681C35.1439 55.8101 34.7135 54.0151 35.1554 52.3173C35.4709 51.2416 36.0996 50.2163 37.0199 49.5451C39.0577 48.0567 41.032 47.1185 41.5705 44.3315C41.9269 43.12 39.7563 41.5964 40.2036 39.6458C40.4509 38.2062 41.4954 37.2851 41.5939 36.1201C41.6928 34.9485 42.0505 34.0685 42.3843 33.6483Z" stroke="#C85A16" stroke-width="0.4"/>
<path d="M44.467 36.3096C44.7249 35.1408 46.2623 35.5705 46.6435 36.5475C48.2492 40.5634 50.0228 40.4129 52.2345 39.8647C52.7709 39.9541 53.1645 38.9526 54.0095 38.6433C54.8545 38.334 55.3841 38.9001 55.9242 38.5771C56.8634 38.0899 57.6559 38.2118 58.183 38.686C58.6043 38.9115 58.9128 39.4686 58.9257 40.1233C58.93 40.7578 58.6545 41.4772 57.9249 42.0659C55.2017 43.4207 57.3686 48.89 57.2134 50.5092C56.9044 51.2861 57.0598 51.8748 56.5499 52.5955C56.04 53.3163 54.9531 53.1097 54.7011 53.2049C54.5013 53.537 54.2301 53.64 53.8618 53.6279C53.5151 54.1982 52.3142 53.8117 51.1473 53.1173C50.2396 52.6675 49.3181 52.4032 48.403 52.6096C47.7846 52.4429 47.0312 53.3718 46.2454 53.6525C45.1299 53.9559 44.8617 53.3915 43.943 53.8674C43.3599 54.1386 42.7959 54.3538 42.2443 54.5347C40.5192 54.914 39.6292 53.9218 39.4852 52.802C38.8149 52.4505 38.6631 51.3832 38.9738 50.3815C39.2214 49.6907 39.6524 49.0421 40.2549 48.602C42.0707 47.2735 43.4573 46.4888 43.7923 43.9867C43.9873 43.0939 42.8384 42.0021 42.9978 40.6971C43.0575 39.6474 43.5168 38.8571 43.5903 37.9883C43.661 37.1511 44.0613 36.555 44.467 36.3096Z" stroke="#C85A16" stroke-width="0.4"/>
</svg>
